<!-- by TradingView --><svg xmlns="http://www.w3.org/2000/svg" width="18" height="18" viewBox="0 0 18 18"><path fill="#F0F3FA" d="M0 0h18v18H0z"/><path d="M11.19 5.62a.62.62 0 1 1-1.25 0 .62.62 0 0 1 1.25 0zM5 5.5c0 .25-.18.51-.5.51a.5.5 0 0 1-.5-.51c0-.23.2-.49.5-.49.31 0 .5.26.5.49zM7.52 13c.38 0 .7-.28.7-.67a.7.7 0 0 0-.7-.69.7.7 0 0 0-.7.7c0 .38.3.66.7.66zm6.48-.67c0 .39-.31.67-.7.67-.4 0-.7-.28-.7-.67a.7.7 0 0 1 .7-.69c.39 0 .7.31.7.7zm-.78-5.8c.43 0 .78-.34.78-.76a.77.77 0 0 0-.78-.77.77.77 0 0 0-.78.77c0 .42.35.76.78.76zM14 8.98c0 .42-.35.76-.78.76a.77.77 0 0 1-.78-.76c0-.43.35-.77.78-.77.43 0 .78.34.78.77zM4.94 13a.9.9 0 0 0 .93-.9c0-.5-.41-.92-.93-.92a.93.93 0 0 0-.94.92c0 .51.42.9.94.9z" fill="#2B3C72"/><path d="M8.69 6.07c0 .6-.5 1.08-1.1 1.08-.27 0-.75.21-.92.43l-.34.33c-.18.24-.19.53-.15.82l.4.04c.16-.4.55-.67 1.01-.67.6 0 1.1.48 1.1 1.07 0 .36 0 .75.23 1.02l1.02.86c.1-.06.2-.11.31-.15V9.9c0-.54-.45-1-.68-1.5-.07-.13-.1-.29-.1-.44 0-.6.49-1.08 1.1-1.08.6 0 1.09.48 1.09 1.08 0 .15-.04.3-.1.44-.23.5-.69.96-.69 1.5v1.01c.46.13.79.54.79 1.03 0 .6-.5 1.07-1.1 1.07-.6 0-1.1-.48-1.1-1.07 0-.18.06-.36.14-.5l-1.18-.94c-.2-.2-.53-.24-.83-.24-.56 0-1.02-.42-1.08-.96l-.4-.02c-.16.4-.56.67-1.02.67C4.5 9.94 4 9.46 4 8.87c0-.6.49-1.08 1.1-1.08.25 0 .67-.01.83-.2l.33-.33c.27-.31.24-.78.24-1.19C6.5 5.48 6.99 5 7.6 5c.6 0 1.09.48 1.09 1.07z" fill="#2899D5"/></svg>