<!-- by TradingView --><svg xmlns="http://www.w3.org/2000/svg" width="18" height="18" viewBox="0 0 18 18"><path fill="#F0F3FA" d="M0 0h18v18H0z"/><path d="m9.04 3.56-.78.06v.1l.78.12v-.28ZM9.04 8.33l.77.06v.1l-.77.12v-.28ZM6.87 6.5h4.5v.09l-4.5.09v-.19ZM7.95 7.37l2.48.03v.12l-2.48.06v-.21ZM11.2 5.5H6.57v.15h4.65v-.16ZM9.04 14.26l.77.06v.1l-.77.12v-.28ZM10.43 10.48H7.64v.1l2.8.09v-.19ZM7.95 13.29l2.48.03v.13l-2.48.06v-.22ZM11.2 11.42H6.57v.16h4.65v-.16Z" fill="#787878"/><path d="M8.42 3.62c0 .18-.14.32-.31.32a.31.31 0 0 1-.31-.32c0-.17.14-.3.3-.3.18 0 .32.13.32.3ZM9.97 3.62c0 .35-.28.63-.62.63a.62.62 0 0 1-.62-.63c0-.34.28-.62.62-.62.34 0 .62.28.62.62Z" fill="#214BAA"/><path d="M6.71 5.57c0 .13-.1.24-.23.24a.23.23 0 0 1-.23-.24c0-.13.1-.23.23-.23s.23.1.23.23Z" fill="#DCCC31"/><path d="M7.8 4.64a.39.39 0 1 1-.77 0c0-.22.17-.4.38-.4.22 0 .39.18.39.4Z" fill="#047E3F"/><path d="M6.96 6.59c0 .2-.16.35-.35.35a.36.36 0 0 1-.36-.35.36.36 0 1 1 .71 0Z" fill="#7C1A27"/><path d="M9.12 8.45c0 .35-.28.63-.62.63a.62.62 0 0 1-.62-.63c0-.34.28-.62.62-.62.34 0 .62.28.62.62ZM10.12 8.46c0 .13-.1.23-.23.23a.23.23 0 0 1-.23-.23c0-.13.1-.24.23-.24s.23.1.23.24Z" fill="#047E3F"/><path d="M8 7.47c0 .29-.23.52-.51.52a.51.51 0 0 1-.51-.52c0-.28.23-.51.5-.51.3 0 .52.23.52.51ZM10.94 7.47c0 .2-.16.36-.35.36a.36.36 0 0 1-.36-.36c0-.2.16-.35.36-.35.2 0 .35.16.35.35Z" fill="#214BAA"/><path d="M11.75 6.59c0 .12-.1.23-.23.23a.23.23 0 0 1-.23-.23c0-.13.1-.24.23-.24s.23.1.23.24Z" fill="#7C1A27"/><path d="M11.74 5.57c0 .2-.16.36-.35.36a.36.36 0 0 1-.36-.36.36.36 0 1 1 .71 0Z" fill="#DCCC31"/><path d="M11 4.64c0 .28-.24.51-.52.51a.51.51 0 0 1-.51-.51c0-.29.23-.52.51-.52s.51.23.51.52Z" fill="#047E3F"/><path d="M9.97 9.55c0 .34-.28.62-.62.62a.62.62 0 0 1-.62-.62c0-.35.28-.63.62-.63.34 0 .62.28.62.63Z" fill="#DCCC31"/><path d="M9.12 14.38c0 .34-.28.62-.62.62a.62.62 0 0 1-.62-.62c0-.35.28-.63.62-.63.34 0 .62.28.62.63ZM11 10.56c0 .29-.24.52-.52.52a.51.51 0 0 1-.51-.52c0-.28.23-.51.51-.51s.51.23.51.51Z" fill="#7C1A27"/><path d="M8 13.4c0 .28-.23.51-.51.51a.51.51 0 0 1-.51-.51c0-.29.23-.52.5-.52.3 0 .52.23.52.52ZM8.42 9.55c0 .17-.14.3-.31.3a.31.31 0 0 1-.31-.3c0-.17.14-.31.3-.31.18 0 .32.14.32.3Z" fill="#DCCC31"/><path d="M6.71 11.5c0 .13-.1.23-.23.23a.23.23 0 0 1-.23-.23c0-.13.1-.24.23-.24s.23.1.23.24Z" fill="#214BAA"/><path d="M11.75 12.51c0 .13-.1.23-.23.23a.23.23 0 0 1-.23-.23c0-.13.1-.23.23-.23s.23.1.23.23Z" fill="#047E3F"/><path d="M10.12 14.38c0 .13-.1.23-.23.23a.23.23 0 0 1-.23-.23c0-.13.1-.23.23-.23s.23.1.23.23ZM7.8 10.56c0 .22-.17.4-.39.4a.39.39 0 0 1-.39-.4c0-.21.18-.39.4-.39.2 0 .38.18.38.4Z" fill="#7C1A27"/><path d="M11.74 11.5c0 .19-.16.35-.35.35a.36.36 0 0 1-.36-.36.36.36 0 1 1 .71 0Z" fill="#214BAA"/><path d="M10.94 13.4c0 .2-.16.36-.35.36a.36.36 0 0 1-.36-.36.36.36 0 1 1 .71 0Z" fill="#DCCC31"/><path d="M6.96 12.51c0 .2-.16.36-.35.36a.36.36 0 0 1-.36-.36.36.36 0 1 1 .71 0Z" fill="#047E3F"/></svg>