<!-- by TradingView --><svg xmlns="http://www.w3.org/2000/svg" width="56" height="56" viewBox="0 0 56 56"><path fill="#F0F3FA" d="M0 0h56v56H0z"/><path d="m28.13 10.78-2.54.2v.29l2.54.4v-.9ZM28.13 25.88l2.53.2v.3l-2.53.4v-.9ZM32.69 13.94h-9.13v.3l9.13.29v-.6ZM21.03 20.06h14.7v.3l-14.7.3v-.6ZM24.58 22.82l8.11.1v.4l-8.11.2v-.7ZM35.23 16.9H20v.5h15.22v-.5ZM28.13 29.54l-2.54.2v.3l2.54.39v-.9ZM28.13 44.64l2.53.2v.3l-2.53.4v-.9ZM32.69 32.7h-9.13v.3l9.13.29v-.6ZM21.03 38.82h14.7v.3l-14.7.3v-.6ZM24.58 41.58l8.11.1v.4l-8.11.2v-.7ZM35.23 35.66H20v.5h15.22v-.5Z" fill="#787878"/><path d="M26.1 10.97a1 1 0 0 1-1.02 1 1 1 0 0 1-1.01-1 1 1 0 0 1 1.01-.98 1 1 0 0 1 1.02.98ZM31.17 10.97a2 2 0 0 1-2.03 1.98 2 2 0 0 1-2.03-1.98A2 2 0 0 1 29.14 9a2 2 0 0 1 2.03 1.97Z" fill="#214BAA"/><path d="M20.52 17.15c0 .4-.34.74-.76.74a.75.75 0 0 1-.76-.74c0-.41.34-.74.76-.74s.76.33.76.74Z" fill="#DCCC31"/><path d="M24.07 14.18c0 .69-.57 1.24-1.27 1.24-.7 0-1.26-.55-1.26-1.24 0-.68.56-1.23 1.26-1.23s1.27.55 1.27 1.23Z" fill="#047E3F"/><path d="M21.33 20.35c0 .63-.52 1.14-1.16 1.14-.65 0-1.17-.5-1.17-1.14 0-.62.52-1.13 1.17-1.13.64 0 1.16.5 1.16 1.13Z" fill="#7C1A27"/><path d="M28.39 26.26a2 2 0 0 1-2.03 1.98 2 2 0 0 1-2.03-1.98 2 2 0 0 1 2.03-1.97 2 2 0 0 1 2.03 1.97ZM31.68 26.28c0 .4-.34.74-.76.74a.75.75 0 0 1-.77-.74c0-.41.35-.74.77-.74.42 0 .76.33.76.74Z" fill="#047E3F"/><path d="M24.73 23.17c0 .9-.75 1.63-1.67 1.63-.93 0-1.68-.73-1.68-1.63 0-.9.75-1.63 1.68-1.63.92 0 1.67.73 1.67 1.63ZM34.36 23.17c0 .63-.52 1.13-1.16 1.13-.65 0-1.17-.5-1.17-1.13 0-.63.52-1.14 1.17-1.14.64 0 1.16.51 1.16 1.14Z" fill="#214BAA"/><path d="M37 20.35c0 .41-.34.75-.76.75a.75.75 0 0 1-.76-.75c0-.4.34-.74.76-.74s.76.34.76.74Z" fill="#7C1A27"/><path d="M36.97 17.13c0 .63-.52 1.14-1.16 1.14-.65 0-1.17-.51-1.17-1.14 0-.63.52-1.13 1.17-1.13.64 0 1.16.5 1.16 1.13Z" fill="#DCCC31"/><path d="M34.52 14.19c0 .9-.75 1.63-1.67 1.63-.93 0-1.68-.73-1.68-1.63 0-.9.75-1.63 1.68-1.63.92 0 1.67.73 1.67 1.63Z" fill="#047E3F"/><path d="M31.17 29.73a2 2 0 0 1-2.03 1.98 2 2 0 0 1-2.03-1.98 2 2 0 0 1 2.03-1.97 2 2 0 0 1 2.03 1.97Z" fill="#DCCC31"/><path d="M28.39 45.03A2 2 0 0 1 26.36 47a2 2 0 0 1-2.03-1.97 2 2 0 0 1 2.03-1.98 2 2 0 0 1 2.03 1.98ZM34.52 32.95c0 .9-.75 1.63-1.67 1.63-.93 0-1.68-.73-1.68-1.63 0-.9.75-1.63 1.68-1.63.92 0 1.67.73 1.67 1.63Z" fill="#7C1A27"/><path d="M24.73 41.93c0 .9-.75 1.63-1.67 1.63-.93 0-1.68-.73-1.68-1.63 0-.9.75-1.63 1.68-1.63.92 0 1.67.73 1.67 1.63ZM26.1 29.74a1 1 0 0 1-1.02.98 1 1 0 0 1-1.01-.98 1 1 0 0 1 1.01-1 1 1 0 0 1 1.02 1Z" fill="#DCCC31"/><path d="M20.52 35.9c0 .42-.34.75-.76.75a.75.75 0 0 1-.76-.74c0-.41.34-.74.76-.74s.76.33.76.74Z" fill="#214BAA"/><path d="M37 39.12c0 .4-.34.74-.76.74a.75.75 0 0 1-.76-.74c0-.41.34-.75.76-.75s.76.34.76.75Z" fill="#047E3F"/><path d="M31.68 45.04c0 .4-.34.74-.76.74a.75.75 0 0 1-.77-.74c0-.4.35-.74.77-.74.42 0 .76.33.76.74ZM24.07 32.94c0 .69-.57 1.24-1.27 1.24-.7 0-1.26-.55-1.26-1.24 0-.68.56-1.23 1.26-1.23s1.27.55 1.27 1.23Z" fill="#7C1A27"/><path d="M36.97 35.9c0 .62-.52 1.13-1.16 1.13-.65 0-1.17-.51-1.17-1.14 0-.63.52-1.13 1.17-1.13.64 0 1.16.5 1.16 1.13Z" fill="#214BAA"/><path d="M34.36 41.93c0 .63-.52 1.14-1.16 1.14-.65 0-1.17-.51-1.17-1.14 0-.63.52-1.14 1.17-1.14.64 0 1.16.51 1.16 1.14Z" fill="#DCCC31"/><path d="M21.33 39.12c0 .62-.52 1.13-1.16 1.13-.65 0-1.17-.5-1.17-1.13 0-.63.52-1.14 1.17-1.14.64 0 1.16.5 1.16 1.14Z" fill="#047E3F"/></svg>