<!-- by TradingView --><svg width="18" height="18" fill="none" xmlns="http://www.w3.org/2000/svg"><path fill="#101C36" d="M0 0h18v18H0z"/><path d="M5 13.882C9 11.831 13 14 13 14s-4.119-.999-8-.118z" fill="#86AAD1"/><path opacity=".9" fill-rule="evenodd" clip-rule="evenodd" d="M8.76 4L6.31 10.12c-.255.643-.47 1.069-.644 1.276A1.09 1.09 0 015 11.77V12h2.506v-.23c-.393-.034-.64-.083-.74-.15-.17-.112-.255-.286-.255-.523 0-.178.052-.404.156-.678l.316-.822h2.661l.4 1.052c.104.274.16.43.167.467a.848.848 0 01.033.23c0 .125-.04.22-.122.287-.118.091-.324.137-.616.137h-.15V12H13v-.23c-.23-.021-.407-.096-.533-.224-.167-.17-.38-.583-.64-1.24L9.354 4h-.594zm-.427 2.23l1.123 2.906H7.178L8.333 6.23z" fill="#fff"/></svg>