<!-- by TradingView --><svg xmlns="http://www.w3.org/2000/svg" width="18" height="18"><path fill="#005CB9" d="M0 0h18v18H0z"/><path d="M9.56 8.12c.23-.54.95-2.24.82-5.12L8.4 9.65 14.3 7s-4.18.74-4.7 1.23c-.14.14-.13.1-.04-.11zM7.98 9.75L3 10.98c2.28-1.52 3.06-1.63 3.26-1.6a63.43 63.43 0 01-3.08-3.63l4.8 4zm.48.16L15 8.27c-2.47 1.65-3.91 1.83-4.5 1.9-.22.03-.33.05-.32.11.04.25 2 2.5 3.08 3.63l-4.8-4zm-.8-2.07s.28-3.24 1.6-4.74l-1.1 6.46-4.42-4.88c2.5 1.26 3.33 2.45 3.67 2.94.13.19.2.27.25.22zm.6 2.34l4.72 4.57c-2.62-1.1-3.4-2.12-3.74-2.58-.13-.16-.2-.25-.28-.25-.18.02-1.18 3.08-1.18 3.08l.48-4.82z" fill="#FF9B31"/></svg>