<!-- by TradingView --><svg xmlns="http://www.w3.org/2000/svg" width="18" height="18" viewBox="0 0 18 18"><path fill="#F0F3FA" d="M0 0h18v18H0z"/><path fill-rule="evenodd" d="M15 7.97a2.87 2.87 0 0 0-2.6-2.14 3.44 3.44 0 0 0-4.57 3.2 3.41 3.41 0 0 0 4.74 3.15h1.6A6.05 6.05 0 0 1 3 9c0-3.31 2.7-6 6.04-6A6.03 6.03 0 0 1 15 7.97ZM5.01 9.02c0 2.39 1.75 4.39 4.07 4.83A4.92 4.92 0 0 1 4.58 9 4.93 4.93 0 0 1 9.4 4.13 4.98 4.98 0 0 0 5 9.02Zm4.86 4a4.07 4.07 0 0 1-3.12-3.98 4.07 4.07 0 0 1 2.92-3.92 4 4 0 0 0 .2 7.9Z" fill="#980089"/><path fill-rule="evenodd" d="M9.8 7.28c.28-.25 1.1-.76 2.16-.75 1.33 0 1.96.83 2.04 1.76v3.53h-1v-.76c-.19.26-.75.79-1.7.76-1.18-.03-1.84-.8-1.86-1.66-.03-.86.8-1.52 2.01-1.51H13v-.36c-.04-.29-.34-.87-1.15-.87-.81 0-1.38.36-1.56.54l-.49-.68ZM13 9.35v.67c-.03.28-.37.85-1.36.92-.99.06-1.17-.59-1.14-.92 0-.23.25-.69 1.23-.67H13Z" fill="#FF5313"/></svg>