<!-- by TradingView --><svg xmlns="http://www.w3.org/2000/svg" width="56" height="56" viewBox="0 0 56 56"><path fill="#F0F3FA" d="M0 0h56v56H0z"/><circle cx="29" cy="16" r="3" fill="#1D78AF"/><circle cx="29" cy="16" r="1.93" fill="#40A1DC"/><path d="M16.3 10c-.99 1.81-2.07 6.75 5.25 8.66 1.24.43 4.83 1.35 9.3 1.58 5.58.3 8.15 1.82 8.15 3.47 0 1.65-2.5 2.9-6.92 2.9-4.41 0-11.3-1.22-13.9 1.9.15.4 1.65 1.14 6.38 1.07 5.92-.1 10.54-1 11.91 1.93.25.6-.22 2.08-4.06 3.13-4.8 1.3-7.73 1.68-8.27 2.8.7.18 2.62.53 4.64.51 2.53-.02 4.8.94 4.8 2.35 0 1.41-4.8 3.16-4.8 3.69 0 .53 2.78 1.22 4.58 1.22.98 0 1.5-.1 1.73-.2l.18-.14A5.55 5.55 0 0 1 32.1 46c-1.78 0-4.65-1.1-4.65-1.87 0-.76 2-1.99 2.94-2.42.94-.43 3.02-1.1 1.7-1.82-1.3-.71-9.44-.44-9.27-2.45.14-1.6 4.03-2.8 5.96-3.2 1.96-.47 6.07-1.64 6.88-2.56 0-.32-.9-.95-4.38-.91-4.35.05-13.11 1.2-13.88-2.13-.76-3.33 6.16-3.74 8.24-3.78 2.08-.05 10.3.74 12.65-1.15-.45-.59-2.64-1.77-7.85-1.82-6.5-.08-14-3.52-14.97-6.23-.96-2.7-.33-3.84.83-5.66z" fill="url(#aeoz2zfyp)"/><defs><linearGradient id="aeoz2zfyp" x1="16.12" y1="29.65" x2="39" y2="28.75" gradientUnits="userSpaceOnUse"><stop offset=".26" stop-color="#1282BC"/><stop offset=".52" stop-color="#40A1DC"/><stop offset=".92" stop-color="#1282BC"/></linearGradient></defs></svg>