<!-- by TradingView --><svg xmlns="http://www.w3.org/2000/svg" width="18" height="18"><path fill="#F0F3FA" d="M0 0h18v18H0z"/><path d="M14.17 8.36L14.89 5H3.76L3 8.38s.84 1.09.84 2.35c0 1.33-.8 2.27-.8 2.27h11.2s.76-.92.76-2.44c0-1.4-.83-2.2-.83-2.2z" fill="#0054A4"/><path d="M8.8 7v4h-.5v-.75a1.87 1.87 0 01-1.53.75 1.96 1.96 0 01-1.95-2 1.92 1.92 0 01.57-1.41c.39-.4.85-.59 1.4-.59a1.8 1.8 0 011.51.8V7h.48zm-1.97.48a1.48 1.48 0 00-1.3.76 1.54 1.54 0 000 1.54 1.5 1.5 0 002.81-.76 1.51 1.51 0 00-1.5-1.54zM9.42 7h.46v.76c.33-.47.86-.77 1.43-.76 1.01 0 1.88.86 1.86 1.88a1.85 1.85 0 01-3.3 1.19V12h-.45V7zm1.85.45c-.8-.02-1.42.68-1.42 1.46-.02.79.63 1.41 1.43 1.41a1.44 1.44 0 000-2.87z" fill="#E8E8E8"/></svg>