<!-- by TradingView --><svg width="56" height="56" xmlns="http://www.w3.org/2000/svg"><path fill="#F0F3FA" d="M0 0h56v56H0z"/><path d="M25.157 37.504c-2.83-1.028-4.907-3.603-5.185-6.696.34 5.755 3.472 10.684 8.448 13.181a16.075 16.075 0 002.757-.308 15.075 15.075 0 01-6.02-6.177zM27.884 16.08a43.32 43.32 0 011.668 1.735 50.41 50.41 0 014.731-4.53 16.01 16.01 0 00-2.37-.798 53.319 53.319 0 00-4.03 3.593z" fill="#07A7CB"/><path d="M34.283 13.283a50.607 50.607 0 00-4.731 4.53c3.69 4.045 6.27 8.377 6.27 11.949 0 .113-.008.225-.008.342h-.022c0 4.353-3.549 7.882-7.925 7.882a7.893 7.893 0 01-2.708-.482 15.083 15.083 0 006.022 6.179C38.495 42.209 44 35.75 44 28c-.002-6.605-4.004-12.276-9.718-14.717z" fill="#2CBBE1"/><path d="M19.941 29.762c0-5.23 5.518-12.091 11.976-17.277A16.034 16.034 0 0027.999 12C19.164 12 12 19.162 12 27.998 12 36.836 19.164 44 28 44c.14 0 .279-.006.42-.01-5.273-2.647-8.479-8.027-8.479-14.228z" fill="#90D7ED"/></svg>