<!-- by TradingView --><svg xmlns="http://www.w3.org/2000/svg" width="18" height="18"><path d="M0 9a9 9 0 1118 0A9 9 0 010 9z" fill="#D87163"/><path fill-rule="evenodd" d="M14 12.06a38.34 38.34 0 01-1.5-.57c-.83-.34-1.52-.66-2-.89l-.19-.1c-.42-.99-.75-2.04-.97-3.15C9.1 6.13 8.88 5.02 8.7 4a16.47 16.47 0 01-2.14 4.74 2.62 2.62 0 00-.65-.08c-.23 0-.45.04-.66.12-.21.08-.4.2-.56.39.2-.12.36-.2.48-.26.13-.05.3-.07.54-.07.22 0 .46.03.71.1-.65.79-1.22 1.35-1.7 1.7-.48.35-.72.58-.72.68 0 .13.02.21.06.26.04.05.12.08.22.08.22 0 .5-.2.86-.58.36-.38.67-.76.93-1.13l.63-.9c.91.33 1.67.85 2.27 1.56l1.18 1.64c.41.5.92.75 1.51.75h.64a3.71 3.71 0 01-1.3-1.2 34.34 34.34 0 003 1.04v-.78zM6.84 8.84c.43.12.83.27 1.2.44.37.18.68.39.93.63-.12-.3-.25-.81-.4-1.52-.15-.72-.28-1.46-.37-2.22-.17.46-.37.9-.6 1.34-.22.43-.48.88-.76 1.33z" fill="#fff"/></svg>