<!-- by TradingView --><svg xmlns="http://www.w3.org/2000/svg" width="56" height="56" viewBox="0 0 56 56"><path fill="#F0F3FA" d="M0 0h56v56H0z"/><path d="M28.55 22h2.33l3.32 6.99L37.52 22h2.32l-5.58 12h-.14l-5.57-12ZM21.38 22.39c2.67-.35 4.04.98 4.62 1.82l-.87 1.42c.03-.66-.79-2.13-2.88-2.2a3.83 3.83 0 0 0-3.83 2.53 3.05 3.05 0 0 0-2.48-.07c-.9.42-1.26 1.39-1.12 2.3-1.6.14-2.64 1.09-2.52 2.6.12 1.48 1.39 2.21 2.08 2.21h6.43l-.58 1h-6.06c-1.45 0-2.67-1.1-2.82-2H8.61a2.5 2.5 0 0 1-2.35-1.68c-.85-2.1.42-5 2.93-5-.58-1.46.86-4.2 3.82-3.14 1.66-2.73 6.2-3.15 8.37.2Z" fill="#1B5B9C"/><path d="M26.19 22h-.35l-6.03 12h2.42l1.01-2h5.46l1.11 2h2.36L26.2 22Zm-.2 4.43L27.7 30h-3.5l1.8-3.57ZM47.25 30.98c.33-.27.6-.59.82-.96l1.93.73A5.8 5.8 0 0 1 44.82 34 5.91 5.91 0 0 1 39 28c0-3.31 2.6-6 5.82-6a5.8 5.8 0 0 1 5.06 3.02l-1.83.92a3.57 3.57 0 0 0-.8-.92 3.6 3.6 0 0 0-2.5-1.02C42.68 24 41 25.8 41 28s1.68 4 3.75 4a3.6 3.6 0 0 0 2.5-1.02Z" fill="#1B5B9C"/></svg>