<!-- by TradingView --><svg xmlns="http://www.w3.org/2000/svg" width="18" height="18" viewBox="0 0 18 18"><path fill="#F0F3FA" d="M0 0h18v18H0z"/><path d="M8.86 7.57h.7l1 2 1-2h.7L10.57 11h-.04L8.86 7.57ZM6.61 7.68c.8-.1 1.22.28 1.39.52l-.26.41c0-.19-.24-.6-.87-.63a1.15 1.15 0 0 0-1.14.72.96.96 0 0 0-.75-.02.6.6 0 0 0-.33.66c-.48.04-.8.31-.76.74a.7.7 0 0 0 .63.64h1.92l-.17.28H4.45c-.43 0-.8-.3-.84-.57h-.83a.75.75 0 0 1-.7-.48c-.26-.6.12-1.43.88-1.43-.18-.42.26-1.2 1.14-.9.5-.78 1.87-.9 2.51.06Z" fill="#1B5B9C"/><path d="M8.06 7.57h-.1L6.13 11h.73l.3-.57h1.64l.33.57h.71l-1.8-3.43ZM8 8.84l.51 1.02H7.46L8 8.84ZM14.48 10.14c.1-.08.18-.17.24-.27l.58.2c-.3.56-.88.93-1.55.93-.97 0-1.75-.76-1.75-1.71s.78-1.72 1.75-1.72c.65 0 1.21.35 1.51.87l-.55.26c-.06-.1-.14-.2-.24-.27-.2-.18-.46-.29-.75-.29-.62 0-1.12.52-1.12 1.15 0 .63.5 1.14 1.13 1.14.28 0 .55-.1.75-.3Z" fill="#1B5B9C"/></svg>