<!-- by TradingView --><svg width="56" height="56" viewBox="0 0 56 56" xmlns="http://www.w3.org/2000/svg"><path d="M0 28a28 28 0 1 1 56 0 28 28 0 0 1-56 0Z" fill="#3B4A67"/><path d="M40 16h-3v1h3v-1ZM40 18h-3v1.5h3V18Z" fill="#626C74"/><path d="M40 32h-3v1h3v-1Z" fill="#F5E144"/><path d="M40 20h-3v4h3v-4Z" fill="#AEBBBF"/><path d="M40 25h-3v.5h3V25Z" fill="#DEE7E9"/><path d="M40 31h-3v.35h3V31Z" fill="#F5E144"/><path d="M40 26h-3v1h3v-1Z" fill="#DEE7E9"/><path d="M40 28.5h-3V30h3v-1.5ZM10.5 31.74C9.5 32.58 8.6 33 7.45 33 5.64 33 4 32.04 4 30.06c0-3.06 4.12-3.39 6.5-3.56v-.42c0-1.16-1.1-1.58-2.07-1.58-.83-.03-1.84.22-2.3.97l-1.63-.82c.89-1.35 2.48-1.7 3.98-1.65C10.77 23 13 23 13 26.3V33h-2.5v-1.26Zm0-3.74c-1.34.08-3.88.07-3.88 2 0 .83.68 1.03 1.43 1a4.33 4.33 0 0 0 2.45-.88V28ZM32.5 31.74c-1 .84-1.91 1.26-3.06 1.26-1.8 0-3.44-.96-3.44-2.94 0-3.06 4.12-3.39 6.5-3.56v-.42c0-1.16-1.11-1.58-2.08-1.58-.83-.02-1.83.23-2.3.97l-1.62-.82c.89-1.35 2.47-1.7 3.97-1.65 2.3 0 4.53 0 4.53 3.29V33h-2.5v-1.26Zm0-3.74c-1.35.08-3.89.08-3.89 2 0 .83.68 1.03 1.44 1a4.33 4.33 0 0 0 2.45-.88V28ZM48.5 31.74c-1 .84-1.91 1.26-3.06 1.26-1.8 0-3.44-.96-3.44-2.94 0-3.06 4.12-3.39 6.5-3.56v-.42c0-1.16-1.11-1.58-2.08-1.58-.83-.02-1.83.23-2.3.97l-1.62-.82c.88-1.35 2.47-1.7 3.97-1.65 2.3 0 4.53 0 4.53 3.29V33h-2.5v-1.26Zm0-3.74c-1.35.08-3.89.08-3.89 2 0 .83.68 1.03 1.44 1a4.33 4.33 0 0 0 2.45-.88V28ZM14.58 34.73c.49.17 1.02.27 1.54.27 1.42 0 1.9-1.48 2.38-2.54l-4-9.46h3l2.5 6 2.5-6h3l-5.1 10.87c-.8 1.88-1.92 3.19-4.1 3.13a9.1 9.1 0 0 1-2.3-.3l.58-1.97Z" fill="#F5E144"/></svg>