<!-- by TradingView --><svg xmlns="http://www.w3.org/2000/svg" width="18" height="18" viewBox="0 0 18 18"><path fill="#F0F3FA" d="M0 0h18v18H0z"/><path d="M11.75 5A2.7 2.7 0 0 0 9 7.64 2.7 2.7 0 0 0 6.25 5 2.67 2.67 0 0 0 3.5 7.64C3.5 12.24 9 14 9 14s5.5-1.75 5.5-6.36c0-1.5-1.23-2.64-2.75-2.64z" fill="url(#aftroexsz)"/><path d="M11.75 5A2.7 2.7 0 0 0 9 7.64 2.7 2.7 0 0 0 6.25 5 2.67 2.67 0 0 0 3.5 7.64C3.5 12.24 9 14 9 14s5.5-1.75 5.5-6.36c0-1.5-1.23-2.64-2.75-2.64z" fill="url(#bftroexsz)"/><path d="M14.5 7.92c-.35 1.47-1.37 3.18-3.8 3.1-2.08-.07-2.58-1.12-3-2.01-.4-.8-.71-1.47-2.06-1.18-1.82.4-1.18 2.38-.45 3.8a5.64 5.64 0 0 1-1.69-4C3.5 6.15 4.73 5 6.25 5A2.7 2.7 0 0 1 9 7.64 2.7 2.7 0 0 1 11.75 5a2.67 2.67 0 0 1 2.74 2.92z" fill="url(#cftroexsz)"/><defs><linearGradient id="aftroexsz" x1="11.03" y1="8.45" x2="5.98" y2="13.25" gradientUnits="userSpaceOnUse"><stop stop-color="#7A6FB8"/><stop offset=".47" stop-color="#27BDA2"/><stop offset=".71" stop-color="#27BDA2"/><stop offset="1" stop-color="#1EB7D3"/></linearGradient><linearGradient id="bftroexsz" x1="9.64" y1="13.75" x2="7.82" y2="10.38" gradientUnits="userSpaceOnUse"><stop stop-color="#28AEC7"/><stop offset="1" stop-color="#7A6FB8" stop-opacity="0"/></linearGradient><linearGradient id="cftroexsz" x1="9.27" y1="4.04" x2="7.22" y2="10.51" gradientUnits="userSpaceOnUse"><stop stop-color="#A053C1"/><stop offset=".4" stop-color="#D92AB5"/><stop offset="1" stop-color="#3AA5B9"/></linearGradient></defs></svg>