<!-- by TradingView --><svg xmlns="http://www.w3.org/2000/svg" width="56" height="56" viewBox="0 0 56 56"><path fill="url(#alwrod0ub)" d="M0 0h56v56H0z"/><path fill-rule="evenodd" d="M17.14 18H11v20h6.7a5.3 5.3 0 0 0 3-9.66l-.7-.35a8 8 0 0 1 14.17-5.08l.73-2.15a10 10 0 0 0-16.84 8.28A3.5 3.5 0 0 1 17.5 36H13v-7h4.04a11.13 11.13 0 0 1 .07-2.57c-.21.05-.43.07-.66.07H13V20h3.45c1.13 0 2.13.58 2.7 1.45.53-.7 1.14-1.35 1.82-1.91A5.45 5.45 0 0 0 17.14 18zm4.66.91A6.53 6.53 0 0 0 17.14 17H10v22h7.7c1.7 0 3.22-.66 4.35-1.74a10.95 10.95 0 0 0 6.71 1.71V39h3.69l.36-1.1a11.05 11.05 0 0 0 5-4.9h-3.39l3.33-10.18L39.77 29h-1.24l-1.08 3h3.3l2.29 7h3.62l-2.38-7h4.56L50 29h-6.74l-4.1-12h-3l-.91 2.72a10.96 10.96 0 0 0-13.45-.8zm.93 17.59a9.95 9.95 0 0 0 6.38 1.44l.72-2.15a8.02 8.02 0 0 1-6.16-1.06 6.28 6.28 0 0 1-.94 1.77zm1.2-2.81a6.97 6.97 0 0 0 6.3.95l3.56-10.58a7 7 0 0 0-10.3-1.42c.02.12.02.24.02.36 0 1.81-.85 3.44-2.2 4.54a6.29 6.29 0 0 1 2.61 6.15zm-2.7-7.51c.24-.86.63-1.65 1.15-2.35a4.85 4.85 0 0 1-1.14 2.35zM14 30h3.18c.3 1.63.96 3.14 1.9 4.44-.43.35-.98.56-1.58.56H14v-5zm4.22.1c.28 1.29.8 2.48 1.51 3.53a2.49 2.49 0 0 0-1.5-3.52zm-1.77-4.6c.31 0 .6-.06.88-.18.26-1.04.67-2.02 1.2-2.92a2.25 2.25 0 0 0-2.08-1.4H14v4.5h2.45zm16.82 11l.82-2.5H36c-.75 1-1.67 1.84-2.73 2.5z" fill="#fff"/><defs><linearGradient id="alwrod0ub" x1="10.42" y1="9.71" x2="68.15" y2="76.02" gradientUnits="userSpaceOnUse"><stop stop-color="#1A1E21"/><stop offset="1" stop-color="#06060A"/></linearGradient></defs></svg>