<!-- by TradingView --><svg xmlns="http://www.w3.org/2000/svg" width="18" height="18" viewBox="0 0 18 18"><path fill="url(#aurhtbkmn)" d="M0 0h18v18H0z"/><path fill-rule="evenodd" d="M8.9 12c.13 0 .25 0 .37-.02l1.75-5.07A2.84 2.84 0 0 0 8.9 6c-.65 0-1.22.2-1.69.53.12.22.18.47.18.72 0 .66-.3 1.31-.94 1.67.66.31 1.1.95 1.1 1.68 0 .33-.1.65-.26.92.45.3 1 .48 1.6.48zm-1.91-.09a3.39 3.39 0 0 0 2.1.58v.01h1.2l.13-.36c.66-.33 1.2-.87 1.54-1.54h-.58c-.19.32-.43.6-.72.82l1.36-4.07.55 1.65h-.3l-.35 1h.98l.84 2.5h1.18l-.87-2.5h1.57L16 9h-2.3l-1.22-3.5h-.98l-.3.9a3.4 3.4 0 0 0-4.28-.26 2.23 2.23 0 0 0-1.6-.64H3v7h2.5c.59 0 1.11-.23 1.49-.59zm-.11-.73c.07-.18.12-.38.12-.58 0-.59-.35-1.16-.98-1.37.06.78.37 1.46.86 1.95zm-1.42-2c.05.96.47 1.81 1.13 2.41-.26.25-.62.41-1.09.41H3.56V9.18h1.9zm.58-.6c.5-.23.75-.68.75-1.25 0-.13-.02-.26-.04-.37-.38.43-.63.99-.7 1.61zm.48-2.1A3.51 3.51 0 0 0 5.47 8.7H3.58V6h1.74c.55 0 .95.17 1.2.47z" fill="#fff"/><defs><linearGradient id="aurhtbkmn" x1="3.35" y1="3.12" x2="21.9" y2="24.43" gradientUnits="userSpaceOnUse"><stop stop-color="#1A1E21"/><stop offset="1" stop-color="#06060A"/></linearGradient></defs></svg>