<!-- by TradingView --><svg xmlns="http://www.w3.org/2000/svg" width="18" height="18" viewBox="0 0 18 18"><path fill="#094C84" d="M0 0h18v18H0z"/><path d="M11 4.78A1 1 0 1 1 9.36 4L9 4a5 5 0 0 0-3.23 8.82l2.35-4.54S8.7 7 7.95 7c-.91 0-1.82.89-2.4 1.44l-.05.06C6.22 7.08 7.31 6 8.64 6c.91 0 1.38.86 1.36 1.52 0 .84-.38 1.62-.7 2.27l-.3.63c.64-.47 1.28-1.04 1.8-1.5l.61-.54c.33-.27.45-.37.68-.37.22 0 .38.17.38.37 0 .55-.67 1.95-1.23 3.13-.25.52-.48 1-.61 1.34-.14.32-.1.69-.05.9a5 5 0 0 0 .34-9.37 1 1 0 0 1 .08.4zm-.53 9c-.18-.17-.47-.5-.47-.87 0-.41.36-1.22.65-1.87.2-.43.35-.78.35-.9 0-.05 0-.14-.06-.14s-.13.05-.19.1l-.03.01c-.25.17-.86.66-1.46 1.14-.55.44-1.08.87-1.3 1.03 0 0-.88.75-1.48 1.04a4.98 4.98 0 0 0 4 .46z" fill="#fff"/></svg>