<!-- by TradingView --><svg xmlns="http://www.w3.org/2000/svg" width="56" height="56" viewBox="0 0 56 56"><path fill="#01B3B3" d="M0 0h56v56H0z"/><path d="M9.82 27.22v-.04c1.28-.35 1.87-1.15 1.87-2.02 0-.91-.62-1.53-1.64-1.84A9.9 9.9 0 0 0 7.28 23c-1 0-1.86.07-2.45.19-.65.13-.83.42-.83 1.02v6.6c0 .58.18.9.83 1.02a14.93 14.93 0 0 0 5.3-.17c1.13-.35 1.87-1.14 1.87-2.14 0-.99-.65-1.9-2.18-2.3ZM45.75 23c-.74 0-1.25.02-1.83.11-.68.1-.92.43-.92 1.04v6.7c0 .61.24.95.92 1.04.58.09 1.09.11 1.83.11 3.3 0 6.25-1.38 6.25-4.5 0-3.13-2.95-4.5-6.25-4.5ZM13 27.53c0-2.7 2-4.53 4.74-4.53 2.72 0 4.74 1.8 4.73 4.47 0 2.7-2 4.53-4.74 4.53-2.71 0-4.73-1.8-4.73-4.47Zm29-3.73c0-.33-.12-.48-.47-.56-.6-.15-1.87-.24-3.62-.24-1 0-2.29.08-3.01.18-.67.1-.9.43-.9 1.02v6.6c0 .6.23.92.9 1.02.72.1 2.01.18 3.01.18 1.75 0 3.02-.1 3.62-.24.36-.08.47-.23.47-.56 0-.83-.68-1.92-2.57-2.34v-.06c1.34-.14 1.86-.68 1.86-1.3s-.52-1.16-1.86-1.31v-.06c1.89-.41 2.57-1.5 2.57-2.33Zm-9.32.75-1.77 2.8 1.94 3.14c.16.26.16.5-.03.71-.44.48-1.22.8-2.15.8a3.24 3.24 0 0 1-2.57-1.14h-.03A3.2 3.2 0 0 1 25.54 32c-.94 0-1.72-.32-2.16-.8-.19-.2-.19-.45-.03-.71l1.94-3.14-1.78-2.8c-.19-.3-.16-.53.06-.77.46-.46 1.3-.78 2.13-.78.98 0 1.8.35 2.39 1h.03c.58-.65 1.39-1 2.38-1 .82 0 1.68.32 2.12.78.23.24.25.47.06.77Z" fill="#fff"/></svg>