<!-- by TradingView --><svg xmlns="http://www.w3.org/2000/svg" width="56" height="56" viewBox="0 0 56 56"><path fill="#F0F3FA" d="M0 0h56v56H0z"/><path d="M8 27v-7h2.39c.83 0 1.46.16 1.88.48.43.32.65.8.65 1.41a1.5 1.5 0 0 1-.97 1.46c.34.1.62.27.82.54.2.27.3.7.3 1.08 0 .67-.2 1.17-.63 1.51a2.8 2.8 0 0 1-1.79.52H8zm1.4-3.1v1.96h1.21c.33 0 .59-.08.77-.24a.83.83 0 0 0 .29-.66c0-.63-.33-1.05-.97-1.06H9.4zm0-1h1.05c.7-.02 1.06-.3 1.06-.87 0-.3-.09-.53-.27-.67-.18-.14-.46-.2-.85-.2h-.98v1.73zm9.83-2.9v4.55c0 .75-.23 1.35-.7 1.79-.46.44-1.1.66-1.91.66-.8 0-1.43-.22-1.9-.64A2.3 2.3 0 0 1 14 24.6V20h1.41v4.56c0 .45.1.78.32.99.21.2.51.3.89.3.79 0 1.2-.42 1.2-1.26V20h1.41zm5.55 5.86h-2.92V20h-1.41v7h4.33v-1.14zm2.22 0h3V27h-4.4v-7H27v5.86zM32.4 27v-2.53h1.23c.8 0 1.44-.2 1.9-.58a2 2 0 0 0 .69-1.6c0-.45-.1-.85-.32-1.2-.2-.35-.5-.62-.9-.8a3.03 3.03 0 0 0-1.35-.29H31v7h1.4zm1.25-3.68H32.4v-2.17h1.29c.34 0 .61.12.81.32.2.21.3.49.3.82 0 .33-.1.59-.3.76-.2.18-.47.27-.85.27zM41 24h-2.58v1.86h3.17V27H37v-7h4.58v1.15h-3.16v1.74H41V24zm5.6 3H48v-7h-1.4v4.55L43.86 20h-1.41v7h1.4v-4.64L46.6 27zM12.4 37v-2.47h1.24c.8 0 1.44-.2 1.9-.59.46-.4.69-.94.69-1.62 0-.45-.1-.86-.32-1.2-.2-.37-.5-.64-.9-.83a3 3 0 0 0-1.35-.29H11v7h1.4zm1.26-3.63h-1.25v-2.2h1.29c.34 0 .61.11.81.33.2.2.3.48.3.83 0 .33-.1.59-.3.77-.2.18-.48.27-.85.27zm4.09 2.19h2.46L20.7 37h1.5l-2.56-7h-1.3l-2.54 7h1.5l.46-1.44zm2.09-1.17h-1.71l.85-2.62.86 2.62zm5.5.05h-1.11V37h-1.4v-7h2.53c.8 0 1.42.18 1.86.55.44.37.66.9.66 1.57 0 .47-.1.87-.3 1.2-.2.31-.51.56-.92.75L28.22 37h-1.6l-1.27-2.56zm-1.11-1.17h1.13c.35 0 .63-.1.82-.27a1 1 0 0 0 .3-.77c0-.33-.1-.59-.28-.78-.19-.19-.47-.28-.84-.28h-1.13v2.1zm9.16 2.57h-2.98V30H29v7h4.38v-1.16zm4.71-.28h-2.46L35.17 37h-1.5l2.54-7h1.3l2.56 7h-1.5l-.47-1.44zm-2.08-1.17h1.7l-.86-2.62-.84 2.62zM43.7 30l-1.42 3.15L40.88 30h-1.54l2.24 4.46V37H43v-2.54L45.25 30H43.7z"/></svg>