<!-- by TradingView --><svg xmlns="http://www.w3.org/2000/svg" width="56" height="56" viewBox="0 0 56 56"><path fill="#26CCF0" d="M0 0h56v56H0z"/><path d="M16.68 24a12 12 0 0 1 22.64 0h1.05a13 13 0 0 0-24.74 0h1.05Zm20.28 13.42c-.7.35-1.49.56-2.32.58a11.94 11.94 0 0 1-13.28 0 5.47 5.47 0 0 1-2.32-.58 12.96 12.96 0 0 0 17.92 0ZM28 19.5a8.5 8.5 0 0 0-7.5 4.5h-1.67a10 10 0 0 1 18.34 0H35.5a8.5 8.5 0 0 0-7.5-4.5ZM22 29H10c0 1.1.9 2 2 2h12a2 2 0 0 0-2-2Zm24 0H34a2 2 0 0 0-2 2h12a2 2 0 0 0 2-2ZM5 26h16.5a5.5 5.5 0 1 1-5.48 6h2.02a3.5 3.5 0 1 0 5.32-3.46A2 2 0 0 0 22 28H7a2 2 0 0 1-2-2Zm46 0H34.5a5.5 5.5 0 1 0 5.48 6h-2.02a3.5 3.5 0 1 1-5.32-3.46A2 2 0 0 1 34 28h15a2 2 0 0 0 2-2Z" fill="#fff"/></svg>