<!-- by TradingView --><svg xmlns="http://www.w3.org/2000/svg" width="18" height="18" viewBox="0 0 18 18"><path fill="#F0F3FA" d="M0 0h18v18H0z"/><path d="M9.7 6v6h2.28c.65 0 1.14-.16 1.5-.46.34-.3.52-.73.52-1.3 0-.35-.08-.63-.25-.86a1.2 1.2 0 0 0-.7-.47c.26-.1.46-.27.6-.5.15-.22.22-.48.22-.77 0-.54-.18-.95-.54-1.22A2.52 2.52 0 0 0 11.76 6H9.7zM11 10.7V9.38h1.01c.54.01.76.33.76.7 0 .37-.27.63-.83.63H11zm.8-2.2H11V7.28h.76c.65 0 .89.24.89.57 0 .49-.25.65-.85.66zM4 6v6h2.28c.65 0 1.14-.16 1.5-.45.34-.3.52-.74.52-1.31 0-.34-.08-.63-.25-.86a1.2 1.2 0 0 0-.7-.47c.26-.1.46-.26.6-.49.15-.22.22-.48.22-.78 0-.53-.18-.94-.54-1.22A2.52 2.52 0 0 0 6.06 6H4zm1.3 4.71V9.4h1.01c.54 0 .76.33.76.7 0 .36-.27.62-.83.62H5.3zm.8-2.2h-.8V7.3h.76c.65 0 .89.24.89.57 0 .48-.25.64-.85.65z"/></svg>