<!-- by TradingView --><svg xmlns="http://www.w3.org/2000/svg" width="18" height="18"><path fill="#F0F3FA" d="M0 0h18v18H0z"/><path d="M7 9.27V12h1.33V9.27c-.1-.7-.37-1.05-.67-1.27-.49.44-.64 1-.66 1.27zm4 0V12H9.67V9.27c.1-.7.37-1.05.67-1.27.49.44.64 1 .66 1.27zM9.4 11h-.8v1.3h.8V11z" fill="#43A2DA"/><path d="M4 13.54V14h10v-.46L9.4 12.3h-.82L4 13.54z" fill="#CBAD8B"/><path fill-rule="evenodd" d="M7.7 4H5.06l1.77 1h.65v.8H6v-.73L4.1 4H4v4.18l1.95-.79h1.52V8h.4v-.6h2.26V8h.4v-.6h1.5l1.97.8V4h-.13L12 5.05v.75h-1.47V5h.62l1.77-1h-2.63l-.17 1h.01v.8H7.87V5L7.7 4zm2.43 2.2H7.87V7h2.26v-.8zm.4.8H12v-.8h-1.47V7zM7.47 7H6v-.8h1.47V7zm.87-2l-.16-1H9.8l-.16 1h-1.3zM12 7.9v1.22l.33.43V12H14V8.7l-2-.8zm-8 .78l2-.8v1.24l-.33.43V12H4V8.68z" fill="#075698"/></svg>