<!-- by TradingView --><svg xmlns="http://www.w3.org/2000/svg" width="56" height="56" viewBox="0 0 56 56"><path fill="#F0F3FA" d="M0 0h56v56H0z"/><path d="M19 27.95c-.38.6-1.12 1.05-1.73 1.05-.67 0-.97-.62-.97-1.27V25h-1v3.32c-.02 1 .76 1.68 1.69 1.68.74 0 1.45-.33 2.01-.86V30h1v-5h-1v2.95Z" fill="#0F2C52"/><path fill-rule="evenodd" d="M24.22 25.05a3.73 3.73 0 0 0-.64-.05H21v5h2.59c.21 0 .43-.02.64-.05.2-.04.4-.1.58-.18a1.84 1.84 0 0 0 .86-.77c.25-.46.34-.99.33-1.5 0-.72-.16-1.5-.7-1.97-.3-.26-.69-.42-1.08-.48ZM23.56 29c.22 0 .44-.03.66-.09.57-.17.79-.89.78-1.41.01-.56-.19-1.24-.78-1.41a2.2 2.2 0 0 0-.66-.1H22v3h1.56Z" fill="#0F2C52"/><path d="M45.33 30h1v-5h-1v5ZM49.5 29c-.84 0-1.5-.5-1.5-1.5s.67-1.5 1.5-1.5c.79 0 1.5.42 1.5 1.5s-.7 1.5-1.5 1.5Zm2.33-2.58c-.22-.6-.7-1.06-1.29-1.26a3.16 3.16 0 0 0-1.03-.16c-.35 0-.7.05-1.04.16a2.1 2.1 0 0 0-1.3 1.26c-.12.35-.18.71-.17 1.08 0 .37.05.74.18 1.08.35.98 1.34 1.43 2.33 1.42.35 0 .7-.05 1.03-.16.3-.1.57-.26.8-.48.49-.49.66-1.18.66-1.86 0-.37-.05-.73-.17-1.08M35.8 24l-1.26 1.7L33.3 24h2.5Z" fill="#0084B7"/><path d="M34.5 28.32 35.71 30H37l-1.87-2.56L36.9 25h-1.27l-1.13 1.56L33.37 25H32.1l1.77 2.44L32 30h1.27l1.22-1.68ZM6.86 29H5v-1h1.86c.4 0 .84.03.84.5s-.46.5-.84.5ZM5 26h1.86c.3 0 .55.2.54.5 0 .3-.26.5-.54.5H5v-1Zm2.57 1.42a.98.98 0 0 0 .63-.38c.14-.23.22-.5.2-.77 0-.39-.12-.82-.47-1.04a1.4 1.4 0 0 0-.63-.21 3.3 3.3 0 0 0-.36-.02H4v5h2.99c.15 0 .3 0 .44-.02.38-.04.8-.16 1.03-.48.08-.12.14-.24.18-.37.04-.17.06-.34.06-.5.01-.7-.43-1.16-1.13-1.2ZM11.49 28.99c.68 0 1.5-.24 2.01-.65v-.63c-.62.03-1.4.07-2.01.2-.39.09-.98.23-.99.65 0 .38.67.43.99.43Zm.58-3.99c.61 0 1.24.1 1.75.41.45.3.7.8.68 1.3V30h-1v-.57a4.5 4.5 0 0 1-2.25.57c-.93 0-1.75-.5-1.75-1.4 0-1.08 1.13-1.53 2.14-1.66.49-.08 1.2-.14 1.86-.18v-.1c0-.58-.94-.67-1.43-.66-.7 0-1.43.16-2.07.42v-1.14a8.85 8.85 0 0 1 2.07-.28ZM28.49 28.99c.68 0 1.5-.24 2.01-.65v-.63c-.62.03-1.4.07-2.01.2-.39.09-.98.23-.99.65 0 .38.67.43.99.43Zm.58-3.99c.61 0 1.24.1 1.75.41.45.3.7.8.68 1.3V30h-1v-.57a4.5 4.5 0 0 1-2.25.57c-.93 0-1.75-.5-1.75-1.4 0-1.08 1.13-1.53 2.14-1.66.49-.08 1.2-.14 1.86-.18v-.1c0-.58-.94-.67-1.43-.66-.7 0-1.43.16-2.07.42v-1.14a8.85 8.85 0 0 1 2.07-.28Z" fill="#0F2C52"/><path d="M42.86 29H41v-1h1.86c.4 0 .84.03.84.5s-.46.5-.84.5ZM41 26h1.86c.3 0 .55.2.54.5 0 .3-.26.5-.54.5H41v-1Zm2.57 1.42a.98.98 0 0 0 .63-.38c.14-.23.22-.5.2-.77 0-.39-.12-.82-.47-1.04a1.4 1.4 0 0 0-.63-.21 3.3 3.3 0 0 0-.36-.02H40v5h2.99c.15 0 .3 0 .44-.02.38-.04.8-.16 1.03-.48.08-.12.14-.24.18-.37.04-.17.06-.34.06-.5.01-.7-.43-1.16-1.13-1.2Z" fill="#0084B7"/></svg>