<!-- by TradingView --><svg xmlns="http://www.w3.org/2000/svg" width="18" height="18" viewBox="0 0 18 18"><path fill="#F0F3FA" d="M0 0h18v18H0z"/><path d="M11.42 6.57a2.64 2.64 0 0 0-1.85-.74A2.53 2.53 0 0 0 7 8.29c0 .7.3 1.32.79 1.77L6.8 11a3.7 3.7 0 0 1-1.2-2.71c0-2.1 1.78-3.79 3.97-3.79 1.11 0 2.11.43 2.83 1.12l-.98.95ZM13.5 7a1 1 0 1 0 0-2 1 1 0 0 0 0 2Z" fill="#DC820D"/><path d="M6.58 11.43c.47.46 1.12.74 1.85.74 1.42 0 2.58-1.1 2.58-2.46 0-.7-.3-1.32-.79-1.77L11.2 7a3.7 3.7 0 0 1 1.2 2.71c0 2.1-1.78 3.79-3.97 3.79-1.11 0-2.11-.43-2.83-1.12l.98-.95ZM4.5 13a1 1 0 1 0 0-2 1 1 0 0 0 0 2Z" fill="#F2151B"/></svg>