<!-- by TradingView --><svg width="56" height="56" viewBox="0 0 56 56" xmlns="http://www.w3.org/2000/svg"><path fill="#F0F3FA" d="M0 0h56v56H0z"/><path d="M5 27.52v-.02C5 25.59 6.42 24 8.35 24c1.2 0 1.92.44 2.61 1.08l-.35.37c-.59-.57-1.26-1-2.27-1-1.6 0-2.82 1.33-2.82 3.03v.02c0 1.71 1.23 3.05 2.83 3.05.97 0 1.63-.38 2.31-1.06l.34.33c-.7.7-1.48 1.18-2.66 1.18C6.42 31 5 29.46 5 27.52ZM14 24h.56v7H14v-7ZM18 24h.5l4.98 6.09V24H24v7h-.4l-5.08-6.22V31H18v-7ZM26 27.52v-.02c0-1.91 1.42-3.5 3.35-3.5 1.2 0 1.92.44 2.61 1.08l-.35.37c-.59-.57-1.26-1-2.27-1-1.6 0-2.82 1.33-2.82 3.03v.02c0 1.71 1.23 3.05 2.83 3.05.97 0 1.63-.38 2.31-1.06l.34.33c-.7.7-1.48 1.18-2.66 1.18-1.92 0-3.34-1.54-3.34-3.48ZM44 24h3.1c1.15 0 2.45.69 2.45 1.99v.02c0 1.17-.74 1.74-1.98 1.9L50 31h-.7l-2.34-3h-2.41v3H44v-7Zm3.03 3.53c1.23 0 1.97-.49 1.97-1.5v-.02c0-.94-.6-1.53-1.94-1.53h-2.51v3.05h2.48Z" fill="#333999"/><path d="M40.68 28c-2.08 1.36-3.05-2.77-.06-1.14.1.25.03.5.1.69l.2.07c.13-.1.14-.1.11-.32l.26.18.18-.15-.02-.29c-.07-.08-.15-.06-.19-.22-.06-.27.03-.13-.16-.24.15-.79-1.2-2.36-1.68-2.26l-.08.16c-.18-.06-.28-.14-.43-.22-.14-.07-.34-.12-.49-.17-.08-.03-.52-.03-.64-.04a5.3 5.3 0 0 1-.6-.05c-.62.58-1.12-.05-2.43 1.5-.13.15-.17.16-.3.27 0 .25-.1.68-.21.87-.1.17-.4.47-.43.66-.11.5.2 1.36.42 1.74.28.5.64.86 1.07 1.15.54.37 2.94.94 3.65.78.48-.1 2.29-.99 2.53-1.38.06-.09.16-.26.2-.36.04-.17-.3-.59-.39-.71-.07-.1-.41-.6-.47-.63-.02.04.02.07-.14.1Z" fill="#E50019"/><path d="m40.68 28 .08-.23c.04-.16-.04-.11-.05-.22-.06-.2 0-.44-.09-.69-.07-.2-.14-.38-.24-.56-.11-.2-.23-.28-.31-.49-.09-.2-.21-.37-.34-.48a2.34 2.34 0 0 0-1.3-.37c-.73 0-.7-.2-1.46 0-.07-.1.05-.14-.25-.11-.11 0-.1.05-.29.08-.19.02-.27.22-.37.35-.16.21-.5.6-.46.95l.13.06c.02.19-.13.28-.23.37-.22.23-.78.76-.8 1.05h.21c0 .13.07.1.06.2v.23l-.22-.03.1.2c-.02.1-.07.02 0 .21.06.21.14.53.37.48l.05-.11c-.02-.1-.13.03-.04-.1l.6.59c-.03.02-.1.02-.16.03-.03.1.08.4.12.44.1.05.1 0 .18.03.03 0 .1.07.14.09a2.42 2.42 0 0 0 1.13.33c.8.03 1.62-.29 2.22-.68.14-.1.07-.1.3-.19.18-.07.14-.12.23-.25.34-.43.43-.75.7-1.19Z" fill="#FDBA18"/><path d="m36.37 26.71-.09-.14-.18.08-.18-.14a.4.4 0 0 0-.09.18c0 .08.02.1.03.15 0 .03-.13.24-.17.32-.15.35-.13.52-.02.86.1.28.25.46.42.65l.46.61c.35.19.1.05.39.14.15.04.27.1.41.14.35.1.63 0 .95-.07.39-.08.46-.23.7-.4.24-.17.53-.2.67-.43a1.86 1.86 0 0 0-.02-2.04 3.64 3.64 0 0 0-1.55-1.13c-.38-.08-.65-.04-1.01-.03-.36 0-.84-.07-.59.37.08.15-.02.01-.05.14-.04.13 0 .64-.08.74Z" fill="#FB8D02"/><path d="M36.87 27.46c0-.08.03-.13.07-.18.08-.1.17.04.1-.2.15.04.33.18.34-.01.2-.04.05-.1.37-.16.1-.02.14-.06.23 0 .04.04.09.14.13.13.05-.03.08.03.19-.15.2.18.1.08.03-.02-.04-.06-.01-.04-.03-.07-.1-.14.01-.14-.06-.22-.1-.1-.2-.41-1.15-.25-.1.02-.14.12-.29.16-.3.1-.1.14-.17.2s-.05-.02-.2.04c-.14.06-.06.03-.16.14.01 0 .07.61.4.54.08-.02.02-.03.08-.05l.04.12.08-.02Z" fill="#EE5612"/><path d="M36.92 27.93c.02.04.08.1.13.12.64.16.27-.03.19-.18v-.11c.04.1.12.05.2.1.18.1.36.15.4-.12.02-.1.03-.06.1-.13.04-.02.04-.05.02-.02.05 0 .08.13.13.23-.14.2-.34 1.14.25.11.07-.14.14-.38.1-.53-.04-.12-.2-.24-.24-.27-.03-.03-.02-.05-.08-.09-.05.01-.09-.09-.14-.13-.08-.06-.13-.02-.23 0-.32.05-.16.12-.36.16-.01.2-.19.05-.34.02.06.23-.03.08-.1.19-.06.06-.06.58-.03.65Z" fill="#E50019"/></svg>