<!-- by TradingView --><svg width="18" height="18" viewBox="0 0 18 18" xmlns="http://www.w3.org/2000/svg"><path fill="#F0F3FA" d="M0 0h18v18H0z"/><path d="M12.74 9.7c-2.63 1.96-3.86-3.94-.07-1.61.1.35.03.7.1.98l.26.1c.18-.13.18-.15.15-.45l.33.26.23-.22-.02-.41c-.1-.12-.2-.09-.24-.32-.08-.39.03-.18-.21-.34.2-1.13-1.52-3.37-2.14-3.23l-.09.22c-.23-.08-.36-.2-.55-.3-.17-.1-.42-.18-.62-.26-.1-.03-.66-.03-.8-.04-.3-.02-.49-.03-.76-.08-.8.82-1.43-.08-3.09 2.15-.16.2-.21.21-.37.38 0 .35-.13.97-.27 1.24-.14.25-.5.67-.55.95a5 5 0 0 0 1.89 4.13c.68.52 3.72 1.34 4.62 1.11.62-.15 2.9-1.42 3.21-1.98.07-.12.2-.37.24-.51.06-.24-.36-.84-.48-1.01-.1-.15-.52-.86-.6-.9-.03.05.03.1-.17.15Z" fill="#E50019"/><path d="m12.89 9.62.1-.33c.04-.24-.05-.16-.07-.32-.08-.29 0-.65-.11-1.01-.1-.3-.2-.56-.33-.82-.14-.29-.3-.41-.4-.72-.11-.29-.28-.54-.45-.7a2.87 2.87 0 0 0-1.7-.54c-.97-.01-.94-.3-1.93-.01-.1-.14.06-.2-.33-.16-.15.02-.14.08-.38.12-.25.04-.36.32-.49.52-.2.3-.65.89-.6 1.39l.16.08c.03.28-.17.4-.3.55C5.77 8.01 5.04 8.78 5 9.2l.29-.01c0 .2.08.15.07.32-.02.2 0 .15 0 .32l-.29-.04.13.3c-.03.14-.08.02 0 .3.08.31.19.77.49.7l.07-.16c-.03-.15-.17.04-.06-.14l.8.86c-.04.04-.14.04-.21.04-.05.15.1.58.15.65.14.07.14-.01.24.04.04.01.14.1.18.13a3.05 3.05 0 0 0 1.5.49 4.81 4.81 0 0 0 2.92-1c.19-.14.1-.15.38-.27.25-.12.19-.18.31-.37.45-.64.57-1.1.92-1.74Z" fill="#FDBA18"/><path d="m7.07 7.83-.1-.2-.26.12-.24-.21a.6.6 0 0 0-.13.25c0 .13.03.14.05.22 0 .05-.2.35-.24.47-.21.5-.18.75-.03 1.23.13.42.35.67.57.94l.64.89c.48.27.13.07.53.2l.57.2c.48.14.86 0 1.29-.1.53-.12.63-.34.96-.58.34-.25.72-.28.92-.63a2.8 2.8 0 0 0-.02-2.93 5 5 0 0 0-2.13-1.64c-.52-.1-.88-.04-1.39-.04-.5.01-1.14-.09-.8.54.11.22-.02.01-.06.2-.07.19-.02.92-.13 1.07Z" fill="#FB8D02"/><path d="M7.84 8.96c0-.12.04-.21.1-.3.11-.17.24.08.14-.31.21.05.45.29.48-.04.27-.06.05-.17.5-.27.14-.02.2-.09.32.01.07.07.13.23.2.22.06-.05.1.05.25-.26.29.3.14.13.04-.04-.05-.09 0-.06-.03-.1-.13-.23.02-.24-.1-.37-.13-.16-.27-.7-1.59-.42-.13.03-.2.2-.4.26-.43.16-.15.24-.25.35-.1.08-.07-.05-.28.06-.19.1-.08.05-.22.22.02.02.1 1.04.56.91.11-.03.03-.04.11-.07l.06.19.11-.04Z" fill="#EE5612"/><path d="M8.03 9.38c.02.05.1.14.17.15.81.22.34-.04.24-.23v-.15c.05.14.16.08.26.13.23.12.47.2.52-.15.02-.12.03-.08.13-.17.04-.03.04-.07.02-.03.06.01.1.18.17.3-.18.27-.44 1.5.31.15.1-.18.19-.5.13-.7-.04-.16-.26-.3-.3-.36-.04-.03-.02-.06-.1-.1-.07 0-.12-.12-.18-.17-.11-.09-.17-.03-.3-.01-.41.07-.21.16-.47.2-.01.26-.24.08-.44.03.09.3-.03.12-.13.25-.07.09-.07.76-.03.86Z" fill="#E50019"/></svg>