<!-- by TradingView --><svg xmlns="http://www.w3.org/2000/svg" width="56" height="56" viewBox="0 0 56 56"><path fill="#F0F3FA" d="M0 0h56v56H0z"/><path fill-rule="evenodd" d="M8.48 32c.93 0 1.8-.29 2.52-.78v-2.06a3 3 0 1 1 0-3.32v-2.06a4.49 4.49 0 0 0-7 3.72C4 29.99 6 32 8.48 32zM17 28.5a2 2 0 1 1-4 0 2 2 0 0 1 4 0zm1.5 0a3.5 3.5 0 1 1-7 0 3.5 3.5 0 0 1 7 0z" fill="#013B95"/><path d="M41 23v9h1.5v-3.89L45.26 32H47l-2.84-4.07A2.48 2.48 0 0 0 46 25.5c0-1.38-1.07-2.5-2.39-2.5H41zm2.27 3.5h-.77v-2h.77c.68 0 1.23.45 1.23 1s-.55 1-1.23 1zM46.5 23H52v1.5h-2V32h-1.5v-7.5h-2V23z" fill="#072F87"/><path d="M19 23v9h1.5v-5.5L26 32v-9h-1.5v5.5L19 23zm21 1.5h-3.5v2H40V28h-3.5v2.5H40V32h-5v-9h5v1.5zM31.48 32c.93 0 1.8-.29 2.52-.78v-2.06a3 3 0 1 1 0-3.32v-2.06a4.49 4.49 0 0 0-7 3.72c0 2.49 2 4.5 4.48 4.5z" fill="#03783E"/></svg>