<!-- by TradingView --><svg xmlns="http://www.w3.org/2000/svg" width="56" height="56" viewBox="0 0 56 56"><path fill="#F0F3FA" d="M0 0h56v56H0z"/><path d="M34.43 32c-1.06 0-1.85-.3-2.37-.93a3.92 3.92 0 0 1-.77-2.57c0-.7.13-1.31.4-1.84s.65-.94 1.14-1.23a3.33 3.33 0 0 1 1.72-.43c1.1 0 1.9.3 2.41.88.52.58.78 1.41.78 2.5 0 .71-.13 1.34-.4 1.9a3.07 3.07 0 0 1-2.9 1.72Zm.09-6.4c-.46 0-.81.25-1.07.73a4.9 4.9 0 0 0-.37 2.17c0 .97.12 1.7.37 2.18.25.47.6.7 1.06.7.45 0 .8-.25 1.05-.77a5.2 5.2 0 0 0 .38-2.22 4.6 4.6 0 0 0-.36-2.12c-.24-.44-.6-.66-1.06-.66ZM38.27 31.38l.73-.09v-5.52l-.7-.13V25h3.14c.68 0 1.22.07 1.62.2.4.13.69.33.87.6.18.27.27.62.27 1.07 0 .42-.11.81-.34 1.18-.23.37-.56.56-1.01.7.3.1.54.36.73.66.2.28.42.64.63 1.09l.3.59c.09.12.16.2.25.21l.24.08V32h-1.78c-.1 0-.2-.1-.3-.3-.1-.2-.23-.5-.38-.93-.2-.52-.37-.9-.52-1.19-.14-.28-.3-.52-.47-.58h-.86v2.3l.85.08V32h-3.27v-.62Zm3.16-2.99a.9.9 0 0 0 .77-.37c.19-.26.28-.58.28-1.09 0-.45-.1-.77-.28-.98-.18-.21-.48-.32-.9-.32-.23 0-.43.02-.6.05v2.69l.4.02h.33ZM46 25.78l-.66-.13V25h3.17c1.16 0 2.03.29 2.61.85.59.56.88 1.36.88 2.41 0 .72-.14 1.36-.43 1.93-.29.57-.7 1-1.23 1.33a3.6 3.6 0 0 1-1.89.48h-3.14v-.61l.69-.1v-5.51Zm1.65 5.46c.22.07.48.1.76.09.58-.01 1.02-.24 1.33-.7.32-.47.48-1.18.48-2.14 0-.89-.16-1.58-.47-2.08-.3-.5-.79-.76-1.45-.76a2.73 2.73 0 0 0-.65.06v5.53ZM28.33 32c-1.1 0-1.94-.3-2.5-.92a3.59 3.59 0 0 1-.87-2.53c0-.73.16-1.35.46-1.89.3-.54.73-.95 1.26-1.23a3.76 3.76 0 0 1 1.81-.43 22.71 22.71 0 0 1 2.23.23l-.11 2.05h-1.02l-.33-1.4c-.14-.15-.43-.23-.87-.23-.5 0-.88.24-1.17.71a4.06 4.06 0 0 0-.42 2.06c0 .88.14 1.59.41 2.12.28.53.69.8 1.22.8.26 0 .45-.03.59-.07a.96.96 0 0 0 .35-.22l.43-.98.93.08-.17 1.5a3.2 3.2 0 0 0-.68.14 5.23 5.23 0 0 1-1.55.21ZM18.12 25.78l-.74-.12V25h2.39l2.63 4.01.54 1.13v-4.36l-.82-.12V25h2.45v.66l-.73.12V32h-1.4l-2.8-4.3-.62-1.25v4.82l1 .1V32h-2.64v-.62l.74-.1v-5.5ZM13.47 32c-1.07 0-1.86-.3-2.37-.93a3.92 3.92 0 0 1-.78-2.57c0-.7.14-1.31.4-1.84.28-.53.66-.94 1.15-1.23a3.33 3.33 0 0 1 1.72-.43c1.09 0 1.9.3 2.4.88.53.58.79 1.41.79 2.5 0 .71-.14 1.34-.41 1.9a3.07 3.07 0 0 1-2.9 1.72Zm.09-6.4c-.46 0-.82.25-1.07.73a4.9 4.9 0 0 0-.37 2.17c0 .97.12 1.7.37 2.18.25.47.6.7 1.06.7.45 0 .8-.25 1.05-.77a5.2 5.2 0 0 0 .38-2.22 4.6 4.6 0 0 0-.36-2.12c-.25-.44-.6-.66-1.06-.66ZM7.37 32c-1.1 0-1.94-.3-2.51-.92A3.59 3.59 0 0 1 4 28.55c0-.73.15-1.35.46-1.89.3-.54.72-.95 1.26-1.23a3.76 3.76 0 0 1 1.8-.43 22.67 22.67 0 0 1 2.23.23l-.1 2.05H8.63l-.33-1.4c-.14-.15-.43-.23-.88-.23-.49 0-.87.24-1.16.7a4.06 4.06 0 0 0-.42 2.07c0 .88.14 1.59.41 2.12.28.53.68.8 1.21.8.26 0 .46-.03.6-.08a.96.96 0 0 0 .35-.2l.43-.99.93.08-.17 1.5c-.19.01-.41.06-.68.14a5.21 5.21 0 0 1-1.55.21Z"/></svg>