<!-- by TradingView --><svg xmlns="http://www.w3.org/2000/svg" width="18" height="18" viewBox="0 0 18 18"><path fill="#F0F3FA" d="M0 0h18v18H0z"/><path d="M5.96 6H3v1h2.9c.21 0 .41.23.49.33L5.06 8.5H6.5l.89-.83C7.47 6.32 6.47 6 5.96 6zm-2.82 4.19l.78-.69h1.51l-1.22 1.14-.03.09c-.04.12-.09.27.14.27H7.4v1H4.15c-.55-.2-1.51-.85-1.01-1.81zM8 6v3.8c0 1.37.82 2.2 1.82 2.2h.44c.52 0 .96-.22 1.27-.6.34.38.8.6 1.3.6h.42c.97 0 1.75-1.1 1.75-2.47V6h-1v3.86c0 .75-.3 1.14-.83 1.14H13c-.5 0-.94-.34-1-1h-1v-.16c0 .76-.26 1.16-.82 1.16H10c-.55 0-1-.4-1-1.16V6H8zm4 0v3h-1v.83V6h1z" fill="#BD172C"/></svg>