<!-- by TradingView --><svg xmlns="http://www.w3.org/2000/svg" width="18" height="18"><path fill="url(#ajl2vssvv)" d="M0 0h18v18H0z"/><path fill-rule="evenodd" d="M9 14a5 5 0 004.98-5.42c-.26-.58-.76-.37-.94-.04v.01c-.6 1.12-2.02 3.16-3.35 2.7-.14-.07-.36-.41-.05-1.16.3-.75 1.69-2.7 2.35-3.58.08-.15.18-.5-.14-.68-.4-.23-.65-.1-.79.1l-.25.36c-.48.72-1.56 2.32-2.22 3.21-.6.82-2.1 2.3-2.62 1.76-.6-.63.98-2.6 2-3.85l1.8-2.4h.01V5c.35-.55.17-.89-.22-.97A5 5 0 109 14zm-.35-9.05a4.06 4.06 0 00-3.58 5.1c.34-1.04 2.5-3.81 3.57-5.1zm-2.7 6.74a4.05 4.05 0 006.98-1.67c-1.6 1.64-3.11 1.9-3.87 1.45-.6-.36-.47-1.28-.3-1.74-1.12 1.7-2.28 2.02-2.8 1.96z" fill="url(#bjl2vssvv)"/><path fill-rule="evenodd" d="M9 14a5 5 0 004.98-5.42c-.26-.58-.76-.37-.94-.04v.01c-.6 1.12-2.02 3.16-3.35 2.7l-2 2.57A5 5 0 009 14zm-.68-1a4.06 4.06 0 004.61-2.99c-1.6 1.65-2.97 1.77-3.52 1.6l-1.09 1.4z" fill="url(#cjl2vssvv)"/><path fill-rule="evenodd" d="M6.58 12.26v-.95c-.27.09-.47.1-.6-.05-.6-.63.97-2.6 1.99-3.85l1.8-2.4h.01V5c.35-.55.17-.89-.22-.97a5 5 0 00-3.6 8.95l.62-.72zm2.07-7.3a4.06 4.06 0 00-3.58 5.08c.34-1.03 2.5-3.8 3.57-5.08zm-2.7 6.73c.2.21.4.4.63.57v-.65c-.25.08-.47.1-.63.08z" fill="url(#djl2vssvv)"/><defs><linearGradient id="ajl2vssvv" x1="3.35" y1="3.12" x2="21.9" y2="24.43" gradientUnits="userSpaceOnUse"><stop stop-color="#1A1E21"/><stop offset="1" stop-color="#06060A"/></linearGradient><linearGradient id="bjl2vssvv" x1="11.61" y1="5.68" x2="5.99" y2="13.05" gradientUnits="userSpaceOnUse"><stop stop-color="#FE214D"/><stop offset=".69" stop-color="#735BB0"/><stop offset=".84" stop-color="#5776CE"/></linearGradient><linearGradient id="cjl2vssvv" x1="13.56" y1="8.65" x2="7.02" y2="13.74" gradientUnits="userSpaceOnUse"><stop offset=".1" stop-color="#461A79"/><stop offset=".57" stop-color="#5D2A87"/><stop offset=".95" stop-color="#5776CE" stop-opacity="0"/></linearGradient><linearGradient id="djl2vssvv" x1="8.74" y1="4" x2="5.5" y2="12.59" gradientUnits="userSpaceOnUse"><stop stop-color="#FCA807"/><stop offset=".42" stop-color="#82BF9E"/><stop offset=".74" stop-color="#41B4EA"/><stop offset="1" stop-color="#5776CE"/></linearGradient></defs></svg>