<!-- by TradingView --><svg xmlns="http://www.w3.org/2000/svg" width="56" height="56" viewBox="0 0 56 56"><path fill="#F0F3FA" d="M0 0h56v56H0z"/><path d="M28 47c7.18 0 13-8.5 13-19S35.18 9 28 9s-13 8.5-13 19 5.82 19 13 19Zm-.78-34h.97C32 13 36 16.55 36 18.16c0 .84-1.03.84-1.03.84H29.5a.52.52 0 0 0-.51.51c0 .27.23.49.51.49h6.24c1.06 0 1.25.73 1.25 1.5s-.25 1.5-1.25 1.5h-6.24c-.4 0-.51.28-.51.5 0 .24.12.5.51.5h7.63c.47 0 .86.28.86.73 0 .46-.39.77-.86.77H28.5c-.24 0-.5.27-.5.5 0 .23.26.5.5.5h8.8c.7 0 .7.66.7 1.34 0 .69-.3 1.16-1.01 1.16h-7.4c-.33 0-.59.19-.59.5s.26.5.58.5h5.3c.46 0 2.14.24 2.12 2-.01 1.31-.9 2-2.13 2H32.5c-.3 0-.5.21-.5.5 0 .29.2.5.5.5h4.19c.9 0 1.31.36 1.31 1s-.66 1-1.75 1h-9.19c-.51 0-1.06.5-1.06 1s.55 1 1.06 1h6.34c.3 0 .56.17.6.45.03.22 0 .5 0 .77 0 .3 0 .6-.1.85-.46 1.24-1.62 1.93-3.19 1.93h-4.58c-.97 0-1.72-.38-2.42-.67-1.96-.84-3.7-3.37-4.2-4.2-.06-.11-.1-.19-.14-.23-.19-.3-.37-.76-.37-1.26 0-.2.05-.41.14-.62.4-.9 1.74-1.02 1.74-1.02h8.01c.75 0 1.11-.56 1.11-1 0-.56-.4-1-1.1-1h-8.24c-1.42 0-1.66-.28-1.66-.53S19.36 31 21.46 31h2.98c1.05 0 1.56-.6 1.56-1 0-.42-.11-1-.97-1h-4.37c-2.04 0-2.66 0-2.66-.5 0-.66.44-1.5 1.51-1.5h5.52c.47 0 1-.31.97-1 0-.46-.5-1-1.56-1H19c-.62 0-1-.34-1-.97 0-.65.43-2.03 1.16-2.03h7.2c.35 0 .64-.23.64-.57v-.13c0-.27-.19-.8-1.5-.8h-5.78c-.33 0-.72-.06-.72-.25 0-1.31 2.15-3.25 3.08-3.25h6.81s.11-.22.1-.45c.01-.26-.2-.54-.92-.54h-2.14L22.52 16c-.28 0-.52 0-.52-.2 0-2.58 4.31-2.8 5.22-2.8Z" fill="url(#aqmnzkbnu)"/><defs><linearGradient id="aqmnzkbnu" x1="37.5" y1="13.75" x2="12.63" y2="24.63" gradientUnits="userSpaceOnUse"><stop offset=".34" stop-color="#4CB7ED"/><stop offset=".86" stop-color="#004E8D"/></linearGradient></defs></svg>