<!-- by TradingView --><svg xmlns="http://www.w3.org/2000/svg" width="18" height="18" viewBox="0 0 18 18"><path fill="#F0F3FA" d="M0 0h18v18H0z"/><path d="M8.96 15.5c2.5 0 4.54-2.91 4.54-6.5s-2.03-6.5-4.54-6.5C6.46 2.5 4.5 5.41 4.5 9s1.96 6.5 4.46 6.5ZM9 4c1.44 0 2.4.97 2.8 2.6.12.48.2 1.4.2 1.4H9.6c-.36 0-.6.24-.6.5s.3.5.6.5h2.2c.17 0 .2.2.2.33 0 .3-.34.67-.63.67H10.1c-.27 0-.6.1-.6.5s.35.5.63.5h1.01c.47 0 .86 0 .86.5s-.45.5-.86.5H8.6c-.47 0-.59.35-.59.52 0 .17.1.48.6.48h2.17c.1 0 .23.06.23.16 0 .18-.05.3-.06.31-.16.43-.66.53-1.2.53H8.37a3.1 3.1 0 0 1-1.03-.28C6.68 13.44 6 12.36 6 11.6c0-.35.35-.55.66-.6h1.68c.26 0 .66-.04.66-.5 0-.38-.24-.5-.66-.5H6.7c-.44 0-.7-.16-.7-.5 0-.34.28-.5.66-.5h.64c.16 0 .7 0 .7-.5S7.47 8 7.1 8h-.44C6.2 8 6 7.72 6 7.5c0-.28.23-.5.66-.5H9.1c.6 0 .9-.12.9-.5S9.72 6 9.1 6H6.5C6.82 4.76 7.74 4 9 4Z" fill="url(#aex2gek3n)"/><defs><linearGradient id="aex2gek3n" x1="12.35" y1="4.13" x2="3.73" y2="7.97" gradientUnits="userSpaceOnUse"><stop offset=".15" stop-color="#4CB7ED"/><stop offset=".67" stop-color="#004E8D"/></linearGradient></defs></svg>