<!-- by TradingView --><svg xmlns="http://www.w3.org/2000/svg" width="18" height="18" viewBox="0 0 18 18"><path fill="#F0F3FA" d="M0 0h18v18H0z"/><path fill-rule="evenodd" d="M13.5 4.5h-9v9h9v-9zM4 4v10h10V4H4z"/><path fill-rule="evenodd" d="M5.5 7.36v3.28h1.33c.45 0 .82-.42.82-.93V8.29c0-.51-.37-.93-.82-.93H5.5zm.62.63V10h.56c.2 0 .35-.26.35-.58v-.86c0-.32-.15-.58-.35-.58h-.56zM8 7.36h1.18c.4 0 .74.4.74.91 0 .28-.1.52-.25.7a1 1 0 0 1 .33.76c0 .5-.33.91-.74.91H8V7.36zm.58.55h.47c.16 0 .3.16.3.36 0 .2-.14.37-.3.37h-.47v-.73zm0 1.35h.5c.17 0 .31.18.31.4 0 .2-.14.38-.31.38h-.5v-.78zm1.77.11v-.74c0-.7.48-1.27 1.08-1.27.42 0 .78.28.96.7l-.51.25c-.08-.2-.25-.34-.45-.34-.28 0-.5.27-.5.59v.88c0 .32.22.59.5.59.27 0 .5-.27.5-.59v-.08h-.45v-.57h1.02V9.37c0 .7-.48 1.27-1.07 1.27-.6 0-1.08-.56-1.08-1.27z"/></svg>