<!-- by TradingView --><svg xmlns="http://www.w3.org/2000/svg" width="56" height="56" viewBox="0 0 56 56"><path fill="#F0F3FA" d="M0 0h56v56H0z"/><path fill-rule="evenodd" d="M8.5 23H4v11h4.5a5.5 5.5 0 1 0 0-11zm0 3H7v5h1.5a2.5 2.5 0 0 0 0-5z" fill="#016193"/><path d="M22.18 30c-.47.6-1.23 1-2.08 1a2.55 2.55 0 0 1-2.6-2.5c0-1.38 1.16-2.5 2.6-2.5a2.6 2.6 0 0 1 2.39 1.5l1.94-2.26a5.5 5.5 0 1 0-.22 6.8L22.18 30z" fill="#016193"/><path fill-rule="evenodd" d="M25 23h5a4 4 0 0 1 2.28 7.28L34.73 34h-3.6l-1.97-3H28v3h-3V23zm3 5v-2h2a1 1 0 1 1 0 2h-2z" fill="#016193"/><path d="M49 20h-3v3h-3v3h3v3h3v-3h3v-3h-3v-3z" fill="#3BACE4"/><path d="M42 23.5c-.62-.3-1.8-.5-2.5-.5H35v11h4.5a5.5 5.5 0 0 0 5.3-7h-3.3a2.5 2.5 0 0 1-2 4H38v-5h1.5c.82 0 1.54.4 2 1h.5v-3.5z" fill="#016193"/><path d="M7 31v-.5C19.5 15 38 18.5 44.5 22c-9-4-26-4-36.5 9H7z" fill="#3AABE4"/></svg>