<!-- by TradingView --><svg xmlns="http://www.w3.org/2000/svg" width="56" height="56" viewBox="0 0 56 56"><path fill="#F0F3FA" d="M0 0h56v56H0z"/><path d="M51 25.75l-6-3.25V29l6-3.25z" fill="#FFA360"/><path d="M39.43 25.75L34 29l5.48 3.29L45 29v-6.5l-5.57 3.25z" fill="#3B3487"/><path d="M28.23 19.25l-5.76 3.25 5.76 3.25L34 29V16l-5.77 3.25z" fill="#7E6BF4"/><path d="M28.25 25.75L22.5 22.5l-5.75-3.25L11 16v13l5.75 3.25 5.75 3.25 5.75-3.25L34 29l-5.75-3.25z" fill="#3B3487"/><path d="M22.43 42l5.74-3.25 5.74-3.27 5.66-3.23L34 29l-5.86 3.25-5.67 3.22-5.76-3.22L11 35.5l5.7 3.25L22.43 42z" fill="#2DD49C"/></svg>