<!-- by TradingView --><svg width="18" height="18" viewBox="0 0 18 18" xmlns="http://www.w3.org/2000/svg"><path d="M0 9a9 9 0 1 1 18 0A9 9 0 1 1 0 9Z" fill="#F0F3FA"/><path d="M8.24 10.49c-.19.3-.53.52-.9.51-.63.04-1.1-.54-1.1-1.1V8H7v1.74c-.02.33.18.78.58.75.37-.03.66-.53.66-.9V8H9v3h-.76v-.51ZM2 7h1.46c1.09-.01 2.16.54 2.12 1.88C5.6 10 4.75 11 3.66 11H2V7Zm1 3.67h.35c.92.04 1.24-.93 1.24-1.8.01-.77-.35-1.55-1.15-1.54H3v3.34ZM10 7h.75v2.18L11.87 8h.9l-1.13 1.18 1.2 1.82h-.92l-1.17-1.64V11H10V7ZM15.04 10.63c.27 0 .54-.09.75-.26l.08.05-.14.33c-.27.19-.6.26-.94.25-.86 0-1.52-.6-1.49-1.48-.01-.82.54-1.53 1.44-1.52.8 0 1.26.56 1.26 1.31v.19h-1.93c0 .5.35 1.14.97 1.13Zm-.34-2.36c-.46-.02-.62.67-.63.97h1.16c0-.3-.1-.97-.53-.97Z"/><path d="M7.62 4s.63 1.15.67 1.42c.07.48-.19.88-.67.88-.47 0-.73-.4-.66-.88C7 5.15 7.62 4 7.62 4ZM5.36 6.3s1.3-.07 1.56 0c.46.15.71.55.5.96-.21.42-.69.47-1.09.2-.22-.14-.97-1.17-.97-1.17Zm2.97 0c.26-.07 1.56 0 1.56 0s-.75 1.02-.97 1.17c-.4.26-.88.2-1.09-.2-.21-.42.04-.82.5-.96Z" fill="#43963A"/></svg>