<!-- by TradingView --><svg width="56" height="56" viewBox="0 0 56 56" xmlns="http://www.w3.org/2000/svg"><path d="M0 28a28 28 0 1 1 56 0 28 28 0 1 1-56 0Z" fill="#F0F3FA"/><path d="M10 32h2.7c1.16 0 2.35.55 2.3 1.9.03 1.3-1.12 2-2.26 2.17L16 40h-1.38l-3.09-3.83H11V40h-.99L10 32Zm1.86 3.73c1.06-.01 2.19-.5 2.14-1.71.04-1.04-.83-1.51-1.73-1.52H11v3.23h.86ZM17 32h4v.7h-3v2.64h3V36h-3v3.33h3V40h-4v-8ZM29.1 40h-1.28l-1.22-3h-3l-1.14 3h-.87l3.7-8h.22l3.58 8Zm-5.23-3.58h2.58l-1.31-2.9-1.27 2.9ZM30 32h1v7.33h3V40h-4v-8ZM36 32.74h-2.53V32h6.1v.73H37V40h-1v-7.26ZM40 32h1.35l2.35 4.04L46.04 32H47l-3 4.61V40h-1v-3.28L40 32Z" fill="#43963A"/><path d="M28 28.63A3.07 3.07 0 0 1 25.45 30c-1.67.1-2.45-1.43-2.45-2.93V22h2v4.65c-.07.86.46 2.07 1.53 1.98.98-.07 1.47-1.4 1.47-2.37V22h2v8h-2v-1.37ZM10 18h4.67c3.5-.03 6.96 1.61 6.83 5.63A6.27 6.27 0 0 1 15.34 30H10V18Zm3 11h1.34c2.96.14 4.16-2.78 4.16-5.37.04-2.32-1.31-4.67-3.89-4.63H13v10ZM32 18h2v7.13L36.94 22h1.9l-2.8 2.99L39 30h-2.28L34 25.6V30h-2V18ZM44.5 29c.72 0 1.42-.23 1.97-.7l.19.15-.35.88c-.7.5-1.58.7-2.45.67A3.7 3.7 0 0 1 40 26.05c-.04-2.18 1.4-4.08 3.74-4.05 2.1 0 3.26 1.48 3.26 3.5 0 .17.02.33-.02.5H42c-.01 1.31.9 3.05 2.5 3Zm-.87-6.29c-1.18-.03-1.6 1.79-1.63 2.6h3c0-.79-.24-2.6-1.37-2.6Z"/><path d="M26.5 13s1.38 2.53 1.47 3.12c.15 1.07-.41 1.95-1.47 1.95s-1.61-.9-1.47-1.95c.1-.6 1.47-3.12 1.47-3.12Zm-5 5.05s2.87-.14 3.44.04c1.02.31 1.57 1.19 1.1 2.1-.46.92-1.5 1.04-2.39.45-.5-.31-2.15-2.59-2.15-2.59Zm6.56.04c.57-.18 3.44-.04 3.44-.04s-1.66 2.28-2.15 2.6c-.89.58-1.93.46-2.4-.46-.46-.91.1-1.79 1.11-2.1Z" fill="#43963A"/></svg>