<!-- by TradingView --><svg xmlns="http://www.w3.org/2000/svg" width="18" height="18" viewBox="0 0 18 18"><path fill="#F0F3FA" d="M0 0h18v18H0z"/><path d="m10.78 4.51-.35-.1c-.5-.17-.63-.3-1.38-.3a5.22 5.22 0 0 0-5.28 5.15c0 1.15.45 2.21.92 3.02l-.13.08c1.19 1.39 2.76 2.14 5.02 2.14 1.06 0 1.74-.34 1.74-.34s-.8.1-1.46 0a2.98 2.98 0 0 1-.69-.16c.3.03.58 0 .85 0 2.05 0 3.27-.83 3.98-2.28 0 0-.59.65-1.06.85-.46.19-1.71.48-1.15.26 2.72-1.42 2.71-4.46 2.71-4.46s-.35 4-5.19 4.2C5.81 12.7 5 11.71 5 9.26 5 7.14 7.32 5.9 9.05 5.9c.88 0 2.83.78 2.1 1.78 0 .92-2.03.95-2.95.95-1.32 0-1.7 1.4-1.7 1.4v.36c.49-.3 1.32-.4 1.88-.4h2.05c2.4 0 3.07-1.42 3.07-2.79 0-1.36-.8-2-1.42-2.8-.29 0-1.09.18-1.3.1Z" fill="#E66B05"/><path d="M8.75 4A5.08 5.08 0 0 0 3.5 9.26c0 1.23.49 2.38 1.05 3.08l.7-2.12A2.84 2.84 0 0 1 5 9.14c0-1.14.9-2.1 1.87-2.61l3.87-2.32A6.69 6.69 0 0 0 8.75 4Z" fill="url(#ab50ydwvy)"/><path d="M11.3 14.16s-1.2.15-2.84-.06c-1.02-.13-3.13-.94-3.91-1.76l.6-2.34c.57 1.38 2.24 2.24 3.72 2.25 4.68.05 5.56-3.54 5.56-3.54s-.4 2.54-3.18 4.05c-.08.04-.08.07-.08.1 0 .11 1.16-.04 1.66-.3.6-.3 1.17-.84 1.17-.84-1.13 1.46-1.97 2.04-5.3 1.82 0 0 .9.47 1.56.56.66.1 1.05.06 1.05.06Z" fill="url(#bb50ydwvy)"/><path d="M11.83 2.5s-.04 1.53.45 2.16l.05.06c.55.7.84 1.45.84 2.33 0 2.38-1.67 2.66-3.52 2.66h-1.9c-.46 0-1.05.1-1.25.42 0-.9.3-1.73 1.81-1.73.9 0 2.69.12 2.69-1.06C11 6.31 9.78 6 8.87 6c-.67 0-1.29.13-1.9.45L10.7 4.2c.19.07.36.16.45.2-.16-.59.2-1.61.67-1.9Z" fill="url(#cb50ydwvy)"/><path d="M5.98 9.42c0 .45.37.58.37.58-.16-.77.32-.79.32-1.35 0-.23-.3-.65-.3-.65s.12.52-.03.76c-.14.21-.36.37-.36.66Z" fill="#EB6C02"/><path d="M5.83 9.3c0 .46.51.7.51.7-.41-.73.16-1 .16-1.47 0-.23-.14-.53-.14-.53s-.02.4-.17.63c-.13.22-.36.37-.36.66Z" fill="url(#db50ydwvy)"/><circle cx="7.65" cy="9.11" r=".35" fill="#EE440C"/><path opacity=".8" d="M3.5 9.3C3.5 6.04 5.99 4 8.77 4c.92 0 1.78.05 2.4.42 0 0-.9 1.3-2.6 1.56C6.9 6.25 5 7.34 5 9.26c0 .37.17.8.38 1.17l-.79 1.85A5.02 5.02 0 0 1 3.5 9.3Z" fill="url(#eb50ydwvy)"/><defs><linearGradient id="ab50ydwvy" x1="3.31" y1="12.43" x2="12.42" y2=".81" gradientUnits="userSpaceOnUse"><stop offset=".15" stop-color="#ED6C01"/><stop offset=".46" stop-color="#F17D16"/><stop offset=".6" stop-color="#ED6C01"/></linearGradient><linearGradient id="bb50ydwvy" x1="14.71" y1="8.84" x2=".41" y2="13.38" gradientUnits="userSpaceOnUse"><stop offset=".01" stop-color="#EF7300"/><stop offset=".34" stop-color="#F6AC00"/><stop offset=".46" stop-color="#F6AA00"/><stop offset=".6" stop-color="#ED6C01"/></linearGradient><linearGradient id="cb50ydwvy" x1="11.74" y1="3.37" x2="8.73" y2="11.48" gradientUnits="userSpaceOnUse"><stop offset=".23" stop-color="#ED6C00"/><stop offset=".47" stop-color="#F49A01"/><stop offset=".67" stop-color="#FFE306"/><stop offset=".91" stop-color="#FBC70A"/></linearGradient><linearGradient id="db50ydwvy" x1="11.41" y1="5.22" x2="10.06" y2="10.85" gradientUnits="userSpaceOnUse"><stop offset=".58" stop-color="#FBE304"/><stop offset=".86" stop-color="#FDE600"/><stop offset=".96" stop-color="#F38413"/></linearGradient><linearGradient id="eb50ydwvy" x1="2.19" y1="6.54" x2="11.12" y2="4.67" gradientUnits="userSpaceOnUse"><stop offset=".15" stop-color="#ED6E01"/><stop offset=".86" stop-color="#EE6F00" stop-opacity=".58"/></linearGradient></defs></svg>