<!-- by TradingView --><svg xmlns="http://www.w3.org/2000/svg" width="18" height="18" viewBox="0 0 18 18"><path fill="#F0F3FA" d="M0 0h18v18H0z"/><path fill-rule="evenodd" d="M5.17 9.35c-.09.48-.36 1.29-1.04 1.29-.56 0-.67-.67-.6-1.1 0-.05.03-.1.05-.16.03-.08.06-.16.01-.2-.02-.02-.06-.01-.13 0h-.04c-.04 0-.06-.04-.08-.1-.03-.06-.06-.14-.12-.14-.13 0-.2.28-.2.41-.13 1.5.75 1.89 1.16 1.89 1.55 0 2.5-1.84 2.76-2.44-.02.5-.24.92-.35 1.08 1.14-.8 1.41-.31 1.41.1V12h1.3v-.05c.04-.3.16-1.64 1.27-1.64 1.01.05 1.43 1.15 1.52 1.69h1.6c.12-.17.76-1.62.25-3.15 0 0 .2.17.5.19.3.02.48-.16.56-.3 0-.01-.01-.02-.03-.01a.63.63 0 0 1-.42.17c-.46 0-.78-.57-1-.95l-.09-.15a4.88 4.88 0 0 0-2.66-1.98c.4 1.4.17 2.53-.56 2.67a2.32 2.32 0 0 1-1.27-.1h.3c.2.01.45.02.65-.04.58-.17.56-1.03.52-1.48-.1-.92-.7-1.9-1.8-1.87-.52.01-.94.3-1.14.53-.66.07-1.45.41-1.75 1-.29.57-.4 1.44-.49 2.15a15 15 0 0 1-.1.67Zm7.55-.5a2.42 2.42 0 0 0-.55-1.67c1.13.72 1.3 2.06 1.27 2.8 0 .11-.07.22-.17.29-.3.19-.71-.06-.66-.4.05-.33.1-.7.11-1.02ZM6.77 7.3c.14 0 .25-.1.25-.24 0-.13-.11-.24-.25-.24s-.26.1-.26.24c0 .13.12.24.26.24Z" fill="#E86433"/></svg>