<!-- by TradingView --><svg xmlns="http://www.w3.org/2000/svg" width="56" height="56" viewBox="0 0 56 56"><path fill="#F0F3FA" d="M0 0h56v56H0z"/><path fill-rule="evenodd" d="M15.86 29.3c-.26 1.56-1.12 4.23-3.29 4.23-1.75 0-2.11-2.2-1.9-3.6.03-.18.1-.36.16-.53.1-.28.2-.53.05-.65-.08-.07-.22-.05-.42-.02l-.14.02c-.1 0-.17-.16-.23-.33-.1-.21-.2-.46-.4-.46-.4 0-.6.9-.65 1.34-.4 4.94 2.4 6.19 3.7 6.19 4.9 0 7.94-6.04 8.75-8a7.26 7.26 0 0 1-1.13 3.53C23.98 28.43 25 30 25 31.33V38h3.95l.02-.17c.1-1 .5-5.4 4-5.4 3.21.19 4.52 3.8 4.82 5.57h5.06c.38-.56 2.4-5.33.8-10.35 0 0 .64.57 1.6.63.95.05 1.51-.54 1.74-.99.03-.05-.04-.08-.08-.05-.27.27-.74.57-1.33.57-1.46 0-2.49-1.87-3.17-3.1-.1-.2-.2-.36-.29-.51a15.76 15.76 0 0 0-4.33-4.55 20.25 20.25 0 0 0-4.1-1.96c1.29 4.63.56 8.31-1.76 8.78a7.1 7.1 0 0 1-4.02-.31c.27-.02.58-.01.92 0 .67.02 1.44.04 2.09-.16 1.82-.55 1.77-3.37 1.63-4.86-.29-3.01-2.21-6.23-5.68-6.14-1.67.04-2.98 1-3.62 1.75-2.1.21-4.58 1.34-5.54 3.3-.9 1.84-1.26 4.7-1.54 7.04-.1.82-.2 1.58-.3 2.2Zm23.93-1.65a8.14 8.14 0 0 0-1.76-5.5c3.6 2.38 4.1 6.77 4.04 9.2 0 .38-.22.74-.55.96-.96.62-2.25-.2-2.08-1.32.16-1.08.3-2.28.35-3.34Zm-18.87-5.1a.8.8 0 0 0 .8-.78.8.8 0 0 0-.8-.79.8.8 0 0 0-.8.79c0 .43.36.78.8.78Z" fill="#E86433"/></svg>