<!-- by TradingView --><svg width="56" height="56" viewBox="0 0 56 56" xmlns="http://www.w3.org/2000/svg"><path fill="#0484DB" d="M0 0h56v56H0z"/><path d="M27 26h1.98c1.45 0 2.02.9 2.02 2 0 1-.64 1.9-1.5 2l1.5 2h-1.12l-1.5-2H28v2h-1v-6Zm1 3h1c.5 0 1-.23 1-1s-.5-1-1-1h-1v2ZM32 26h1.98c1.45 0 2.02.9 2.02 2 0 1-.64 1.9-1.5 2l1.5 2h-1.12l-1.5-2H33v2h-1v-6Zm1 3h1c.5 0 1-.23 1-1s-.5-1-1-1h-1v2ZM39.5 26h1l2.5 6h-1.07l-.67-1.5h-2.55l-.63 1.5H37l2.5-6Zm1.34 3.5-.83-2.25h-.02l-.83 2.25h1.68ZM45.02 26l2.96 4H48v-4h1v6h-.98l-2.99-4H45v4h-1v-6h1.02ZM22 26h4v1h-3v1.5h2.65v1H23V31h3v1h-4v-6ZM18.5 27v5h1v-5H21v-1h-3.26c-.25.26-.5.73-.74 1h1.5Z" fill="#F0F3FA"/><path d="M14.23 28.15 12.55 26H11.5l2.16 2.86A30.45 30.45 0 0 0 10 35c5.87-10.67 17.28-16.95 29-17.14 4.03-.06 6.1.7 10 2.14-4.04-1.9-6.4-2.98-10.74-3a30.95 30.95 0 0 0-24.03 11.15Z" fill="#F0F3FA"/><path d="M16.1 32h1.17l-2.46-3.1-.59.61L16.1 32ZM11 31H8v-1.5h2.65v-.95H8V27h3l-.57-1H7v6h3.55c.15-.24.3-.74.45-1Z" fill="#F0F3FA"/></svg>