<!-- by TradingView --><svg width="18" height="18" viewBox="0 0 18 18" xmlns="http://www.w3.org/2000/svg"><path fill="#0484DB" d="M0 0h18v18H0z"/><path d="M14.62 5.32 15 5l-.5.09-.45.06a4.06 4.06 0 0 0-1.26.37A11.6 11.6 0 0 0 7.75 9L6.6 8h-.99l1.63 1.63-.45.56c-.67.84-1.32 1.65-1.79 2.68l.25.13a24.36 24.36 0 0 1 3.5-4.06 13.6 13.6 0 0 1 3.02-2.24 26.02 26.02 0 0 1 1.54-.67 6.13 6.13 0 0 0 1.3-.7Z" fill="#F0F3FA"/><path d="M10 12 8.32 9.55l-.1.1c-.14.12-.26.24-.38.37l-.07.09L9.03 12H10Z" fill="#F0F3FA"/></svg>