<!-- by TradingView --><svg xmlns="http://www.w3.org/2000/svg" width="56" height="56" viewBox="0 0 56 56"><path fill="url(#abm1ykd23)" d="M0 0h56v56H0z"/><path d="M34.4 21.26L13.54 32.17c-.47.25-.67.84-.45 1.34 6.23 13.77 19.17 11.82 25.66 6.39 2.5-2.09 1.35-5.7-1.44-7.33a.5.5 0 0 0-.68.17c-4.87 7.56-12.3 5.55-15.14 2.8-.24-.22-.16-.61.13-.76l20.83-10.8c.46-.23.67-.78.48-1.27-4.63-11.57-17.21-13.75-25.88-6.62-2.26 1.87-1.64 5.35.8 6.98l.66.45a.5.5 0 0 0 .72-.19l.01-.02c4.97-7.85 12.22-5.79 15.29-2.84.24.23.16.63-.13.79z" fill="#fff"/><defs><linearGradient id="abm1ykd23" x1="43.03" y1="4.75" x2="28" y2="56" gradientUnits="userSpaceOnUse"><stop stop-color="#F93C12"/><stop offset="1" stop-color="#F60"/></linearGradient></defs></svg>