<!-- by TradingView --><svg xmlns="http://www.w3.org/2000/svg" width="18" height="18" viewBox="0 0 18 18"><path d="M18 0H0v18.06h18V0Z" fill="#194172"/><path d="M13.48 9.57c-.03.54-.44 1.4-.98 1.72-1 .57-2.92.2-3.09-1.99-.04-.6.1-1.33.34-1.77a2.14 2.14 0 0 1 2.69-1.02c.65.25.76.43 1.02.78.16-.05 1-.36 1.15-.48a3.5 3.5 0 0 0-.75-1.02c-.93-.95-2.75-1-3.82-.4-.75.4-1.3.96-1.67 1.78-1.08 2.49.19 6.36 3.84 5.77a2.97 2.97 0 0 0 2.07-1.34c.5-.78.71-2 .72-3.17l-3.04.01v1.13h1.52ZM8 6.33c.15-.42.43-1.02 1-1.33l-5 .02V13h1.8l-.01-3.43H7c0-.68 0-1.1.22-1.57h-1.4V6.34H8Z" fill="#FEFEFE"/></svg>