<!-- by TradingView --><svg xmlns="http://www.w3.org/2000/svg" width="56" height="56" viewBox="0 0 56 56"><path fill="#F0F3FA" d="M0 0h56v56H0z"/><path d="M7 30.72c0 .76 0 1.34.04 1.68.02.22.07.4.3.43l.4.03c.1 0 .12.02.12.06 0 .06-.05.08-.17.08H5.5c-.1 0-.16-.02-.16-.08 0-.04.03-.06.12-.06.11 0 .2-.02.28-.03.15-.03.19-.2.22-.43.04-.34.04-.92.04-1.68v-1.38c0-1.2 0-1.48-.02-1.73-.01-.26-.07-.39-.33-.45l-.3-.02c-.08 0-.13-.01-.13-.06 0-.06.06-.08.17-.08H9c.06 0 .06.07.05.14-.04.28-.04.58-.09.86 0 .06-.02.1-.08.1-.05 0-.07-.03-.07-.12 0-.06 0-.19-.05-.3-.06-.1-.22-.22-.51-.23l-1.18-.03c-.05 0-.07.03-.07.11v2.01c0 .05 0 .08.05.08l.98-.01.35-.01c.15 0 .25-.04.33-.14.04-.05.06-.08.1-.08.03 0 .05.02.05.07s-.04.24-.06.49c-.02.15-.03.52-.03.57 0 .07 0 .15-.08.15-.05 0-.06-.06-.06-.11a.87.87 0 0 0-.05-.24c-.04-.11-.16-.25-.4-.29-.2-.02-1-.02-1.13-.02-.03 0-.05.02-.05.07v.65ZM10.38 29.33c0-1.19 0-1.47-.02-1.72-.01-.27-.08-.4-.33-.45l-.3-.02c-.1 0-.14-.01-.14-.07 0-.05.06-.07.17-.07h3.52c.04 0 .05.03.05.07 0 .06-.04.09-.06.45l-.04.51c-.01.04-.03.09-.08.09s-.07-.04-.07-.11c0-.06 0-.19-.05-.28-.05-.14-.13-.24-.52-.28-.13-.02-.94-.04-1.1-.04-.04 0-.05.03-.05.08v2.03c0 .06 0 .09.05.09.17 0 1.06 0 1.24-.02.19-.01.3-.04.38-.11.05-.07.08-.1.12-.1.03 0 .05.01.05.06 0 .04-.03.17-.06.57a9.4 9.4 0 0 0-.03.52c0 .06 0 .15-.07.15-.05 0-.07-.03-.07-.07 0-.08 0-.18-.03-.28-.04-.16-.15-.28-.43-.3-.15-.02-.92-.03-1.1-.03-.05 0-.05.03-.05.08V31.92c.01.54.14.66.93.66.2 0 .53 0 .73-.1.2-.09.3-.25.35-.58.01-.08.03-.11.08-.11.07 0 .07.06.07.14 0 .18-.07.71-.1.87-.06.2-.13.2-.42.2H9.86c-.1 0-.15-.05-.15-.1 0-.04.03-.06.12-.06.12 0 .21-.02.28-.04.16-.03.2-.2.23-.43.04-.32.04-.94.04-1.66v-1.38ZM16 30.14c0 .83 0 1.43.02 1.58 0 .2.02.51.08.6.1.15.27.31.88.31.8 0 1.32-.16 1.79-.56.5-.43.65-1.15.65-1.96 0-1-.41-1.63-.75-1.96a2.77 2.77 0 0 0-2.06-.78c-.16 0-.45.02-.5.05-.08.03-.1.07-.1.16L16 29.15v.99Zm-1-.87c0-1.19 0-1.4-.02-1.66-.01-.26-.07-.39-.33-.45a1.6 1.6 0 0 0-.3-.02c-.09 0-.14-.01-.14-.07 0-.05.06-.07.18-.07h2.34c.97 0 2.13 0 2.98.9.39.4.75 1.05.75 1.99 0 .98-.41 1.74-.85 2.18-.35.37-1.16.93-2.6.93H14.5c-.1 0-.15-.04-.15-.1 0-.03.03-.06.12-.06.12 0 .21-.01.28-.03.16-.03.2-.2.23-.43.04-.33.03-1 .03-1.72v-1.39ZM35.72 31.96c.01.6.12.8.27.85.13.04.28.05.4.05.09 0 .14.02.14.06 0 .06-.07.08-.18.08h-1.8c-.1 0-.18 0-.18-.08 0-.04.05-.06.13-.06.1 0 .24 0 .35-.04.2-.06.23-.28.24-.94l.07-4.62c0-.15.02-.26.1-.26.09 0 .16.1.29.24.1.1 1.27 1.34 2.4 2.45.54.52 1.58 1.62 1.72 1.74h.04l-.08-3.56c-.01-.46-.08-.61-.27-.69-.11-.04-.3-.04-.4-.04-.1 0-.13-.03-.13-.07 0-.06.08-.07.2-.07h1.7c.1 0 .18 0 .18.07 0 .04-.05.07-.14.07-.08 0-.14 0-.23.02-.22.06-.28.22-.3.65l-.08 4.95c0 .17-.03.24-.1.24-.08 0-.18-.08-.26-.17-.5-.46-1.49-1.46-2.3-2.25-.84-.82-1.7-1.78-1.84-1.92h-.03l.09 3.3ZM44.2 30.6c.04 0 .05-.02.04-.05l-.7-1.9c0-.03 0-.07-.03-.07s-.04.04-.05.07l-.71 1.9c-.01.03 0 .05.03.05h1.43Zm-1.58.4c-.04 0-.05.02-.07.06l-.42 1.1c-.08.18-.11.37-.11.46 0 .14.06.24.3.24h.12c.1 0 .12.02.12.06 0 .06-.05.08-.13.08h-1.74c-.1 0-.15-.02-.15-.08 0-.04.03-.06.1-.06l.23-.01c.36-.05.5-.31.66-.7l1.95-4.84c.1-.23.14-.31.22-.31.07 0 .12.07.2.25.18.42 1.43 3.57 1.92 4.74.3.7.52.8.69.84l.32.03c.06 0 .1 0 .1.06s-.07.08-.35.08H45.1c-.11 0-.24-.02-.24-.08 0-.04.04-.06.11-.07.06-.01.11-.07.07-.16l-.62-1.63c-.01-.04-.04-.06-.08-.06h-1.73ZM48 27.41l-1.16.03c-.45.02-.64.06-.75.23a.91.91 0 0 0-.13.27c-.02.06-.04.1-.09.1-.05 0-.07-.04-.07-.13 0-.12.15-.83.16-.9.03-.1.05-.14.1-.14.06 0 .14.08.33.1l.78.03h3.1c.5 0 .69-.08.75-.08.05 0 .06.05.06.17l-.02.9c0 .08-.02.12-.07.12-.06 0-.08-.03-.09-.15v-.09c-.02-.2-.23-.42-.92-.43L49 27.4v3.33c0 .72 0 1.33.04 1.67.02.22.07.39.3.42l.4.03c.08 0 .12.02.12.06 0 .06-.06.08-.14.08h-2.23c-.1 0-.16-.02-.16-.08 0-.04.03-.06.13-.06.11 0 .2-.02.28-.03.15-.03.2-.2.22-.43.04-.33.04-.94.04-1.66v-3.33Z" fill="#013E7D"/><path d="m27.44 17-1.97 6.11h-6.43l5.2 3.77-2 6.1 4.69-3.4-2.7.92 1.3-4.04-3.1-2.24h3.83l1.18-3.65 1.18 3.65h3.83l-3.1 2.24 1.31 4.04-2.7-.91 4.68 3.4-2-6.11 5.2-3.77h-6.42L27.44 17Z" fill="#C1042F"/></svg>