<!-- by TradingView --><svg xmlns="http://www.w3.org/2000/svg" width="56" height="56" viewBox="0 0 56 56"><path fill="#F0F3FA" d="M0 0h56v56H0z"/><path d="M28 42c7.63 0 14-6.37 14-14s-6.37-14-14-14-14 6.37-14 14c0 1.02.15 2.02.4 2.97L28 17.37l11.15 11.16a1.5 1.5 0 1 1-2.12 2.12L28 21.62 14.19 35.44l-.97.96a17 17 0 1 1 2 2.82l1.09-1.11 7.22-7.35 4.42 4.41a1.69 1.69 0 1 0 2.38-2.39l-4.5-4.46 2.11-2.13 4.5 4.46a4.69 4.69 0 1 1-6.62 6.65l-2.27-2.28-3.93 4A13.56 13.56 0 0 0 28 42Z" fill="#46A5E6"/></svg>