<!-- by TradingView --><svg width="18" height="18" viewBox="0 0 18 18" xmlns="http://www.w3.org/2000/svg"><path fill="#F0F3FA" d="M0 0h18v18H0z"/><path d="M10.36 9H8v1h1.45l1.2 2H12l-1.35-2C11 10 12 10 12 8.5S11.03 7 10.04 7H8v1h2.36c.4 0 .64.15.64.5s-.23.5-.64.5Z" fill="#06A7E2"/><path d="M13.4 4H4.56c-.34 0-.57.26-.57.59v6.79c0 .27.2.62.5.62s.49-.35.5-.64V8h2V7H5V5.4c0-.23.19-.4.42-.4h7.13c.24 0 .45.17.45.4v7.18c0 .23-.21.42-.45.42h-7.3v1h8.14a.6.6 0 0 0 .61-.6V4.6a.6.6 0 0 0-.6-.59Z" fill="#06A7E2"/><path d="M6 13.5a1 1 0 1 1-2 0 1 1 0 0 1 2 0Z" fill="#06A7E2"/></svg>