<!-- by TradingView --><svg width="56" height="56" viewBox="0 0 56 56" xmlns="http://www.w3.org/2000/svg"><path fill="#F0F3FA" d="M0 0h56v56H0z"/><path d="M32.02 27H26v3h5l3 6h4l-3.72-6.78c1.82-.73 2.68-2.4 2.72-4.4A4.68 4.68 0 0 0 32.1 20H26v3h6c1.2 0 2.02.67 2.02 1.82s-.76 2.18-2 2.18Z" fill="#06A7E2"/><path d="M41.24 13H15.66c-1 0-1.66.75-1.66 1.7v19.85c0 .79.58 1.45 1.44 1.45s1.52-.66 1.56-1.49V23h6v-3h-6v-2.85c0-.67.54-1.15 1.23-1.15h20.46c.7 0 1.31.48 1.31 1.15v20.63c0 .67-.62 1.22-1.3 1.22H18.5v3h22.73c.95 0 1.77-.78 1.77-1.73V14.7c0-.95-.82-1.7-1.76-1.7Z" fill="#06A7E2"/><path fill-rule="evenodd" d="M15.5 44a3.5 3.5 0 1 0 0-7 3.5 3.5 0 0 0 0 7Zm0-1a2.5 2.5 0 1 0 0-5 2.5 2.5 0 0 0 0 5Z" fill="#06A7E2"/></svg>