<!-- by TradingView --><svg xmlns="http://www.w3.org/2000/svg" width="18" height="18"><path fill="#F0F3FA" d="M0 0h18v18H0z"/><path d="M6.65 8H5.08v-.5c0-.38-.02-.58-.05-.68-.03-.1-.11-.18-.22-.18-.1 0-.2.07-.24.16-.03.08-.05.26-.05.6v3.22c0 .3.02.5.05.6.04.1.18.14.24.14.11 0 .22-.05.26-.16.04-.1.06-.32.06-.63v-.8h-.37V8.75h1.89v3.61h-.99l-.14-.48c-.11.2-.25.36-.4.46-.17.1-.36.16-.59.16a1.5 1.5 0 01-1.27-.74c-.11-.21-.19-.43-.22-.66A9.18 9.18 0 013 10.05v-2c0-.64.03-1.1.1-1.4.05-.29.23-.55.53-.8.3-.24.67-.36 1.14-.36.46 0 .84.1 1.15.32.3.2.5.46.59.75.1.28.14.7.14 1.25V8zm4.16-2.5v7H9.37V9.54h-.7v2.96H7.25v-7h1.42V8h.7V5.5h1.44zm2.6 2.17h1.46v-.26c0-.54-.05-.92-.14-1.14-.1-.22-.28-.4-.57-.55a2.28 2.28 0 00-1.04-.22c-.38 0-.7.07-.96.2s-.45.32-.57.56c-.12.23-.18.61-.18 1.13 0 .35.04.65.13.88.08.23.19.4.31.54.13.13.39.34.78.62.39.29.63.5.73.61.1.13.15.38.15.78 0 .18-.03.31-.08.4a.25.25 0 01-.23.14c-.1 0-.18-.03-.22-.1a1.19 1.19 0 01-.06-.49V10h-1.46v.4c0 .5.05.88.14 1.16.1.27.28.5.58.67.3.18.66.27 1.08.27.38 0 .72-.08 1-.23.3-.15.49-.34.59-.57.1-.23.15-.58.15-1.06 0-.66-.1-1.13-.27-1.43-.18-.3-.62-.67-1.32-1.14-.25-.16-.4-.3-.45-.4a1.23 1.23 0 01-.08-.51c0-.18.03-.3.08-.4a.24.24 0 01.21-.12c.09 0 .15.03.19.1.03.06.05.2.05.44v.5z"/></svg>