<!-- by TradingView --><svg xmlns="http://www.w3.org/2000/svg" width="18" height="18" viewBox="0 0 18 18"><path fill="#F0F3FA" d="M0 0h18v18H0z"/><path d="M15.88 8.7a.46.46 0 0 0-.66-.04c-.79.71-1.58 1.37-2.48 1.84-.9.47-1.88.73-2.92.83l-.88.05a1.5 1.5 0 0 1-.91-.3 2.39 2.39 0 0 1-.7-.88 3.22 3.22 0 0 1-.13-2.32.13.13 0 0 0-.05-.13c-.06-.03-.12 0-.15.05-.34.8-.36 1.73-.05 2.56.13.35.33.69.59.97a8.3 8.3 0 0 1-3.66-1.34c-.04-.03-.1-.02-.14.02-.04.06-.03.12.02.15a7.83 7.83 0 0 0 4.48 1.81c.24.03.46.04.7.04H9.03c.28.02.56 0 .85-.01a8.17 8.17 0 0 0 4.64-1.6c.46-.32.88-.67 1.3-1.02l.01-.01c.21-.16.22-.47.05-.67z" fill="#0094B3"/><path d="M14.21 7.87a7.84 7.84 0 0 0-4.47-1.81 6.16 6.16 0 0 0-.69-.04h-.08l-.84.01c-.28.01-.55.05-.83.08l-.8.16a9.66 9.66 0 0 0-3.02 1.37c-.46.3-.9.66-1.31 1l-.01.02a.5.5 0 0 0-.04.68c.17.2.47.22.66.04.77-.7 1.6-1.32 2.5-1.78.46-.23.93-.42 1.4-.56.24-.08.5-.14.74-.2.25-.03.5-.09.76-.11.27-.04.57-.06.86-.07.16 0 .3.01.46.07.15.05.32.13.47.24.28.21.52.54.69.88.33.72.38 1.57.1 2.34 0 .05 0 .1.06.13.05.03.11 0 .14-.05.35-.8.38-1.75.08-2.59-.08-.2-.18-.4-.3-.59a1.99 1.99 0 0 0-.3-.38 7.6 7.6 0 0 1 3.65 1.35c.04.02.1 0 .15-.03.04-.05.02-.12-.03-.16z" fill="#69BE28"/></svg>