<!-- by TradingView --><svg xmlns="http://www.w3.org/2000/svg" width="18" height="18"><path fill="#F0F3FA" d="M0 0h18v18H0z"/><path d="M6 8.5a2 2 0 100-4 2 2 0 000 4z" fill="#FFD900"/><path d="M13 7v3.9c0 .85-.22 1.47-.65 1.88-.43.41-1.06.62-1.88.62-.42 0-.84-.05-1.25-.16a2.69 2.69 0 01-.97-.47l.52-.96c.21.17.46.3.72.38.28.1.58.14.87.14.46 0 .8-.1 1-.31.22-.21.33-.53.33-.95v-.2c-.34.39-.82.58-1.43.58-.4 0-.79-.09-1.14-.28A2.11 2.11 0 018 9.23a2.1 2.1 0 011.12-1.95c.35-.19.75-.28 1.14-.28.66 0 1.16.22 1.5.66V7H13zm-1.62 3.04a1.17 1.17 0 000-1.63 1.19 1.19 0 00-.86-.31 1.2 1.2 0 00-.85.31 1.16 1.16 0 00-.01 1.62v.01c.24.21.55.33.86.31.32.02.62-.1.86-.3z" fill="#97A3AE"/></svg>