<!-- by TradingView --><svg xmlns="http://www.w3.org/2000/svg" width="18" height="18" viewBox="0 0 18 18"><path fill="#F0F3FA" d="M0 0h18v18H0z"/><path d="M10.1 4.5h3.55c.24 0 .35.18.35.4v2.64c0 .23-.1.46-.35.46h-1.29c-.24 0-.34-.23-.36-.46v-.78c0-.36-.14-.74-.52-.76H9.46c.02-.63.28-.98.65-1.5z" fill="#01FFFF"/><path d="M10.55 14a3 3 0 0 1 1.35-2.41c.06-.04.14-.08.16-.15.63-.23 1.23-.46 1.94-.39v2.6c0 .24-.09.35-.33.35h-3.12z" fill="#FF00FE"/><path d="M7.01 6c.16-.5.23-.89.13-1.5h.83l-.62-.53c-.04-.03-.1-.07-.15-.13-.12-.15-.16-.3 0-.44.15-.13.3-.1.43.04.36.32.74.65 1.09 1.01.22.23.36.2.58.02l1.63-1.32c.18-.15.37-.23.55-.04.16.2 0 .35-.14.46-.49.38-.63.5-1.14.88-.5.53-.64 1.16-.72 1.55H7.01zM14 11.05c-.71-.03-1.37.23-2 .46.2-.29.21-.68.21-1-.02-.2-.09-.24-.36-.24-.72 0-.85-.04-.85-.75 0-.98.04-.95 1.05-.95h1.5c.3 0 .45.17.45.47v2.01z" fill="#3900C7"/><path d="M10.57 14H4.44c-.24 0-.44-.13-.44-.34V8.1c.18-.01.58-.11.76-.13.45-.13.8-.32 1.03-.46.39-.23.93-1.2 1.21-1.52v4.73c0 .46.06.7.45.7.56 0 .92-.04 1.27.43.24.33.56.83.84 1.14.08.1.18.17.3.24.27.17.57.1.57-.28v-1.29c0-.2.07-.25.27-.25h1.55c-.71.55-1.62 1.6-1.68 2.59z" fill="#3900C7"/><path d="M6.9 6.38c-.13.31-.7.9-1.09 1.13-.28.16-.7.42-1.08.48L4 8.11V5.02c0-.36.14-.52.53-.52h2.62c.1.61 0 1.33-.25 1.88z" fill="#00FF01"/><path d="M10.58 8.57c.24 0 .43-.19.43-.42 0-.24-.2-.43-.43-.43a.43.43 0 0 0-.43.43c0 .23.2.42.43.42zm-1.73-.42a.42.42 0 0 1-.85 0c0-.23.19-.42.43-.42.23 0 .42.19.42.42zm.6 1.32h.94c.2 0 .27.09.23.26-.1.47-.69.9-1.19.89-.52-.03-1.06-.47-1.13-.93-.02-.15.04-.22.2-.22h.96z" fill="#3900C7"/></svg>