<!-- by TradingView --><svg xmlns="http://www.w3.org/2000/svg" width="56" height="56" viewBox="0 0 56 56"><path fill="#F0F3FA" d="M0 0h56v56H0z"/><path fill-rule="evenodd" d="M43 12H13v30.6L28.02 48 43 42.6V12zm-1 1H14v28.9L28.02 47 42 41.9V13zm-5.83 1.66a1.16 1.16 0 0 1 2.32 0v2.5a1.16 1.16 0 1 1-2.32 0v-2.5zm.7-.02a.47.47 0 1 1 .92 0v2.54a.47.47 0 1 1-.93 0v-2.54zM15.83 13.5c-.64 0-1.16.52-1.16 1.16v2.5a1.16 1.16 0 0 0 2.33 0v-1.47h-1.29v.58h.59v.9a.47.47 0 0 1-.93 0v-2.53a.47.47 0 0 1 .93 0V15h.7v-.34c0-.64-.52-1.16-1.17-1.16zm17.16 0h-.66v4.81H33v-4.8zm-12.06 0h-.55v4.81h2.02v-.7h-1.36v-1.36h1.36v-.7h-1.36V14.2h1.36v-.7H20.95zm1.92 0h2.02v.7h-1.36v1.36h1.36v.7h-1.36v1.36h1.36v.7h-2.02V13.5zm-4.03 0h-1.34V18.31h.66v-2.04h.38l.63 2.04h.77l-.66-2.15a1 1 0 0 0 .56-.9v-.76a1 1 0 0 0-1-1zm-.19.7h-.48v1.49h.48a.5.5 0 0 0 .5-.5v-.5a.5.5 0 0 0-.5-.5zM39 13.5h1.33a1 1 0 0 1 1 1v.77a1 1 0 0 1-.56.9l.67 2.14h-.77l-.63-2.04h-.38v2.04H39V13.5zm.66.7h.49c.27 0 .5.22.5.5v.49a.5.5 0 0 1-.5.5h-.49v-1.5zm-14.34-.7v4.81H26v-2.8l1.05 2.8h.64v-4.8H27v2.81l-1.03-2.82h-.65zm3.95 0l1.01 4.81h.59l.98-4.8h-.73l-.55 3.17-.55-3.18h-.75zm5.4 0c1 0 1.16.91 1.11 1.36h-.69c.02-.22-.03-.68-.42-.68-.46-.01-.48.44-.5.61v.02c0 .16.05.52.83.78.68.23.79.86.78 1.18 0 .5-.04 1.54-1.1 1.54-1.07 0-1.26-.9-1.23-1.35h.67c0 .33.18.66.55.66.33 0 .42-.3.42-.66 0-.19 0-.6-.74-.87a1.28 1.28 0 0 1-.86-1.27v-.03c0-.17-.02-1.3 1.18-1.29zM15 19h26v22.1C32.18 39.2 31.37 29.7 31.37 25h-6.69c-.3 12.51-5.64 15.24-9.68 16.06V19zm1.87 22.88l7.36 2.73.27-13.77c-.33 3.02-2.32 9.1-7.63 11.04zm8.68 3.22L28 46l2.45-.9-.07-.21-2.11-2.32h-.49l-2.14 2.32-.09.2zm6.27-.51l7.34-2.72c-2.82-1.1-6.87-4.25-7.6-11.03l.27 13.75zm4.59-5.95l.84-10.86h.57l.21-3.61.17 3.61h.68l.97 12.63c-.72-.22-2.41-.9-3.44-1.77zm.9-10.33h1.53l-.57 10.94h-.36l-.6-10.94zM16.95 40.08l.81-7.25v-4.65l.47-.25.44-3.7.51 3.7.47.25v4.65l.55 5.25a9.06 9.06 0 0 1-3.25 2zm11.32-15.82h-.45v.56h.45v-.56zm-3.47.25h.77v.3h-.77v-.3zm5.67 0h.77v.3h-.77v-.3zm-3.9.78h-.8v.56h.8v-.56zm1.75 0h.8v.56h-.8v-.56zm-.59 0h-.8v.56h.8v-.56zm1.76 0h.8v.56h-.8v-.56zM26.28 27h3.47v.41l-1.53 1.68h-.45l-1.5-1.68V27zm-.3.82h-.34v3.87h.22l1.56-1.77v-.5l-1.44-1.6zm-.42 6h.36l1.5 1.6v.5L25.8 37.7h-.23v-3.87zm.28 6.14h-.37v3.87h.24l1.68-1.77v-.5l-1.55-1.6zm4.54-12.14h-.35l-1.44 1.6v.5l1.57 1.77h.22v-3.87zm-.24 6h.36v3.88h-.23l-1.63-1.77v-.5l1.5-1.6zm.41 6.14h-.36l-1.55 1.6v.5l1.68 1.77h.23v-3.87zm-2.29-9.58h-.52l-1.74 2v.66l1.74 1.94h.47L30 33.04v-.6l-1.74-2.06zm-.52 6.09h.52L30 38.52v.6l-1.79 1.94h-.47L26 39.12v-.66l1.74-2zM16 21a1 1 0 0 1 2 0h-.6v-.04a.4.4 0 0 0-.8 0v1.08a.4.4 0 1 0 .8 0V22h.6a1 1 0 0 1-2 0v-1zm9.16-1H24v3h.6v-1h.56a1 1 0 1 0 0-2zm-.03.59h-.54v.87h.54a.44.44 0 1 0 0-.87zM28 20h.6v3H28v-3zm2.67.57V20h2.08v.57H32V23h-.59v-2.43h-.74zM38.6 20H38v3h2v-.57h-1.4V20zm-3.51 0L34 23h.67l.16-.54h.98l.2.54h.66l-1.1-3h-.48zm.24.9l-.4 1.04h.79l-.39-1.04zM19.73 23l1.1-3h.48l1.1 3h-.66l-.2-.54h-.99l-.16.54h-.66zm.94-1.06l.4-1.04.38 1.04h-.78z" fill="#015229"/><path d="M19.03 28.34h-.61l-1.22 11.3c1.76-.61 2.59-1.56 2.79-1.96l-.96-9.34z" fill="#0A6D3B"/></svg>