<!-- by TradingView --><svg xmlns="http://www.w3.org/2000/svg" width="18" height="18" viewBox="0 0 18 18"><path d="M18 0H0v18h18V0Z" fill="#F0F3FA"/><path d="M9.49 11.41h.77l2.56-2.58c.64-.64.39-1.42-.18-1.72-.48-.25-1.16-.08-1.32.28l-1.83 4.02ZM8.46 11.41H7.7L5.13 8.83c-.64-.64-.39-1.42.18-1.72.48-.25 1.16-.08 1.32.28l1.83 4.02ZM10.7 12h3.04c.77 0 .93-.99.52-1.61a1.15 1.15 0 0 0-1.72-.2L10.7 12ZM7.27 12H4.23c-.77 0-.94-.99-.53-1.61a1.15 1.15 0 0 1 1.72-.2L7.27 12ZM9 10.95l1.94-4.32c.44-3.03-4.39-3.03-3.88 0L9 10.95Z" fill="#FD0100"/></svg>