<!-- by TradingView --><svg xmlns="http://www.w3.org/2000/svg" width="56" height="56" viewBox="0 0 56 56"><path fill="#F0F3FA" d="M0 0h56v56H0z"/><path d="M10.59 19.95V20c.06.23.31.5 1.02.52.23-.23.55-.37.9-.37.72 0 1.3.59 1.3 1.31a1.3 1.3 0 0 1-1.3 1.31 1.3 1.3 0 0 1-1.3-1.27 1.07 1.07 0 0 0-1.16-.47A1.3 1.3 0 0 1 8 19.95c0-.72.58-1.3 1.3-1.3.7 0 1.29.58 1.29 1.3z" fill="url(#anwbdgcus)"/><path d="M20.13 19.65v.03c-.01.24-.22.56-.9.7-.28-.18-.62-.27-.96-.2-.7.13-1.17.8-1.04 1.52.12.71.8 1.19 1.5 1.06a1.3 1.3 0 0 0 1.05-1.48c.09-.25.42-.7 1.07-.68.23.11.5.16.78.1.7-.12 1.17-.8 1.05-1.52a1.3 1.3 0 0 0-1.5-1.06c-.71.13-1.18.81-1.05 1.53z" fill="url(#bnwbdgcus)"/><path d="M11.04 26.8v-.03c.01-.24.22-.56.9-.7.28.19.61.27.96.2.7-.12 1.17-.8 1.04-1.52a1.3 1.3 0 0 0-1.5-1.06 1.3 1.3 0 0 0-1.05 1.49c-.09.24-.42.7-1.07.67-.24-.11-.5-.15-.78-.1-.7.13-1.17.8-1.05 1.52.13.71.8 1.19 1.5 1.06.71-.13 1.18-.81 1.05-1.53z" fill="url(#cnwbdgcus)"/><ellipse rx="1.29" ry="1.31" transform="matrix(.98372 -.1797 -.17535 -.9845 15.69 26.54)" fill="url(#dnwbdgcus)"/><ellipse rx="1.3" ry="1.3" transform="matrix(.62629 -.7796 -.77178 -.63589 18.86 24.83)" fill="url(#enwbdgcus)"/><path d="M15.8 17.36h-.03c-.17.14-.32.46-.1 1.08a1.23 1.23 0 0 1-.04 2.25 1.2 1.2 0 0 1-1.56-.67c-.24-.62.04-1.31.63-1.58.15-.2.34-.68 0-1.19a1.23 1.23 0 0 1 .2-2.16 1.2 1.2 0 0 1 1.57.68c.25.62-.05 1.34-.67 1.59z" fill="url(#fnwbdgcus)"/><path fill-rule="evenodd" d="M28 24h-2v3.61a3.41 3.41 0 0 0-1.96-.61 3.48 3.48 0 0 0-3.46 3.5c0 1.93 1.55 3.5 3.46 3.5.73 0 1.4-.23 1.96-.61V34h2V24zm-2 6.5c0-1.1-.78-2-1.75-2s-1.75.9-1.75 2 .78 2 1.75 2 1.75-.9 1.75-2zM18 27h2v7h-2v-7zm27.05 7c.73 0 1.4-.23 1.95-.61V34h2v-7h-2v.61a3.4 3.4 0 0 0-1.95-.61 3.47 3.47 0 0 0-3.44 3.5c0 1.93 1.54 3.5 3.44 3.5zm.2-1.5c.97 0 1.75-.9 1.75-2s-.78-2-1.75-2-1.75.9-1.75 2 .78 2 1.75 2zm-9.93.2A3.57 3.57 0 0 1 29 30.5c0-1.93 1.34-3.5 3.3-3.5 2.05 0 3.37 1.2 3.37 3.26V31h-4.93c.18.93.92 1.55 1.81 1.55.64 0 1.2-.35 1.54-.9l1.23 1.05zm-4.46-3.02h2.88c-.01-.67-.63-1.24-1.3-1.24-.76 0-1.42.4-1.58 1.24zM37 27h2v1.02A3.2 3.2 0 0 1 41.45 27v2c-.64-.5-1.94-.17-2.45.6V34h-2v-7z" fill="#484C55"/><defs><linearGradient id="anwbdgcus" x1="13.81" y1="22.31" x2="8.79" y2="19.64" gradientUnits="userSpaceOnUse"><stop stop-color="#F6B932"/><stop offset=".49" stop-color="#AC122D"/><stop offset=".71" stop-color="#D12331"/><stop offset=".95" stop-color="#860026"/></linearGradient><linearGradient id="bnwbdgcus" x1="17.38" y1="22.54" x2="21.86" y2="19.02" gradientUnits="userSpaceOnUse"><stop stop-color="#F6B932"/><stop offset=".49" stop-color="#AC122D"/><stop offset=".71" stop-color="#D12331"/><stop offset=".95" stop-color="#860026"/></linearGradient><linearGradient id="cnwbdgcus" x1="13.79" y1="23.91" x2="9.31" y2="27.43" gradientUnits="userSpaceOnUse"><stop stop-color="#F6B932"/><stop offset=".49" stop-color="#AC122D"/><stop offset=".71" stop-color="#D12331"/><stop offset=".95" stop-color="#860026"/></linearGradient><linearGradient id="dnwbdgcus" x1="1.29" y1="0" x2="1.29" y2="2.62" gradientUnits="userSpaceOnUse"><stop stop-color="#860026"/><stop offset="1" stop-color="#FAD960"/></linearGradient><linearGradient id="enwbdgcus" x1="1.3" y1="0" x2="1.3" y2="2.6" gradientUnits="userSpaceOnUse"><stop stop-color="#860026"/><stop offset="1" stop-color="#FAD960"/></linearGradient><linearGradient id="fnwbdgcus" x1="14.91" y1="20.99" x2="15.51" y2="15.68" gradientUnits="userSpaceOnUse"><stop stop-color="#F6B932"/><stop offset=".49" stop-color="#AC122D"/><stop offset=".71" stop-color="#D12331"/><stop offset=".95" stop-color="#860026"/></linearGradient></defs></svg>