<!-- by TradingView --><svg xmlns="http://www.w3.org/2000/svg" width="18" height="18" viewBox="0 0 18 18"><path fill="#F0F3FA" d="M0 0h18v18H0z"/><path d="M5.88 7.65v.03c.04.17.23.37.74.38.17-.16.4-.27.65-.27.52 0 .94.43.94.97 0 .53-.42.97-.94.97a.95.95 0 0 1-.94-.94.77.77 0 0 0-.84-.35.92.92 0 0 1-.55.18.95.95 0 0 1-.94-.97c0-.53.42-.96.94-.96s.94.43.94.96z" fill="url(#aaf3vlc43)"/><path d="M12.8 7.43v.02c-.01.18-.16.41-.66.52a.91.91 0 0 0-.7-.15c-.5.1-.84.6-.75 1.12.1.53.58.88 1.09.78.5-.1.84-.58.76-1.1.07-.17.3-.5.78-.49.17.08.37.11.57.08.5-.1.84-.6.75-1.13a.94.94 0 0 0-1.09-.78c-.5.1-.85.6-.75 1.13z" fill="url(#baf3vlc43)"/><path d="M6.2 12.7v-.02c.01-.18.16-.41.66-.51.2.13.44.2.7.14.5-.09.84-.6.75-1.12a.94.94 0 0 0-1.09-.78c-.5.1-.84.58-.76 1.1a.78.78 0 0 1-.78.5.91.91 0 0 0-.57-.08c-.5.09-.85.6-.75 1.12.09.52.58.87 1.09.78.5-.1.85-.6.75-1.12z" fill="url(#caf3vlc43)"/><ellipse rx=".94" ry=".97" transform="matrix(.98318 -.18266 -.1725 -.98501 9.58 12.51)" fill="url(#daf3vlc43)"/><ellipse rx=".96" ry=".95" transform="matrix(.61985 -.78472 -.76647 -.64228 11.67 11.02)" fill="url(#eaf3vlc43)"/><path d="M9.66 5.74h-.02c-.13.1-.24.34-.07.8.2.1.37.26.45.49a.91.91 0 0 1-.48 1.17.87.87 0 0 1-1.14-.5.91.91 0 0 1 .46-1.16c.1-.14.25-.5 0-.88a.91.91 0 0 1 .15-1.6.87.87 0 0 1 1.13.5.91.91 0 0 1-.48 1.18z" fill="url(#faf3vlc43)"/><defs><linearGradient id="aaf3vlc43" x1="8.21" y1="9.39" x2="4.54" y2="7.47" gradientUnits="userSpaceOnUse"><stop stop-color="#F6B932"/><stop offset=".49" stop-color="#AC122D"/><stop offset=".71" stop-color="#D12331"/><stop offset=".95" stop-color="#860026"/></linearGradient><linearGradient id="baf3vlc43" x1="10.8" y1="9.56" x2="14.09" y2="7.02" gradientUnits="userSpaceOnUse"><stop stop-color="#F6B932"/><stop offset=".49" stop-color="#AC122D"/><stop offset=".71" stop-color="#D12331"/><stop offset=".95" stop-color="#860026"/></linearGradient><linearGradient id="caf3vlc43" x1="8.2" y1="10.57" x2="4.91" y2="13.11" gradientUnits="userSpaceOnUse"><stop stop-color="#F6B932"/><stop offset=".49" stop-color="#AC122D"/><stop offset=".71" stop-color="#D12331"/><stop offset=".95" stop-color="#860026"/></linearGradient><linearGradient id="daf3vlc43" x1=".94" y1="0" x2=".94" y2="1.93" gradientUnits="userSpaceOnUse"><stop stop-color="#860026"/><stop offset="1" stop-color="#FAD960"/></linearGradient><linearGradient id="eaf3vlc43" x1=".96" y1="0" x2=".96" y2="1.9" gradientUnits="userSpaceOnUse"><stop stop-color="#860026"/><stop offset="1" stop-color="#FAD960"/></linearGradient><linearGradient id="faf3vlc43" x1="9.01" y1="8.42" x2="9.46" y2="4.5" gradientUnits="userSpaceOnUse"><stop stop-color="#F6B932"/><stop offset=".49" stop-color="#AC122D"/><stop offset=".71" stop-color="#D12331"/><stop offset=".95" stop-color="#860026"/></linearGradient></defs></svg>