<!-- by TradingView --><svg xmlns="http://www.w3.org/2000/svg" width="18" height="18"><path fill="#F0F3FA" d="M0 0h18v18H0z"/><path d="M9 6a1 1 0 100-2 1 1 0 000 2z" fill="#0075C9"/><path d="M10.8 4.36c.04.15.07.3.07.47 0 .25-.04.34-.13.56C12.04 6 13 7.5 13 9.02c0 1.42-.96 3.09-2.5 3.68V7.6c0-.18-.02-.32-.15-.44-.12-.13-.26-.16-.44-.16H9.5v7a5 5 0 001.3-9.64z" fill="#CADB2B"/><path d="M7.21 4.36a5 5 0 00.44 9.48h.03l.08.03h.02l.08.02.03.01.08.02h.01c.18.04.37.06.52.08V7h-.33a.59.59 0 00-.45.16c-.12.13-.22.27-.22.45v5.1a4.03 4.03 0 11-.28-7.3c-.1-.22-.07-.33-.07-.58 0-.16.02-.32.06-.47z" fill="#0075C9"/></svg>