<!-- by TradingView --><svg xmlns="http://www.w3.org/2000/svg" width="18" height="18" viewBox="0 0 18 18"><path fill="#F0F3FA" d="M0 0h18v18H0z"/><path d="M5.64 4.84c0 .46-.37.84-.82.84A.83.83 0 0 1 4 4.84c0-.46.37-.84.82-.84.45 0 .82.38.82.84ZM4 6.5h1.5V14H4V6.5ZM7 4h2.5v3.56A2.84 2.84 0 0 1 11.8 6.5c1.98.04 3.19 1.68 3.19 3.75 0 2.07-1.03 3.8-3.19 3.75A3.06 3.06 0 0 1 9.5 13V14H7V4Zm4 7.91c.73 0 1.33-.74 1.33-1.65 0-.91-.6-1.65-1.33-1.65-.74 0-1.34.74-1.34 1.65 0 .91.6 1.65 1.34 1.65Z" fill="#2E6BD4"/></svg>