<!-- by TradingView --><svg xmlns="http://www.w3.org/2000/svg" width="56" height="56" viewBox="0 0 56 56"><path fill="#F0F3FA" d="M0 0h56v56H0z"/><path fill="#2E6BD4" d="M4.23 25h1.4v8h-1.4zM34.5 25h3v8h-3zM8 25H6.6v8H8v-5.73a1.9 1.9 0 0 1 3.6.86V33H13v-5.15a2.85 2.85 0 0 0-5-1.87V25Z"/><circle cx="4.92" cy="23.64" r=".92" fill="#2E6BD4"/><path d="M14 26.2V33h1.4v-6.8H17V25h-1.6v-.9c.03-.61.42-.83.65-.86h1.18l.32-1.24h-1.88c-1.39.16-1.7 1.22-1.67 1.73V25h-1.23v1.2H14Z" fill="#2E6BD4"/><path fill-rule="evenodd" d="M20.34 33c2.58.06 3.82-1.8 3.82-4s-1.45-3.96-3.82-4c-2.37-.04-3.81 1.8-3.81 4 0 2.29 1.23 3.93 3.81 4Zm0-1.09c1.62.05 2.4-1.3 2.4-2.91 0-1.6-.91-2.88-2.4-2.91-1.48-.03-2.39 1.3-2.39 2.91 0 1.67.77 2.87 2.4 2.91ZM28 22h-3v11h3v-.87c.58.53 1.38.84 2.41.87 2.43.06 3.59-1.8 3.59-4s-1.36-3.96-3.59-4c-.99-.02-1.8.34-2.41.93V22Zm0 7c0 .98.67 1.77 1.5 1.77S31 29.97 31 29c0-.98-.67-1.77-1.5-1.77S28 28.03 28 29ZM49 22h3v11h-3v-.87c-.58.53-1.38.84-2.41.87-2.43.06-3.59-1.8-3.59-4s1.36-3.96 3.59-4c.99-.02 1.8.34 2.41.93V22Zm0 7c0 .98-.67 1.77-1.5 1.77S46 29.97 46 29c0-.98.67-1.77 1.5-1.77s1.5.8 1.5 1.77Z" fill="#2E6BD4"/><path d="M41 28.43V33h-3v-8h3v1.02c.88-1.49 2.33-1.04 3-.58-.6.57-1 1.56-1.12 1.98-1.02-.25-1.6.35-1.88 1.01Z" fill="#2E6BD4"/><circle cx="36" cy="23" r="1.5" fill="#F77930"/></svg>