<!-- by TradingView --><svg xmlns="http://www.w3.org/2000/svg" width="56" height="56" viewBox="0 0 56 56"><path fill="#2A2F4B" d="M0 0h56v56H0z"/><path d="M38.93 26.8a1.28 1.28 0 0 0 1.65-.26V27h.83v-4.6h-.83v2.04a1.16 1.16 0 0 0-.41-.32 1.27 1.27 0 0 0-.54-.12 1.32 1.32 0 0 0-1.2.73c-.12.23-.18.49-.18.77 0 .3.06.55.18.78.13.22.29.4.5.53Zm1.31-.62a.73.73 0 0 1-.38.1.73.73 0 0 1-.38-.1.68.68 0 0 1-.27-.27.85.85 0 0 1-.09-.4c0-.15.03-.29.1-.4a.71.71 0 0 1 .64-.38.72.72 0 0 1 .65.37c.06.12.1.25.1.4 0 .16-.04.29-.1.4a.71.71 0 0 1-.27.28ZM18.78 22.5 17 27h.94l.38-1h1.74l.38 1h.94l-1.79-4.5h-.8Zm.99 2.7H18.6l.58-1.5.58 1.5Zm7.1-2.7L25.1 27h.94l.38-1h1.74l.38 1h.94l-1.79-4.5h-.8Zm.99 2.7H26.7l.58-1.5.58 1.5ZM22 27.01v-4.5h2.47v.78h-1.6v1.08h1.54v.78h-1.54v1.09h1.6V27H22Zm9-4.51V27h1.58c.29 0 .54-.05.75-.15.22-.1.38-.25.5-.44.11-.18.17-.4.17-.67 0-.31-.08-.56-.25-.76-.16-.19-.4-.3-.7-.36.37-.2.56-.52.56-.99 0-.37-.12-.65-.36-.84-.24-.2-.57-.29-1-.29H31Zm1.06 1.82h-.2v-1.14h.2c.24 0 .42.05.54.15.12.09.18.23.18.42 0 .18-.06.32-.18.42-.13.1-.3.15-.54.15Zm.22 2h-.42v-1.24h.42c.27 0 .47.06.6.16.15.11.22.27.22.47 0 .2-.07.35-.2.45-.14.1-.35.15-.62.15Zm2.12.68v-3h.83v.5c.1-.15.23-.28.38-.37.14-.09.3-.13.48-.13.1 0 .2.02.3.05.1.03.19.07.26.11l-.35.74a.78.78 0 0 0-.44-.14.58.58 0 0 0-.3.08.7.7 0 0 0-.24.23c-.06.1-.09.2-.09.3V27h-.83Zm10.15 4v3h.83v-1.62c0-.11.03-.21.09-.3a.7.7 0 0 1 .23-.24c.1-.05.2-.08.3-.08a.78.78 0 0 1 .45.14l.35-.74a1.04 1.04 0 0 0-.27-.11.92.92 0 0 0-.78.09c-.14.08-.27.2-.37.37V31h-.83Zm-7.13-7.34a.47.47 0 0 1-.24-.06.52.52 0 0 1-.18-.18.48.48 0 0 1 0-.5c.04-.07.1-.13.18-.17a.47.47 0 0 1 .24-.07c.1 0 .17.03.25.07.07.04.13.1.18.18.04.07.06.15.06.24 0 .1-.02.18-.06.25a.48.48 0 0 1-.42.24ZM37 27v-3h.84v3H37Zm6.38 1.43a1.9 1.9 0 0 1-.93-.2 1.25 1.25 0 0 1-.56-.62l.68-.33a.8.8 0 0 0 .33.3 1.02 1.02 0 0 0 .9.03.7.7 0 0 0 .27-.27c.06-.11.1-.25.1-.4v-.4a1.27 1.27 0 0 1-1.66.27c-.2-.12-.37-.3-.49-.53a1.62 1.62 0 0 1-.18-.78c0-.28.06-.54.18-.77a1.31 1.31 0 0 1 1.2-.73c.2 0 .37.04.54.11.16.08.3.19.4.32V24H45v3c0 .27-.06.52-.18.74-.12.21-.3.38-.53.5-.24.13-.54.2-.9.2Zm.07-2.15a.72.72 0 0 0 .65-.38c.06-.11.09-.24.09-.4a.82.82 0 0 0-.1-.4.71.71 0 0 0-.64-.38.7.7 0 0 0-.64.38.82.82 0 0 0-.1.4c0 .16.03.29.1.4a.71.71 0 0 0 .64.38Zm2.74.52c.24.13.5.2.8.2.3 0 .56-.06.8-.2.24-.12.42-.3.55-.53l-.6-.3c-.1.12-.2.21-.32.27a.8.8 0 0 1-.38.09.86.86 0 0 1-.4-.1.66.66 0 0 1-.27-.24.71.71 0 0 1-.1-.38h2.12l.01-.1v-.06c0-.29-.06-.54-.18-.76a1.3 1.3 0 0 0-.5-.5 1.52 1.52 0 0 0-.76-.19 1.55 1.55 0 0 0-1.1.43 1.46 1.46 0 0 0-.43 1.07 1.45 1.45 0 0 0 .76 1.3Zm1.4-1.66H46.3c.02-.1.05-.2.1-.28a.55.55 0 0 1 .23-.18c.1-.04.2-.07.32-.07a.7.7 0 0 1 .3.07.59.59 0 0 1 .34.46Zm2.2 1.86c-.24 0-.45-.04-.63-.11a1.16 1.16 0 0 1-.46-.33l.35-.57c.11.12.23.22.36.28.12.07.25.1.38.1.07 0 .13 0 .18-.03a.28.28 0 0 0 .16-.27.24.24 0 0 0-.06-.17.59.59 0 0 0-.18-.12 8.46 8.46 0 0 0-.32-.14l-.32-.16a.77.77 0 0 1-.25-.23.62.62 0 0 1-.1-.36c0-.17.05-.33.14-.46.1-.13.23-.24.4-.32a1.56 1.56 0 0 1 1.01-.05c.15.05.31.11.48.2l-.28.54a1.17 1.17 0 0 0-.62-.23.4.4 0 0 0-.25.07c-.06.05-.1.1-.1.18 0 .06.04.12.1.17a1 1 0 0 0 .24.13l.25.1h.01c.14.05.27.11.37.17.1.07.2.15.25.25.07.1.1.23.1.4 0 .2-.05.38-.15.52a.9.9 0 0 1-.41.33c-.19.07-.4.11-.65.11ZM17 29.5V34h.87v-4.5H17Zm1.64 4.5v-3h.83v.41c.13-.14.27-.24.4-.31s.28-.1.44-.1c.21 0 .4.05.57.15.17.1.3.24.37.4.14-.18.28-.32.44-.41a1 1 0 0 1 .52-.14c.2 0 .38.04.53.13.16.09.28.21.37.37.1.16.13.35.13.57V34h-.82v-1.7a.66.66 0 0 0-.14-.44.47.47 0 0 0-.38-.16c-.1 0-.2.02-.28.07a.52.52 0 0 0-.2.18.52.52 0 0 0-.06.27V34h-.83v-1.71a.64.64 0 0 0-.14-.43.47.47 0 0 0-.37-.16c-.11 0-.2.02-.29.07a.5.5 0 0 0-.2.19.53.53 0 0 0-.06.27V34h-.83ZM24 31v4.4h.83v-1.85a1.21 1.21 0 0 0 .97.45c.26 0 .5-.06.7-.2.2-.12.36-.3.48-.53.12-.22.18-.48.18-.77 0-.28-.06-.54-.18-.77-.12-.22-.28-.4-.5-.53a1.3 1.3 0 0 0-.7-.2c-.2 0-.37.04-.53.11-.17.08-.3.19-.42.32V31H24Zm1.93 2.19a.73.73 0 0 1-.38.1.7.7 0 0 1-.64-.38.84.84 0 0 1-.1-.4c0-.16.03-.3.1-.4a.73.73 0 0 1 1.28 0c.07.11.1.25.1.4 0 .15-.03.28-.1.4a.7.7 0 0 1-.26.28ZM47 35.4V31h.83v.43c.11-.13.25-.24.42-.32.16-.07.34-.11.53-.11.27 0 .5.07.7.2.22.13.38.3.5.53.12.23.18.49.18.77 0 .29-.06.55-.18.77a1.26 1.26 0 0 1-1.18.73 1.21 1.21 0 0 1-.97-.45v1.85H47Zm1.55-2.11a.7.7 0 0 0 .64-.38c.07-.12.1-.25.1-.4a.82.82 0 0 0-.1-.4.7.7 0 0 0-.64-.38.72.72 0 0 0-.64.37.84.84 0 0 0-.1.4c0 .16.03.3.1.41a.7.7 0 0 0 .64.38Zm-20.39.52a1.28 1.28 0 0 0 1.66-.27V34h.83v-3h-.83v.43a1.1 1.1 0 0 0-.42-.32 1.33 1.33 0 0 0-.55-.11c-.26 0-.5.07-.7.2-.2.13-.37.3-.49.53-.11.23-.17.48-.17.77 0 .29.06.54.18.77.12.23.28.4.5.54Zm1.32-.63a.72.72 0 0 1-.38.1.71.71 0 0 1-.65-.38.82.82 0 0 1-.1-.4c0-.15.04-.28.1-.4a.72.72 0 0 1 .65-.38c.14 0 .27.03.38.1.11.07.2.16.26.28.06.12.1.25.1.4 0 .15-.04.28-.1.4a.7.7 0 0 1-.26.28Zm3.06.82A1.53 1.53 0 0 1 31 32.5a1.44 1.44 0 0 1 .44-1.05 1.53 1.53 0 0 1 1.1-.45c.18 0 .35.03.51.08.17.05.3.12.4.2l-.28.57a.81.81 0 0 0-.5-.15.74.74 0 0 0-.7.42.88.88 0 0 0 0 .79c.06.12.16.22.28.29.12.07.26.1.42.1a.9.9 0 0 0 .5-.14l.28.56a1.63 1.63 0 0 1-.9.28Zm1.7-.27a.8.8 0 0 0 .64.27 1.36 1.36 0 0 0 .65-.17l-.2-.68a.4.4 0 0 1-.25.09.21.21 0 0 1-.18-.09.41.41 0 0 1-.07-.24v-1.25h.61V31h-.6v-1H34v1h-.36v.66H34v1.31c0 .33.09.58.24.76Zm5.09.27a2.35 2.35 0 0 1-2.15-1.37 2.13 2.13 0 0 1-.18-.88 2.15 2.15 0 0 1 .68-1.6 2.34 2.34 0 0 1 1.65-.65 2.43 2.43 0 0 1 1.34.4l-.36.73c-.11-.1-.25-.16-.42-.22a1.69 1.69 0 0 0-1.1.03 1.42 1.42 0 0 0-.78.75 1.4 1.4 0 0 0-.1.56 1.4 1.4 0 0 0 .88 1.3 1.69 1.69 0 0 0 1.1.03c.17-.05.3-.12.42-.21l.36.72a2.29 2.29 0 0 1-1.35.41Zm2.47-.2c.24.14.52.2.82.2.3 0 .58-.06.83-.2a1.43 1.43 0 0 0 .8-1.3 1.42 1.42 0 0 0-.8-1.3c-.25-.14-.52-.2-.83-.2-.3 0-.58.06-.82.2-.25.12-.44.3-.59.52-.14.23-.21.49-.21.78a1.42 1.42 0 0 0 .8 1.3Zm1.2-.62a.75.75 0 0 1-.38.1.75.75 0 0 1-.65-.38.79.79 0 0 1-.1-.4c0-.15.03-.29.1-.4a.74.74 0 0 1 .65-.38.75.75 0 0 1 .66.38c.06.11.1.25.1.4 0 .15-.04.29-.1.4a.73.73 0 0 1-.28.28Z" fill="#fff"/><path d="M7.59 22.44 6.19 21l-1.08 1.17 3.23 3.33L5.83 28l-.83.8.82.85.28.3 1.96-1.93 2.52-2.49-3-3.09Zm5.11 5.4 2.3-2.26-1.84-1.9-2.55-2.64-.65.7-.44.47a18089 18089 0 0 0 3.24 3.34l-3.34 3.3.55.58.55.57 2.18-2.15Z" fill="#50C5EB"/></svg>