<!-- by TradingView --><svg width="18" height="18" viewBox="0 0 18 18" xmlns="http://www.w3.org/2000/svg"><path fill="#F0F3FA" d="M0 0h18v18H0z"/><path fill-rule="evenodd" d="M9 4a5 5 0 0 1 4.43 2.7c-.03.05-.16.56-1.18.56-1.2 0-1.42-.5-1.42-.5s-.27.06-.27.37c0 .35.52.65 1.55.65.94 0 1.43-.5 1.5-.73a4.99 4.99 0 0 1-9 4.3c.3.06.64.09 1.03.09 1.64 0 2.41-.94 2.41-1.25 0-.32-.3-.5-.3-.5s.05.9-1.87.9c-.8 0-1.34-.13-1.7-.3l-.07-.3c.03-.07.36-.63 1.51-.63 1.22 0 1.68.6 1.68.6.1-.04.17-.1.17-.23 0-.48-1.62-.56-1.9-.54-.37 0-1.22.14-1.54.35A5 5 0 0 1 9 4ZM7.5 8.11s.29.62 1.82.62 1.5-.73 1.5-.73.23.15.23.38c0 .24-.61 1-1.92 1S7.15 9 7.15 8.56c0-.38.35-.45.35-.45Zm1.6-.5c.22 0 1.5.06 1.5.42 0 .1-.04.15-.13.2 0 0-.37-.5-1.34-.5-.98 0-1.22.51-1.22.51s-.16 0-.16-.24c0-.23.97-.4 1.34-.4Zm2.96-1.22c.17 0 1.18.05 1.18.35 0 .08-.04.1-.1.14 0 0-.3-.38-1.05-.38-.76 0-.94.4-.94.4s-.13 0-.13-.18c0-.19.76-.33 1.04-.33Z" fill="#D8223B"/></svg>