<!-- by TradingView --><svg xmlns="http://www.w3.org/2000/svg" width="18" height="18" viewBox="0 0 18 18"><path fill="url(#aqyq5cywb)" d="M0 0h18v18H0z"/><path d="M2 7v3.06c0 .52.32.94.72.94H3V7.93C3 7.43 2.68 7 2.28 7H2zm13.52 0c-.37 0-.59.28-.7.66v.04c-.12.36-.73 2.3-1.82 2.3V7.94c0-.52-.22-.94-.68-.94H12v4h1.15C15.11 11 16 8.37 16 7h-.48zM6 7c.59 0 1.13.3 1.5.77C7.87 7.3 8.41 7 9 7c1.11 0 2 1.07 2 2.38V11h-.3c-.42 0-.7-.42-.7-.93v-.89C10 8.48 9.53 8 9 8s-1 .46-1 1.18V11h-.27c-.42 0-.73-.42-.73-.93v-.89C7 8.58 6.63 8 6 8c-.53 0-1 .58-1 1.18v.9c0 .5-.28.92-.7.92H4V9.38C4 8.07 4.89 7 6 7z" fill="#fff"/><defs><linearGradient id="aqyq5cywb" x1="4.31" y1="1.69" x2="12.36" y2="15.66" gradientUnits="userSpaceOnUse"><stop stop-color="#A03C90"/><stop offset="1" stop-color="#973087"/></linearGradient></defs></svg>