<!-- by TradingView --><svg xmlns="http://www.w3.org/2000/svg" width="56" height="56" viewBox="0 0 56 56"><path fill="url(#ajrit2rhm)" d="M0 0h56v56H0z"/><path d="M7 22v9.19A2.85 2.85 0 0 0 9.88 34H11V24.81A2.85 2.85 0 0 0 8.12 22H7zm41.44 0c-1.2 0-2.23.83-2.57 1.98V24h-.01l-.19.55c-.86 2.56-1.86 5.55-4.67 5.55V24.8c0-1.55-1.46-2.81-2.95-2.81H37v12h3.74C47.12 34 50 26.11 50 22h-1.56zm-29.53 0c2.01 0 3.83.9 5.09 2.32A6.8 6.8 0 0 1 29.09 22C32.9 22 36 25.2 36 29.14V34h-1.02C33.53 34 32 32.75 32 31.21v-2.66c0-2.12-1.2-3.55-3-3.55s-3 1.39-3 3.55V34h-1.2a2.86 2.86 0 0 1-2.8-2.79v-2.66c0-1.8-.84-3.55-3-3.55-1.8 0-3 1.74-3 3.55v2.66c0 1.54-1.53 2.79-2.98 2.79H12v-4.86C12 25.2 15.1 22 18.91 22z" fill="#fff"/><defs><linearGradient id="ajrit2rhm" x1="10.56" y1="4.87" x2="35.91" y2="53.45" gradientUnits="userSpaceOnUse"><stop stop-color="#A13D91"/><stop offset="1" stop-color="#973087"/></linearGradient></defs></svg>