<!-- by TradingView --><svg xmlns="http://www.w3.org/2000/svg" width="18" height="18"><path fill="#E75524" d="M0 0h18v18H0z"/><path d="M10.85 4c-.8-.03-1 .2-.99.32 0 .13.26.16.43.18 2.16.3 2.47 1.87 2.38 2.69-.45 3.84-4 4.81-5.07 4.81-.83 0-2.38-.15-2.27-2.03.1-1.55 1.54-2.78 2.27-3.21l-.32-.4a6.74 6.74 0 012.35-.1A6.89 6.89 0 008.51 8.1l-.3-.52c-2.17 1.72-.93 3 0 3 1.42 0 3.62-2.12 3.46-3.92-.16-1.7-1.5-1.96-2.32-1.9-2.7.18-5.52 3.57-5.34 6.5C4.15 13.57 5.92 14 7.02 14c3.61 0 7.03-3.95 6.98-6.93-.05-2.57-2.15-3.03-3.15-3.07z" fill="#fff"/></svg>