<!-- by TradingView --><svg xmlns="http://www.w3.org/2000/svg" width="56" height="56"><path fill="#E75524" d="M0 0h56v56H0z"/><path d="M33.54 12c-2.4-.08-2.97.65-2.96 1.02 0 .43.77.51 1.3.6 6.47.96 7.4 5.96 7.12 8.58C37.65 34.5 27 38 23.8 38c-2.48 0-7.13-.9-6.8-6.91.27-4.94 4.6-8.9 6.8-10.27l-.96-1.25c2.55-.72 5.77-.5 7.06-.31-1.26 1.23-2.77 4.39-3.37 5.81l-.89-1.63c-6.52 5.5-2.8 9.56 0 9.56C29.9 33 36.49 26.24 36 20.48c-.46-5.46-4.51-6.26-6.94-6.08-8.1.58-16.56 11.42-16.04 20.77.42 7.49 5.75 8.83 9.05 8.83C32.89 44 43.17 31.35 43 21.81c-.15-8.2-6.46-9.7-9.46-9.8z" fill="#fff"/></svg>