<!-- by TradingView --><svg xmlns="http://www.w3.org/2000/svg" width="56" height="56" viewBox="0 0 56 56"><path fill="#F0F3FA" d="M0 0h56v56H0z"/><path d="M35.12 22.82c.32-.12.57-.29.75-.5v-1.94H34v.73h.9v.84c-.16.16-.43.24-.8.24a.96.96 0 0 1-.82-.39 1.96 1.96 0 0 1-.28-1.15v-.31c0-.51.09-.9.26-1.15a.86.86 0 0 1 .76-.38.9.9 0 0 1 .6.2c.16.12.26.33.3.6h.95a1.78 1.78 0 0 0-.56-1.2 1.94 1.94 0 0 0-1.32-.41c-.4 0-.76.1-1.06.28-.3.2-.53.46-.69.82-.16.35-.24.77-.24 1.26v.33c0 .47.1.88.26 1.23a1.85 1.85 0 0 0 1.8 1.08c.39 0 .74-.06 1.06-.18zm-3.5 6.73c.35-.3.54-.71.58-1.24h-1c-.05.59-.57.69-.96.69-.4 0-1-.28-1-1.34v-.36c0-1.02.55-1.3 1-1.3.36 0 .91.09.96.72h1a1.85 1.85 0 0 0-.59-1.27 2 2 0 0 0-1.36-.45 1.85 1.85 0 0 0-1.78 1.1 2.9 2.9 0 0 0-.25 1.24v.3c0 .73.18 1.31.54 1.73.36.42.85.63 1.48.63.57 0 1.03-.15 1.38-.45zM11.03 36H9.34l-.32 1H8l1.74-5h.89l1.75 5h-1.03l-.32-1zm-1.38-1h1.08l-.55-1.74L9.65 35zm11.14.78A3 3 0 0 0 21 34.6v-.22c0-.47-.08-.9-.25-1.25A1.88 1.88 0 0 0 19 32a1.9 1.9 0 0 0-1.75 1.13c-.17.36-.25.78-.25 1.25v.24c0 .47.09.88.25 1.24A1.93 1.93 0 0 0 19 37c.1 0 .18-.02.26-.04l.1-.02 1 .86.62-.6-.78-.62c.25-.2.45-.47.59-.8zM19 33c.84 0 1 .71 1 1.38v.23c0 .66-.16 1.39-1 1.39-.83 0-1-.74-1-1.4v-.24c0-.66.17-1.36 1-1.36zm6-1v3.25c0 .54-.16.97-.47 1.28-.31.31-.74.47-1.28.47-.53 0-.96-.15-1.27-.46a1.7 1.7 0 0 1-.48-1.25V32h1v3.07c0 .32.01.56.15.7a.8.8 0 0 0 .6.23c.53 0 .74-.3.75-.9V32h1zm5.05 3.22c.13.1.19.25.19.44 0 .17-.06.3-.2.4-.12.1-.3.15-.53.15-.61 0-.92-.27-.92-.8h-.97c0 .3.08.58.23.82.16.24.39.43.68.57.3.13.62.2.98.2.52 0 .93-.12 1.24-.36.3-.24.46-.57.46-.99 0-.38-.13-.7-.38-.95a2.88 2.88 0 0 0-1.2-.64c-.3-.1-.52-.2-.67-.3a.5.5 0 0 1-.03-.8c.13-.1.3-.16.54-.16a.8.8 0 0 1 .57.19c.14.12.2.3.2.51h.97a1.43 1.43 0 0 0-.83-1.3 2.24 2.24 0 0 0-1.79-.02 1.4 1.4 0 0 0-.61.48c-.14.2-.21.44-.21.7 0 .5.26.9.8 1.2.19.12.45.23.79.34.33.11.56.22.69.32zm13.2.65c.17-.36.25-.78.25-1.26v-.22c0-.47-.08-.9-.25-1.26A1.88 1.88 0 0 0 41.5 32c-.4 0-.74.1-1.05.3-.3.19-.53.47-.7.83-.17.37-.25.79-.25 1.27v.24c0 .46.09.88.25 1.24.17.36.4.64.71.83.31.2.66.29 1.05.29s.74-.1 1.04-.3c.3-.19.54-.47.7-.83zM41.5 33c.84 0 1 .72 1 1.39v.24c0 .66-.16 1.37-1 1.37-.83 0-1-.72-1-1.39v-.24c0-.66.17-1.37 1-1.37zm-24.94 2.31c-.03.53-.23.94-.58 1.24-.35.3-.81.45-1.38.45-.63 0-1.12-.2-1.48-.63-.36-.42-.54-1-.54-1.73v-.3c0-.47.08-.88.25-1.23A1.85 1.85 0 0 1 14.6 32a2 2 0 0 1 1.36.45c.35.3.55.72.6 1.27h-1c-.06-.63-.6-.72-.96-.72-.45 0-1 .28-1 1.3v.36c0 1.06.59 1.34.99 1.34s.91-.1.96-.69h1zM22 25v5h1.51c.43 0 .81-.1 1.15-.3.35-.2.6-.48.8-.84.18-.37.28-.78.28-1.24v-.23c0-.47-.1-.88-.29-1.25a2.03 2.03 0 0 0-.8-.84c-.33-.2-.72-.3-1.15-.3H22zm1 4v-3h.5c.8 0 1.22.36 1.22 1.38v.27c-.01.98-.44 1.35-1.23 1.35H23zm-9.72-4l1.22 3.63L15.71 25H17v5h-1v-3.34L14.83 30h-.67L13 26.66V30h-1v-5h1.28zM27 22h2v1h-3v-5h1v4zm-1.38 0h-2v-4h-1v5h3v-1zm-3.93-1H20v1h2v1h-3v-5h3v1h-2v1h1.7v1zM41 28h1.7v-1H41v-1h2v-1h-3v5h3v-1h-2v-1zm-20.3 0H19v1h2v1h-3v-5h3v1h-2v1h1.7v1zm16.72-7h1.69v-1h-1.7v-1h2v-1h-3v5h3v-1h-2v-1zm-18.99-2H17v4h-1v-4h-1.42v-1h3.85v1zm28.14 0H48v-1h-3.86v1h1.43v4h1v-4zM37.5 33H36v4h-1v-4h-1.5v-1h4v1zM12.99 23H14v-5h-1v3.3L11.01 18H10v5h1v-3.29L12.99 23zM39 30h-1.01L36 26.71V30h-1v-5h1.01L38 28.3V25h1v5zm7.99 7H48v-5h-1v3.3L45.01 32H44v5h1v-3.29L46.99 37zM44 23h-1.01L41 19.71V23h-1v-5h1.01L43 21.3V18h1v5zM8 23h1v-5H8v5zm19.5 7h-1v-5h1v5zm2.5-7h1v-5h-1v5zm4 7h-1v-5h1v5zm-8 7h1v-5h-1v5zm7 0h-1v-5h1v5zm5 0h1v-5h-1v5z"/></svg>