<!-- by TradingView --><svg xmlns="http://www.w3.org/2000/svg" width="18" height="18" viewBox="0 0 18 18"><path fill="#0110A1" d="M0 0h18v18H0z"/><path d="M7 5H5v1.54h2V5ZM5 7h2v2c0 .38-.17.92-.77 1.08.6.1.77.56.77 1.08V13H5v-1.79c0-.32-.32-.48-.7-.48V9.49c.38 0 .7-.17.7-.49V7ZM13.94 7.46C13.9 5.72 12.77 5 10.92 5c-1.6 0-2.8.76-2.8 2.27 0 1.35.86 2 2.05 2.43.32.12.86.34 1.15.55.48.34.18.9-.4.9-.64 0-.8-.6-.8-.92H8c-.09.97.37 2.77 2.91 2.77 2.55 0 3.11-1.64 3.08-2.54 0-1.48-1.27-2-2.4-2.47l-.35-.14a4.16 4.16 0 0 0-.13-.05c-.16-.06-.33-.13-.44-.26-.27-.3-.15-1 .4-1 .46 0 .68.31.7.92h2.16Z" fill="#fff"/></svg>