<!-- by TradingView --><svg xmlns="http://www.w3.org/2000/svg" width="56" height="56" viewBox="0 0 56 56"><path fill="#0110A1" d="M0 0h56v56H0z"/><path d="M22 15h-7v5h7v-5Zm-7 7h7v6c0 1.23-.88 2.98-2.8 3.5 1.92.36 2.8 1.83 2.8 3.51V41h-7v-5.81c0-1.05-.77-1.58-2-1.58v-4.03c1.23 0 2-.53 2-1.58v-6ZM42.82 23c-.18-5.66-3.7-8-9.56-8-5.05 0-8.89 2.48-8.89 7.39 0 4.38 2.74 6.49 6.5 7.89a17.8 17.8 0 0 1 3.66 1.78c1.49 1.12.55 2.94-1.27 2.94-2.05 0-2.56-1.95-2.56-3h-6.67c-.28 3.16 1.16 9 9.23 9 8.06 0 9.85-5.34 9.73-8.27 0-4.8-4.02-6.5-7.6-8l-1.1-.47-.4-.16a3.6 3.6 0 0 1-1.42-.83c-.84-.97-.46-3.3 1.3-3.27 1.45 0 2.13 1.03 2.21 3h6.84Z" fill="#fff"/></svg>