<!-- by TradingView --><svg xmlns="http://www.w3.org/2000/svg" width="18" height="18" viewBox="0 0 18 18"><path fill="url(#asxi0lgdn)" d="M0 0h18v18H0z"/><circle cx="12" cy="5" r="1" fill="#00BB8E"/><path fill-rule="evenodd" d="M12 9.1a.6.6 0 1 0 0-1.2.6.6 0 0 0 0 1.2Zm0 .4a1 1 0 1 0 0-2 1 1 0 0 0 0 2ZM12 12.6a.6.6 0 1 0 0-1.2.6.6 0 0 0 0 1.2Zm0 .4a1 1 0 1 0 0-2 1 1 0 0 0 0 2ZM9 9.1a.6.6 0 1 0 0-1.2.6.6 0 0 0 0 1.2Zm0 .4a1 1 0 1 0 0-2 1 1 0 0 0 0 2ZM9 12.6a.6.6 0 1 0 0-1.2.6.6 0 0 0 0 1.2Zm0 .4a1 1 0 1 0 0-2 1 1 0 0 0 0 2ZM6 12.6a.6.6 0 1 0 0-1.2.6.6 0 0 0 0 1.2Zm0 .4a1 1 0 1 0 0-2 1 1 0 0 0 0 2Z" fill="#fff"/><defs><linearGradient id="asxi0lgdn" x1="3.35" y1="3.12" x2="21.9" y2="24.43" gradientUnits="userSpaceOnUse"><stop stop-color="#1A1E21"/><stop offset="1" stop-color="#06060A"/></linearGradient></defs></svg>