<!-- by TradingView --><svg xmlns="http://www.w3.org/2000/svg" width="56" height="56" viewBox="0 0 56 56"><path fill="url(#alw0c3knd)" d="M0 0h56v56H0z"/><circle cx="36.5" cy="16.5" r="3.5" fill="#00BB8E"/><path fill-rule="evenodd" d="M36.5 29a2.5 2.5 0 1 0 0-5 2.5 2.5 0 0 0 0 5Zm0 1a3.5 3.5 0 1 0 0-7 3.5 3.5 0 0 0 0 7ZM36.5 39a2.5 2.5 0 1 0 0-5 2.5 2.5 0 0 0 0 5Zm0 1a3.5 3.5 0 1 0 0-7 3.5 3.5 0 0 0 0 7ZM26.5 29a2.5 2.5 0 1 0 0-5 2.5 2.5 0 0 0 0 5Zm0 1a3.5 3.5 0 1 0 0-7 3.5 3.5 0 0 0 0 7ZM26.5 39a2.5 2.5 0 1 0 0-5 2.5 2.5 0 0 0 0 5Zm0 1a3.5 3.5 0 1 0 0-7 3.5 3.5 0 0 0 0 7ZM16.5 39a2.5 2.5 0 1 0 0-5 2.5 2.5 0 0 0 0 5Zm0 1a3.5 3.5 0 1 0 0-7 3.5 3.5 0 0 0 0 7Z" fill="#fff"/><defs><linearGradient id="alw0c3knd" x1="10.42" y1="9.71" x2="68.15" y2="76.02" gradientUnits="userSpaceOnUse"><stop stop-color="#1A1E21"/><stop offset="1" stop-color="#06060A"/></linearGradient></defs></svg>