<!-- by TradingView --><svg xmlns="http://www.w3.org/2000/svg" width="18" height="18" viewBox="0 0 18 18"><path fill="#F0F3FA" d="M0 0h18v18H0z"/><path fill-rule="evenodd" d="M8.58 13.09c3.3 1.04 6.17.04 6.4-2.21.24-2.26-2.25-4.93-5.56-5.97-3.3-1.04-6.17-.04-6.4 2.21-.24 2.26 2.25 4.93 5.56 5.97zm-4.5-5.44a1.75 1.75 0 0 1 1.28-1.67c1.05-.34 3.2 0 4.16.25a6.52 6.52 0 0 0-3.89-.76c-1.52.28-1.67 1.57-1.56 2.18zm9.7 2.25c.08.75-.19 1.7-1.66 2.11-1.1.32-2.98-.34-4.44-.86-.5-.18-.94-.33-1.29-.43.92.6 3.58 2.18 5.71 1.83 2.14-.35 1.98-1.93 1.69-2.65zM8 7h2v4H8V7z" fill="#00549F"/></svg>