<!-- by TradingView --><svg xmlns="http://www.w3.org/2000/svg" width="56" height="56" viewBox="0 0 56 56"><path fill="#D25503" d="M0 0h56v56H0z"/><path d="M44 28a16 16 0 1 0-32 0 16 16 0 0 0 32 0Z" fill="#BBBCBE"/><path opacity=".35" d="M36.99 41.24C38.86 38.2 40 33.84 40 29.82 40 21.1 34.63 14 28 14s-12 7.1-12 15.82c0 4.04 1.14 8.38 3.02 11.42A15.92 15.92 0 0 0 28 44c3.33 0 6.43-1.02 8.99-2.76Z" fill="#fff"/><path opacity=".64" d="M16 23c0 4.97 5.37 9 12 9 6.62 0 12-4.03 12-9s-5.37-9-12-9-12 4.03-12 9Z" fill="#fff"/><path d="M37.2 19.78a11.95 11.95 0 0 0-8.28-4c-3.2-.18-6.29.89-8.67 3.03a11.89 11.89 0 0 0-3.9 7.2l-2.17-.06 3.15 5.55 3.94-5.3-2.44-.08a9.5 9.5 0 0 1 9.95-7.9 9.46 9.46 0 0 1 6.58 3.2 9.42 9.42 0 0 1 2.4 6.9 9.5 9.5 0 0 1-3.18 6.58l1.63 1.84a11.94 11.94 0 0 0 4-8.27c.2-3.2-.88-6.3-3.02-8.7Z" fill="url(#afedcvu40)"/><defs><linearGradient id="afedcvu40" x1="20" y1="19.5" x2="36" y2="33.5" gradientUnits="userSpaceOnUse"><stop stop-color="#4C4D4F"/><stop offset="1" stop-color="#1E1C1D"/></linearGradient></defs></svg>