<!-- by TradingView --><svg xmlns="http://www.w3.org/2000/svg" width="56" height="56" viewBox="0 0 56 56"><path fill="#F0F3FA" d="M0 0h56v56H0z"/><path d="M31.64 16A13.5 13.5 0 0 1 43 22a16.09 16.09 0 0 0-14.91-10A16.04 16.04 0 0 0 12 28c0 8.84 7.2 16 16.09 16 2.29 0 4.04-.31 5.91-1.19a11 11 0 0 1-2.36.19A13.6 13.6 0 0 1 18 29.46C18 21.96 24.13 16 31.64 16ZM23 30.93c0-1.84.38-3.7 1.28-5.33a9.13 9.13 0 0 1 8.1-4.6A8.44 8.44 0 0 1 41 29.53c0 2.72-2.05 6.47-5.16 6.47-3.28 0-4.84-1.71-4.84-4.37 0-.77.44-1.88 1-2.6-.77 1.68.03 3.97 2.22 3.97 1.45 0 2.78-1 2.78-3.19 0-1.53-.94-3.81-3.75-3.81-1.13 0-3 .62-4.06 2a5.86 5.86 0 0 0-1.2 3.53C28 35.94 31.89 39 36.07 39c2.64 0 5.16-1.47 6.94-4-1.98 3.52-5.38 6-9.5 6C28.12 41 23 36.69 23 30.93Z" fill="#3DB857"/></svg>