<!-- by TradingView --><svg xmlns="http://www.w3.org/2000/svg" width="18" height="18" viewBox="0 0 18 18"><path fill="#F0F3FA" d="M0 0h18v18H0z"/><path fill-rule="evenodd" d="M7.07 10.6l-.28-.27-.54-.5-.78-.72-.04-.04-.62-.58C4.3 8.01 4 7.35 4 6.62A2.68 2.68 0 0 1 6.72 4c1.5 0 2.73 1.18 2.73 2.62 0 .78-.35 1.47-.9 1.95l-.43-.41a2 2 0 0 0 .69-1.5c0-1.13-.94-2.04-2.09-2.04s-2.08.91-2.08 2.04c0 .67.33 1.26.84 1.63l.09.08 2.2 2.01c.25.25.4.6.4.96 0 .78-.65 1.41-1.45 1.41-.8 0-1.44-.63-1.44-1.4 0-.43.2-.8.5-1.07l.45.45a.77.77 0 0 0-.3.61c0 .44.35.79.8.79a.8.8 0 0 0 .8-.79c0-.23-.11-.44-.27-.58l-.19-.17zm.83-.96l-.12-.12-2-1.8c-.3-.26-.5-.64-.5-1.06 0-.78.65-1.41 1.44-1.41.8 0 1.44.63 1.44 1.4 0 .44-.2.83-.52 1.09l-.45-.45c.2-.14.33-.37.33-.63a.8.8 0 0 0-.8-.79.8.8 0 0 0-.8.79c0 .2.08.37.2.51l.02.03a.8.8 0 0 0 .06.05l.4.37 2.04 1.89c.5.48.8 1.14.8 1.87A2.68 2.68 0 0 1 6.73 14 2.68 2.68 0 0 1 4 11.38c0-.78.35-1.47.9-1.95l.42.41a2 2 0 0 0-.68 1.5c0 1.13.93 2.04 2.08 2.04s2.09-.91 2.09-2.04a2 2 0 0 0-.77-1.57l-.14-.13zm3.85-3.77a.62.62 0 1 0 0-1.24.62.62 0 0 0 0 1.25zm0 .63a1.25 1.25 0 1 0 0-2.5 1.25 1.25 0 0 0 0 2.5zm.63 2.1h-1.26v4.8h1.26V8.6zM10.5 8v6H13V8h-2.5z" fill="#29398F"/></svg>