<!-- by TradingView --><svg width="18" height="18" fill="none" xmlns="http://www.w3.org/2000/svg"><path fill="#F0F3FA" d="M0 0h18v18H0z"/><path d="M7 4.833a.833.833 0 011.667 0v3.004a.833.833 0 01-1.667 0V4.833zM7 13.167a.833.833 0 001.667 0v-3.004a.833.833 0 00-1.667 0v3.004z" fill="#0A2A65"/><path d="M7.837 7a.833.833 0 010 1.667H4.833a.833.833 0 010-1.667h3.004z" fill="#0A2A65"/><path fill-rule="evenodd" clip-rule="evenodd" d="M7.841 8.667h-.008A.833.833 0 017 7.833V7h.833a.833.833 0 01.008 1.667z" fill="#000627"/><path d="M7.837 11a.833.833 0 100-1.667H4.833a.833.833 0 000 1.667h3.004z" fill="#0A2A65"/><path d="M8.667 10.167c0 .46-.373.833-.834.833H7v-.833a.833.833 0 011.667 0z" fill="#000627"/><path d="M9.333 4.833a.833.833 0 011.667 0v3.004a.833.833 0 01-1.667 0V4.833z" fill="#AF2735"/><path d="M9.333 13.167a.833.833 0 001.667 0v-3.004a.833.833 0 00-1.667 0v3.004z" fill="#0A2A65"/><path d="M13.165 7a.835.835 0 110 1.67h-3a.835.835 0 110-1.67h3z" fill="#AF2735"/><path d="M10.124 8.666a.833.833 0 01-.79-.833v-.005A.833.833 0 0110.166 7H11v.833c0 .46-.373.834-.833.834" fill="#821815"/><path d="M10.167 8.667l-.043-.001h.043z" fill="#821815"/><path d="M13.167 11a.833.833 0 000-1.667h-3.004a.833.833 0 000 1.667h3.004z" fill="#0A2A65"/><path d="M10.995 11v-.833a.833.833 0 00-1.667 0v.005a.833.833 0 00.834.828h.833z" fill="#000627"/></svg>