<!-- by TradingView --><svg xmlns="http://www.w3.org/2000/svg" width="18" height="18" viewBox="0 0 18 18"><path fill="#F0F3FA" d="M0 0h18v18H0z"/><path d="M15 11.53a.55.55 0 0 0-.48-.61c-.37-.05-.73-.28-1.11-.7-.37-.4-.7-.92-1.07-1.49l-.07-.1c-.38-.59-.8-1.22-1.3-1.71-.5-.5-1.12-.9-1.91-.92-.92-.03-1.6.34-2.11.86-.5.5-.86 1.16-1.18 1.75l-.04.08c-.32.6-.6 1.12-.96 1.52-.36.4-.75.66-1.27.7-.3.03-.53.3-.5.6.03.3.3.52.6.49a2.95 2.95 0 0 0 2.01-1.08 9.26 9.26 0 0 0 1.14-1.8c.33-.6.63-1.13 1-1.5.34-.35.73-.64 1.28-.62.4.01.77.3 1.16.68a9.5 9.5 0 0 1 1.23 1.66c.35.54.73 1.13 1.16 1.6.46.5 1.04.96 1.8 1.06.3.03.57-.17.62-.47z" fill="#3CFC8F"/><path d="M15 6.47c.04.3-.18.57-.48.61-.37.05-.73.28-1.11.7a12 12 0 0 0-1.07 1.49l-.07.1c-.38.59-.8 1.22-1.3 1.71-.5.5-1.12.9-1.91.92-.92.03-1.6-.34-2.11-.86-.5-.5-.86-1.16-1.18-1.75l-.04-.08c-.32-.6-.6-1.12-.96-1.52-.36-.4-.75-.66-1.27-.7a.55.55 0 0 1-.5-.6c.03-.3.3-.52.6-.49.9.09 1.53.53 2.01 1.08.44.5.77 1.13 1.08 1.68l.06.12c.33.6.63 1.13 1 1.5.34.35.7.64 1.25.62.4-.01.8-.3 1.19-.68.4-.4.75-.93 1.14-1.53l.09-.13c.35-.54.73-1.13 1.16-1.6A2.97 2.97 0 0 1 14.38 6c.3-.03.57.17.62.47z" fill="#02B04E"/></svg>