<!-- by TradingView --><svg xmlns="http://www.w3.org/2000/svg" width="56" height="56" viewBox="0 0 56 56"><path fill="#F0F3FA" d="M0 0h56v56H0z"/><path d="M47.98 36.43c.14-1-.57-1.9-1.59-2.04-1.23-.16-2.41-.92-3.7-2.34a40.04 40.04 0 0 1-3.56-4.94l-.23-.36a34.91 34.91 0 0 0-4.31-5.69c-1.66-1.65-3.74-2.98-6.4-3.06a9.14 9.14 0 0 0-7.03 2.87c-1.65 1.67-2.87 3.87-3.94 5.85l-.13.25c-1.07 1.97-2.02 3.72-3.2 5.07a6.15 6.15 0 0 1-4.22 2.34c-1.01.1-1.76.98-1.66 1.98.1 1 1 1.73 2.01 1.63a9.85 9.85 0 0 0 6.68-3.6 30.87 30.87 0 0 0 3.59-5.6l.2-.37c1.1-2.05 2.1-3.79 3.32-5.03 1.14-1.15 2.44-1.44 4.27-1.39a5.2 5.2 0 0 1 3.88 1.6 31.66 31.66 0 0 1 4.1 5.53c1.18 1.8 2.44 3.76 3.86 5.32 1.55 1.7 3.48 3.2 5.99 3.53a1.84 1.84 0 0 0 2.07-1.55z" fill="#3CFC8F"/><path d="M47.98 19.57c.14 1-.57 1.9-1.59 2.04-1.23.16-2.41.92-3.7 2.34-1.22 1.35-2.33 3.06-3.56 4.94l-.23.36a34.92 34.92 0 0 1-4.31 5.69c-1.66 1.65-3.74 2.98-6.4 3.06a9.14 9.14 0 0 1-7.03-2.87c-1.65-1.67-2.87-3.87-3.94-5.85l-.13-.25c-1.07-1.97-2.02-3.72-3.2-5.07a6.15 6.15 0 0 0-4.22-2.34 1.82 1.82 0 0 1-1.66-1.98c.1-1 1-1.73 2.01-1.63a9.85 9.85 0 0 1 6.68 3.6 30.87 30.87 0 0 1 3.59 5.6l.2.37c1.1 2.05 2.1 3.79 3.32 5.03 1.14 1.15 2.36 1.44 4.19 1.39a5.37 5.37 0 0 0 3.96-1.6 31.66 31.66 0 0 0 4.1-5.53c1.18-1.8 2.44-3.76 3.86-5.32 1.55-1.7 3.48-3.2 5.99-3.53a1.84 1.84 0 0 1 2.07 1.55z" fill="#02B04E"/></svg>