<!-- by TradingView --><svg xmlns="http://www.w3.org/2000/svg" width="56" height="56" viewBox="0 0 56 56"><path fill="#203E7A" d="M0 0h56v56H0z"/><path d="M26.9 10c-1.37-.01-2.11.7-2.31 1.07 1.9-.17 2.88.64 3.56 1.2l.26.21c.55.43 1.36.7 1.7.78.19-1.87-1.5-3.25-3.2-3.26zm3 .16c.76-.02 2.18.36 2.35 1.96.14 1.29-.9 2.04-1.47 2.05l-.89-4.01zm4.53 2.31l-1.6-.6a4.01 4.01 0 0 1-.92 2.17c.73.23 1.37.26 1.6.25l.92-1.82zm.89-.3l-1.51 2.45.83.6 2.23-1.6c-.87-.07-1.4-1-1.55-1.45zm-7 .82c-.4-.32-1.83-1.14-4.38-1.14-3.18 0-5.59 1.77-5.88 3.1a12.91 12.91 0 0 1 8.44-.81c-.14-.38.04-1.15 1.83-1.15zm-3.26 1.66c-3.7 0-11.06 1.33-10.91 6.67.67-1.37 3.73-4.33 10.9-6.67zm3.83 3.98a2.71 2.71 0 0 1-2.05-2.96c.13-2 1.49-2.38 2.15-2.33.37.01 1.17.3 1.41 1.4.02.15 0 .45-.27.48-.26.03-.37-.25-.4-.4 0-.19-.1-.55-.47-.54-.45 0-.84.37-.82 1.29.03.92.27 2.3.45 3.06zm-3.58-3.5h.6v1.69c-1.79.62-2.11 1.03-2.05 1.15.05.04.28.04.85-.3.57-.36.91-.15 1.01 0 .23.37.33 1.36-1.01 2.35-1.34 1-1.53 2.22-1.46 2.7 1.38-1.44 2.35-1.97 2.66-2.05-2.68 3.47-3.2 12.05-3.11 15.91-4.11-3.48-3.26-9.74-2.32-12.44-2.86 2-2.77 6.64-2.37 8.72-1.86-.16-3.24-3.15-3.7-4.63-1.9.69-3.06.4-3.41.18.95-.59 2.92-3.16 4.45-6.36 1.21-2.56 3.93-4.3 5.13-4.85l4.73-2.07zm1.58 5.83c-1.11 1.88-3.29 6.53-3.1 10.07.18 3.54 1.15 4.92 1.68 5.55.27.33.8 1.28.76 2.46-.06 1.47.28 1.96 1.17 1.96.4 0 1.05-2.75.91-3.82-.1-.8-.59-3.14-1.69-6.15-1.38-3.76.45-8.7.77-9.5.33-.8-.23-1.04-.5-.57zm2.35 20.58c1.38-1.66 1.12-3.63-.77-8-1.5-3.48-.85-6.35-.32-7.38l2.89 2.26c-.7 1.45-.18 4.76.16 6.24.19.42.55 2.02.5 5.02a4.44 4.44 0 0 1-3.51 4.4l-.03-.18c-.06-.44-.13-.9 1.08-2.36zm2.7-12.94c-.35.6-.7 2.77.6 6.71 1.62 4.94-.96 8.27-2.73 9.22-1.42.76-.98 1.27-.59 1.43.22.1.99.08 2.3-.68 1.65-.95 5-5.1 3.12-10.72 1.51 1.2 3.4 5.02-1.16 10.72a7.78 7.78 0 0 0 5.16-7.05c0-.86-.06-2.83-.4-3.86.58-.03 1.78-.34 1.92-1.41-1.3.1-4.18 0-5.3-1.24.37-.14 1.15-.54 1.35-1.05-.88.09-2.96-.2-4.28-2.07zm7.44 8.25c.59.78 1.14 2.99-1.36 5.64.52-1.15 1.5-3.87 1.36-5.64zm-8.17-21.4c.18-.28.84-.81 2.04-.64 1.5.21 3.16 2.1 3.27 3.06-.1.07-.43.07-.98-.45.03.27.4.85 1.54 1 .18.1.44.4 0 .75-.45.34-1 .22-1.21.12-.36-.1-1.08-.22-1.04.09l1.04.47.22.46 1.3-1.21c1.03.42 3.2 1.76 3.6 3.77a3.4 3.4 0 0 1-2.21-.2v.73c.13.2.55.69 1.13 1.06l-.17 1.75h-1.03v.5c.07.06.34.23.9.37-.06.25-.31.88-.83 1.38-.2-.18-.72-.46-1.14-.2-.11-.17-.33-.56-.3-.78-.21.26-.74.78-1.14.78-.5 0-.98-.4-.99-1.18l.03-.5c.08-.88.19-2.13-1.2-2.22-.02.07.02.27.36.52.05.1-.07.33-.92.35-1.05.02-1.44.96-.54 2.25.05.14-.02.32-.63 0-.35-.38-1.16-1.16-1.64-1.27-.25-1-.49-3.18.51-3.75.24-.16 1.04-.36 2.4.1 1.34.47 1.81-.18 1.88-.57-.15.02-.57.12-1.12.47a5.72 5.72 0 0 0-2.88-.99c-1.33.06-2.14.78-2.4 2.23-.04 0-.64.25-.94.38.03-1.4.38-4.48 1.48-5.53 1 .47 3.25 1.32 4.13.98-.28-.21-1.08-.7-2-.98.5-.7 1.1-2.28-.52-3.1z" fill="#fff"/></svg>