<!-- by TradingView --><svg xmlns="http://www.w3.org/2000/svg" width="18" height="18" viewBox="0 0 18 18"><path fill="#203E7A" d="M0 0h18v18H0z"/><path d="M8.54 3c-.44 0-.67.24-.74.36.6-.06.91.21 1.13.4l.08.07c.18.14.43.23.54.26C9.61 3.46 9.08 3 8.54 3zm.94.05c.24 0 .7.12.75.66.04.43-.29.68-.47.68l-.28-1.34zm1.44.77l-.5-.2c-.03.34-.21.63-.3.73.23.07.44.08.51.08l.3-.6zm.28-.1l-.48.82.27.2.7-.53c-.27-.03-.44-.33-.49-.49zM9 4c-.13-.1-.59-.38-1.4-.38-1 0-1.76.59-1.85 1.03a3.9 3.9 0 0 1 2.67-.27c-.04-.13.01-.38.58-.38zm-1.04.55c-1.17 0-3.5.44-3.45 2.22.21-.45 1.18-1.44 3.45-2.22zm1.22 1.33c-.24-.06-.7-.33-.65-1 .04-.66.47-.78.68-.77.11 0 .37.1.44.47.01.05 0 .15-.08.16-.08.01-.12-.08-.13-.13 0-.07-.03-.19-.15-.18-.14 0-.26.12-.26.43.01.3.09.76.15 1.02zM8.03 4.7h.2v.56c-.57.21-.68.35-.66.39.02.01.1.01.27-.1.18-.12.3-.05.32 0 .07.12.1.45-.32.78-.42.33-.48.74-.46.9.44-.48.74-.66.84-.68-.85 1.15-1 4.01-.98 5.3-1.3-1.16-1.04-3.25-.74-4.15-.9.67-.88 2.22-.75 2.9-.59-.04-1.02-1.04-1.17-1.53-.6.23-.97.13-1.08.06.3-.2.93-1.06 1.4-2.12A3.72 3.72 0 0 1 6.54 5.4l1.5-.69zm.5 1.94a7.48 7.48 0 0 0-.98 3.36c.06 1.18.37 1.64.53 1.85.09.1.26.43.24.82-.01.49.1.65.37.65.13 0 .34-.91.3-1.27-.04-.26-.2-1.05-.54-2.05-.44-1.25.14-2.9.24-3.17.1-.27-.07-.34-.16-.19zm.75 6.86c.43-.55.35-1.2-.25-2.67a3.23 3.23 0 0 1-.1-2.45l.92.75c-.22.48-.06 1.59.05 2.08.06.14.17.67.15 1.67-.01 1-.74 1.4-1.1 1.47l-.01-.06c-.03-.15-.05-.3.34-.79zm.85-4.3c-.1.19-.22.91.2 2.23.5 1.64-.31 2.75-.87 3.07-.45.25-.31.42-.19.48.07.03.31.02.73-.23.52-.32 1.58-1.7.99-3.57.48.4 1.07 1.67-.37 3.57.5-.16 1.54-.85 1.63-2.35 0-.29-.02-.94-.12-1.29.18 0 .56-.11.6-.47-.4.04-1.32 0-1.67-.41.11-.05.36-.18.42-.35-.27.03-.93-.07-1.35-.69zm2.36 2.74c.19.26.36 1-.43 1.88.16-.38.47-1.3.43-1.88zM9.9 4.82c.06-.1.27-.27.65-.22.47.07 1 .7 1.03 1.02l.18.19c.06.03.14.13 0 .25a.37.37 0 0 1-.38.04c-.12-.04-.35-.08-.33.03l.33.15.07.16.4-.4c.33.13 1.02.58 1.15 1.25-.12.03-.43.07-.7-.07v.25c.04.06.17.23.36.35l-.36 1.33-.82-.06c-.16 0-.3-.14-.31-.4v-.17c.03-.29.07-.7-.37-.73-.01.02 0 .09.11.17.02.04-.02.1-.29.12-.33 0-.46.32-.17.75.01.04 0 .1-.2 0-.11-.13-.37-.39-.52-.43-.08-.33-.15-1.06.16-1.25.08-.05.33-.12.76.04.43.15.57-.06.6-.2a.88.88 0 0 0-.36.16 1.75 1.75 0 0 0-.91-.33c-.42.02-.68.26-.76.75l-.3.12c.01-.46.12-1.49.47-1.84.32.16 1.03.44 1.3.33a2.27 2.27 0 0 0-.62-.33c.16-.23.35-.76-.17-1.03z" fill="#fff"/></svg>