<!-- by TradingView --><svg xmlns="http://www.w3.org/2000/svg" width="18" height="18" viewBox="0 0 18 18"><path fill="#F0F3FA" d="M0 0h18v18H0z"/><path d="M6.33 12h.42l.95-2.73V12H9V6H7.95L6.52 9.7 5.07 6H4v6h1.3V9.27L6.33 12zm7.5-.54c.4-.36.62-.83.66-1.46h-1.24c-.06.64-.46.8-.9.8-.46 0-1.05-.34-1.05-1.6v-.44c.01-1.22.6-1.55 1.1-1.55.4 0 .74.17.86.79h1.24a2.12 2.12 0 0 0-.67-1.46c-.4-.36-.9-.54-1.54-.54-.46 0-.86.11-1.21.34-.35.23-.61.56-.8.99-.19.43-.28.92-.28 1.48v.36c0 .88.2 1.57.6 2.08.41.5.97.75 1.67.75.65 0 1.17-.18 1.56-.54z"/></svg>