<!-- by TradingView --><svg xmlns="http://www.w3.org/2000/svg" width="56" height="56" viewBox="0 0 56 56"><path fill="#F0F3FA" d="M0 0h56v56H0z"/><path fill-rule="evenodd" d="m43.13 22.8.22.4v.02C44.1 24.5 45 26.04 45 28c0 2.03-.9 3.57-1.65 4.8l-.22.37c-.19.33-.36.63-.48.9-.09.26-.17.55-.24.86l-.18.64c-.37 1.38-.85 3.14-2.19 4.48-1.27 1.32-2.94 1.77-4.3 2.13l-.17.05c-.51.09-1.01.23-1.5.42-.26.12-.56.29-.88.47l-.4.23h-.01C31.5 44.1 29.96 45 28 45c-2.03 0-3.57-.9-4.8-1.65l-.34-.2c-.34-.2-.65-.38-.93-.5a9.1 9.1 0 0 0-.85-.24l-.65-.18c-1.38-.37-3.14-.85-4.47-2.18-1.35-1.35-1.79-2.99-2.15-4.35l-.04-.13a7.26 7.26 0 0 0-.42-1.5c-.12-.26-.29-.55-.47-.88l-.23-.4C11.9 31.5 11 29.95 11 28c0-1.97.9-3.57 1.65-4.8l.2-.34c.2-.34.38-.65.5-.93.1-.26.17-.55.25-.86.05-.21.1-.42.17-.64l.03-.11c.37-1.36.8-3.01 2.16-4.36 1.34-1.35 2.99-1.8 4.35-2.16l.13-.03a7.27 7.27 0 0 0 1.5-.42c.25-.12.54-.29.86-.47l.4-.23h.02C24.5 11.9 26.04 11 28 11c2.03 0 3.57.9 4.8 1.65l.37.21c.33.2.63.37.91.49.26.1.55.17.86.25.2.05.42.1.63.17 1.39.37 3.15.85 4.48 2.2 1.35 1.33 1.79 2.98 2.15 4.34l.04.13c.08.5.23 1 .42 1.49.12.26.28.55.47.87ZM29.53 19C28.15 19 21 19 21 20.66c0 1.1 1.95 1.34 3.13 1.34h4.18c1.6 0 2.55 1.46 3.39 2.76.44.68.86 1.32 1.32 1.68.48.36 1.06.56 1.65.56h.12c.56 0 2.21.03 2.21-.56v-.21c-.18-.55-.8-1.07-1.44-1.6-.77-.65-1.56-1.3-1.56-2.05 0-.41.55-.58.88-.58.84 0 1.12-.66 1.12-.97 0-.89-1.5-1.29-2.22-1.48l-.12-.03a17.65 17.65 0 0 0-4.07-.52h-.06Zm-3.06 9.01H27c1 0 2.87-.56 3.01-1.41v-.16c0-.54-.33-.79-.71-1.07l-.07-.05A1.65 1.65 0 0 0 28.1 25h-.32c-1.4 0-3.7-.02-4.31.76-.34.45-.47.63-.47.97 0 .16.1.32.24.47.84.86 2.1.83 3.23.81Zm8.37 8.54c.2-.17.45-.36.78-.55.38-.21.38-1.69.38-2.35 0-.43-.23-.62-.53-.88-.16-.14-.34-.3-.52-.52a.65.65 0 0 0-.47-.25c-.17 0-.33.06-.48.14-.27.16-.45.28-.62.41-.18.13-.36.25-.63.41-.32.21-.64.48-.75.85v1.83c0 .22.11.51.36.62.34.15.58.3.78.43.28.18.48.31.77.31.36 0 .6-.2.93-.45ZM38.26 32c.1 0 .18-.05.23-.1.37-.37.51-.7.51-1.19 0-.88-.2-1.92-1.25-2.71-.53.45-.75 1.4-.75 1.95 0 .45 0 .96.26 1.35.15.23.32.33.53.44l.25.15c.05.06.17.11.22.11Zm-6.47-3.96 1.64.4c.34.1.57.4.57.72v1.17c0 .3-.19.57-.48.69l-2.12.9a.91.91 0 0 1-.58.05l-2.2-.55a.8.8 0 0 1-.62-.8l.08-1a.6.6 0 0 1 .36-.48l2.12-.94a2 2 0 0 1 1.23-.16Z" fill="url(#ahwyydwb4)"/><defs><linearGradient id="ahwyydwb4" x1="5.73" y1="28" x2="53.16" y2="28" gradientUnits="userSpaceOnUse"><stop offset=".08" stop-color="#00CD8F"/><stop offset=".89" stop-color="#00CAD1"/></linearGradient></defs></svg>