<!-- by TradingView --><svg xmlns="http://www.w3.org/2000/svg" width="56" height="56" viewBox="0 0 56 56"><path fill="#F0F3FA" d="M0 0h56v56H0z"/><path d="M14.5 24.63L13.28 21H12v5h1v-3.34L14.16 26h.67L16 22.66V26h1v-5H15.7l-1.21 3.63zm7.5-.32c-.04.53-.24.94-.6 1.24-.34.3-.8.45-1.38.45-.63 0-1.12-.2-1.48-.63-.36-.42-.54-1-.54-1.73v-.3c0-.46.08-.88.25-1.23A1.85 1.85 0 0 1 20.04 21a2 2 0 0 1 1.36.45c.35.3.55.72.6 1.27h-1c-.06-.63-.61-.72-.96-.72-.46 0-1.03.28-1.04 1.3v.36c0 1.06.62 1.34 1.02 1.34s.92-.1.96-.69H22zm7.57.69h-1.69l-.32 1h-1.02l1.74-5h.89l1.74 5H29.9l-.32-1zm-1.38-1h1.07l-.54-1.74L28.2 24zM24 25h2v1h-3v-5h1v4zm13-1h1.7v-1H37v-1h2v-1h-3v5h3v-1h-2v-1zm7 2h-1.01L41 22.71V26h-1v-5h1.01L43 24.3V21h1v5zm-11.55-1.83h.9l.96 1.83h1.14v-.05l-1.11-2.04c.3-.14.54-.32.69-.54.15-.23.23-.52.23-.86 0-.48-.17-.85-.5-1.12a2.2 2.2 0 0 0-1.4-.39h-1.91v5h1v-1.83zm.91-.98h-.91V22h.9c.58 0 .85.2.85.6 0 .38-.3.6-.84.6zM13.4 31.98h-1.7v1h2v1h-3v-5h3v1h-2v1h1.7v1zm4.94.31c-.03.53-.23.94-.58 1.24-.35.3-.81.45-1.39.45-.62 0-1.12-.21-1.48-.63-.36-.42-.54-1-.54-1.73v-.3c0-.47.08-.88.25-1.23a1.85 1.85 0 0 1 1.79-1.11 2 2 0 0 1 1.36.45c.35.3.55.72.6 1.27h-1c-.06-.63-.6-.72-.96-.72-.46 0-1.03.28-1.04 1.3v.36c0 1.06.62 1.34 1.02 1.34s.92-.1.97-.69h1zm29.55-1.04L48.9 29H50l-1.6 3.19V34h-1.02v-1.81L45.78 29h1.1l1.01 2.25zM36 33h-2v-4h-1v5h3v-1zM8.42 30h1.44v-1H6v1h1.42v4h1v-4zm19.34 3.98h-1.01l-1.99-3.29v3.29h-1v-5h1.02l1.98 3.3v-3.3h1v5zm16.97-.16c.35-.12.63-.29.82-.5v-2.1h-2V32h1v.7c-.21.22-.67.3-1.07.3-.74 0-1.17-.58-1.17-1.33v-.31c0-.7.4-1.36 1.17-1.36.57 0 .9.25 1.02.61h1.05a1.72 1.72 0 0 0-.62-1.2 2.29 2.29 0 0 0-1.45-.41c-.45 0-.84.1-1.17.28-.33.2-.58.46-.76.82-.18.35-.26.77-.26 1.26v.33c0 .47.1.88.28 1.23.19.35.45.62.79.8.34.19.74.28 1.2.28.42 0 .81-.06 1.17-.18zM22 34h1v-5h-1v2h-2v-2h-1v5h1v-2h2v2zm10.45-2.39c0 .48-.08.9-.24 1.26-.17.36-.4.64-.7.84-.31.2-.66.29-1.05.29a1.91 1.91 0 0 1-1.75-1.12 2.95 2.95 0 0 1-.26-1.24v-.24c0-.48.08-.9.25-1.27.17-.36.4-.64.7-.84.31-.2.66-.29 1.05-.29a1.88 1.88 0 0 1 1.75 1.13c.17.37.25.79.25 1.26v.22zm-1-.22c0-.67-.16-1.39-1-1.39-.83 0-1 .71-1 1.37v.24c0 .67.17 1.39 1 1.39.84 0 1-.71 1-1.37v-.24zm8.85 1.48c.17-.36.25-.78.25-1.26v-.22c0-.47-.09-.9-.25-1.26A1.88 1.88 0 0 0 38.55 29c-.4 0-.74.1-1.05.3-.3.19-.54.47-.7.83-.17.37-.25.79-.25 1.27v.24c0 .46.09.88.25 1.24.17.36.4.64.71.83.3.2.66.29 1.04.29a1.89 1.89 0 0 0 1.75-1.13zM38.55 30c.84 0 1 .72 1 1.39v.24c0 .66-.16 1.37-1 1.37-.83 0-1-.72-1-1.39v-.24c0-.66.17-1.37 1-1.37z"/></svg>