<!-- by TradingView --><svg xmlns="http://www.w3.org/2000/svg" width="18" height="18" viewBox="0 0 18 18"><path fill="#F0F3FA" d="M0 0h18v18H0z"/><path d="m9.28 3 .63 1s.09.13.09.26c0 .07-.03.15-.09.18-.03.03-.07.05-.11.05-.34 0-.4-.49-1.6-.49-1.94 0-3.7 1.78-3.7 3.88C4.5 10.74 6.11 12 8.2 12c1.6 0 2.96-.6 3.51-1.77.4-.83.37-1.23.52-1.23.27 0 .27 1.63.27 1.63A5.43 5.43 0 0 1 7.75 13C5.38 13 3 11.2 3 8.51c0-1.7.79-3 2.11-4C6.87 3.15 9.28 3 9.28 3Z" fill="#72B4C1"/><path d="m8.72 15-.6-.94S8 13.92 8 13.8c0-.07.06-.15.11-.18.04-.03.07-.05.11-.05.34 0 .37.43 1.58.43 1.94 0 3.7-1.69 3.7-3.88C13.5 7.37 11.89 6 9.8 6c-1.6 0-2.96.6-3.51 1.77C5.89 8.6 5.92 9 5.77 9 5.5 9 5.5 7.37 5.5 7.37A5.43 5.43 0 0 1 10.25 5C12.62 5 15 6.8 15 9.49c0 1.7-.79 3-2.11 4C11.13 14.85 8.72 15 8.72 15Z" fill="#72B4C1"/><circle cx="9" cy="9" r="2" fill="#458A63"/></svg>