<!-- by TradingView --><svg xmlns="http://www.w3.org/2000/svg" width="56" height="56" viewBox="0 0 56 56"><path fill="#F0F3FA" d="M0 0h56v56H0z"/><path d="m28.83 11 2.97 3.6s.2.39.2.74c0 .2-.04.4-.2.51-.1.07-.2.15-.32.15-.96 0-2.27-2-5.7-2C20.27 14 15 17.65 15 24.65 15 32.67 19.84 37 25.78 37c4.57 0 8.42-2.48 9.98-5.76 1.1-2.32 1.05-4.37 1.47-4.37.77 0 .77 5.48.77 5.48-3.22 4.2-7.07 6.65-13.5 6.65C17.77 39 11 33.98 11 26.43c-.01-4.76 2.24-8.38 6-11.22C22 11.44 28.84 11 28.84 11Z" fill="url(#asfrkbgch)"/><path d="m27.17 45-2.94-3.66s-.23-.37-.23-.73c0-.2.07-.4.23-.51.1-.07.2-.1.32-.1.96 0 2.24 2 5.67 2C35.73 42 41 38.35 41 31.35 41 23.33 36.16 19 30.22 19c-4.57 0-8.42 2.48-9.98 5.76-1.1 2.32-1.05 4.24-1.47 4.24-.77 0-.77-5.36-.77-5.36C21.22 19.45 25.07 17 31.5 17 38.23 17 45 22.02 45 29.57c.01 4.76-2.24 8.38-6 11.22C34 44.56 27.16 45 27.16 45Z" fill="url(#bsfrkbgch)"/><circle cx="28" cy="28" r="6" fill="#498D66"/><defs><linearGradient id="asfrkbgch" x1="22.4" y1="27.92" x2="9.11" y2="38.97" gradientUnits="userSpaceOnUse"><stop offset=".45" stop-color="#94C8D4"/><stop offset=".78" stop-color="#98C9D3" stop-opacity="0"/></linearGradient><linearGradient id="bsfrkbgch" x1="33.6" y1="28.08" x2="43.99" y2="14.46" gradientUnits="userSpaceOnUse"><stop offset=".45" stop-color="#94C8D4"/><stop offset=".74" stop-color="#98C9D3" stop-opacity="0"/></linearGradient></defs></svg>