<!-- by TradingView --><svg xmlns="http://www.w3.org/2000/svg" width="18" height="18" viewBox="0 0 18 18"><path fill="#F0F3FA" d="M0 0h18v18H0z"/><path d="M7.44 5H5v3.5H11.94L7.44 5zM5 9v.62L6.77 11H13V9.32L12.57 9V9h-.14v.21c0 .08-.07.15-.14.15a.14.14 0 0 1-.15-.15V9h-.57v.78c0 .08-.06.15-.14.15a.15.15 0 0 1-.14-.15V9h-.58v.21c0 .08-.06.15-.14.15a.14.14 0 0 1-.14-.15V9h-.57v.74c0 .1-.07.19-.15.19-.07 0-.14-.08-.14-.19V9H9v.21c0 .08-.06.15-.14.15a.14.14 0 0 1-.15-.15V9h-.57v.74c0 .1-.06.19-.14.19-.08 0-.14-.08-.14-.19V9h-.57v.21c0 .08-.07.15-.15.15A.14.14 0 0 1 7 9.2V9h-.57v.74c0 .1-.07.19-.14.19-.08 0-.15-.08-.15-.19V9h-.57v.21c0 .08-.06.15-.14.15a.14.14 0 0 1-.14-.15V9H5zm8-.31V5H8.25L13 8.69zm0 2.81H7.42L9.35 13H13v-1.5zM8.54 13L5 10.26V13h3.54z" fill="#EB1C2E"/></svg>