<!-- by TradingView --><svg xmlns="http://www.w3.org/2000/svg" width="18" height="18"><path fill="#F0F3FA" d="M0 0h18v18H0z"/><path d="M5 12.47v-5.2A13.1 13.1 0 017.23 6l3.86 4.72v-5.3c.01-.35.32-.43.45-.42h.57c.31 0 .39.26.39.42v7.11c-.03.43-.23.47-.4.47h-.31a.8.8 0 01-.56-.23L6.4 7v5.47c.02.41-.28.52-.43.53h-.53c-.34-.01-.43-.36-.43-.53z" fill="#1E2C53"/><path d="M13 4a13.9 13.9 0 00-7.97 2.32v.66c2.7-2.14 6.44-2.63 7.97-2.6V4z" fill="url(#ak0ergnxq)"/><defs><linearGradient id="ak0ergnxq" x1="5.03" y1="6.68" x2="18.26" y2="5.36" gradientUnits="userSpaceOnUse"><stop stop-color="#1E2C53"/><stop offset=".33" stop-color="#91AE5E"/><stop offset=".66" stop-color="#91AE5E"/></linearGradient></defs></svg>