<!-- by TradingView --><svg width="18" height="18" fill="none" xmlns="http://www.w3.org/2000/svg"><path fill="#F0F3FA" d="M0 0h18v18H0z"/><path fill-rule="evenodd" clip-rule="evenodd" d="M6.881 3l.177.18c1.826 1.872 2.955 3.895 2.955 5.793 0 1.898-1.129 3.921-2.955 5.792l-.177.18-.176-.18C4.878 12.894 3.75 10.871 3.75 8.973c0-1.898 1.128-3.921 2.955-5.792L6.88 3zm0 .728C5.201 5.504 4.25 7.333 4.25 8.973c0 1.64.952 3.469 2.631 5.244 1.68-1.775 2.632-3.604 2.632-5.244 0-1.64-.952-3.469-2.632-5.245z" fill="url(#paint0_linear_3186)"/><path fill-rule="evenodd" clip-rule="evenodd" d="M8.294 3.054l.176.181c1.827 1.871 2.955 3.894 2.955 5.792 0 1.898-1.128 3.921-2.955 5.792L8.294 15l-.177-.18c-1.826-1.872-2.955-3.895-2.955-5.793 0-1.898 1.129-3.921 2.955-5.792l.177-.18zm0 .729c-1.68 1.775-2.632 3.604-2.632 5.244 0 1.64.952 3.469 2.632 5.245 1.68-1.776 2.631-3.605 2.631-5.245 0-1.64-.952-3.469-2.631-5.244z" fill="url(#paint1_linear_3186)"/><path fill-rule="evenodd" clip-rule="evenodd" d="M9.763 3.054l.176.181c1.827 1.871 2.955 3.894 2.955 5.792 0 1.898-1.128 3.921-2.955 5.792L9.763 15l-.177-.18c-1.826-1.872-2.955-3.895-2.955-5.793 0-1.898 1.129-3.921 2.955-5.792l.177-.18zm0 .729C8.083 5.558 7.13 7.387 7.13 9.027c0 1.64.952 3.469 2.632 5.245 1.68-1.776 2.631-3.605 2.631-5.245 0-1.64-.952-3.469-2.631-5.244z" fill="url(#paint2_linear_3186)"/><path fill-rule="evenodd" clip-rule="evenodd" d="M11.119 3.054l.176.181c1.827 1.871 2.955 3.894 2.955 5.792 0 1.898-1.128 3.921-2.955 5.792L11.12 15l-.177-.18c-1.826-1.872-2.955-3.895-2.955-5.793 0-1.898 1.129-3.921 2.955-5.792l.177-.18zm0 .729c-1.68 1.775-2.632 3.604-2.632 5.244 0 1.64.952 3.469 2.632 5.245 1.68-1.776 2.631-3.605 2.631-5.245 0-1.64-.952-3.469-2.631-5.244z" fill="url(#paint3_linear_3186)"/><defs><linearGradient id="paint0_linear_3186" x1="4.056" y1="8.973" x2="9.819" y2="8.973" gradientUnits="userSpaceOnUse"><stop stop-color="#C5CD2D"/><stop offset="1" stop-color="#FBD106"/></linearGradient><linearGradient id="paint1_linear_3186" x1="5.412" y1="8.809" x2="11.175" y2="8.809" gradientUnits="userSpaceOnUse"><stop stop-color="#11B3AB"/><stop offset=".95" stop-color="#84C44A"/></linearGradient><linearGradient id="paint2_linear_3186" x1="6.881" y1="9.082" x2="12.362" y2="9.082" gradientUnits="userSpaceOnUse"><stop stop-color="#1BA4DB"/><stop offset="1" stop-color="#20B066"/></linearGradient><linearGradient id="paint3_linear_3186" x1="8.237" y1="8.809" x2="14.282" y2="8.751" gradientUnits="userSpaceOnUse"><stop stop-color="#0469AF"/><stop offset="1" stop-color="#008962"/></linearGradient></defs></svg>