<!-- by TradingView --><svg width="56" height="56" viewBox="0 0 56 56" xmlns="http://www.w3.org/2000/svg"><path fill="#005596" d="M0 0h56v56H0z"/><path d="M45.6 32.34c-.93.3-2 .54-2.97.8-.99.26-1.97.52-2.97.8-1.97.54-3.97 1.02-5.94 1.58-.98.28-2 .55-2.97.8-.75.18-2.25.68-3.07.68-.71.02-1 0-1.63-.18l-4.41-1.26c-1.97-.56-3.93-1.13-5.89-1.67-1.15-.32-4.94-1.36-5.8-1.73C8.13 31.4 6.97 29.94 7 28c.01-.88.28-1.74.8-2.46l.46-.52c.41-.41.4-.45 1.03-.83.38-.24.84-.44 1.33-.58 1.96-.58 3.93-1.08 5.88-1.65 2.9-.85 5.9-1.64 8.81-2.48A9.49 9.49 0 0 1 28 19c.57 0 1.19.03 2.08.29l13.25 3.75c.69.2 2.33.63 2.89.88 1.58.7 2.99 1.85 2.99 4 0 2.19-1.6 3.76-3.6 4.42ZM6 28.04c0 .65.08 1.24.25 1.74.23.68.55 1.04.92 1.54l.35.36a6.44 6.44 0 0 0 1.68 1.07c.45.22 1.3.47 1.84.61l5.72 1.66c.25.07.5.16.75.22l5.37 1.56c.84.25 2.94.88 3.82 1.1a3.98 3.98 0 0 0 1.8 0l1.58-.44c.85-.2 2.28-.63 3.19-.88l10.36-2.88c.65-.18 2.66-.7 3.13-.93A5.1 5.1 0 0 0 50 27.85c0-.58-.1-1.26-.26-1.69a4.7 4.7 0 0 0-1.7-2.22c-1.15-.86-2.23-1.04-3.56-1.44-.78-.22-1.55-.46-2.33-.66l-12.41-3.5a7.01 7.01 0 0 0-1.86-.34 6.3 6.3 0 0 0-1.84.38l-1.55.44c-.52.16-1 .28-1.54.43l-3.08.88c-.52.15-1.02.28-1.54.44-.5.15-1.04.28-1.54.44l-4.65 1.31c-1.39.39-2.88.68-3.98 1.47A5.07 5.07 0 0 0 6 28.04Z" fill="#FEDC01"/><path d="M28 29h1.88c.5.06.83.3.83.9 0 .61-.35 1.05-.86 1.1H28v-2Zm0-3c.5 0 1.28-.02 1.73 0 .46.04.75.41.75.96 0 .53-.32.99-.77 1.03L28 28v-2Zm-1 6h2c1.3 0 2.26.06 2.79-1.04.23-.5.29-1.17.09-1.71a1.6 1.6 0 0 0-1.03-.95l.14-.11c.2-.13.3-.26.43-.45a1.8 1.8 0 0 0-.45-2.43c-.5-.34-1.19-.31-1.83-.3L27 25v7ZM22.43 31.17l.02.7-.2-.02v-.02c-.03.1.01-.01-.07-.1-.22-.19-.1-.05-.13-.26l-.09-.14.04-.16h.43Zm.67.63c.12-.01.5-.36.56-.43.14-.19.1-.22.55-.18h.28c-.05.08.01.02-.05.07l-.24.15c-.28.15-.8.4-1.1.4Zm-.56.07v-.7h1.15c-.17.3-.6.66-1.15.7Zm-1.21-.7c.57-.01.24.07.48.39l.16.16a1.39 1.39 0 0 1-.64-.55Zm-.84 0c.85 0 .56-.15 1.03.35.1.1.25.23.39.28-.41 0-1.22-.4-1.42-.63Zm1.96-.99-.02.82h-.46c.05-.06.01.02.08-.03l.09-.06c-.01-.12 0-.07-.08-.14.01 0 .08 0 .08-.02.1-.03.1 0 .17-.22.05-.2-.07-.25.14-.35Zm-1.76-.3h.64c.07.35.14.82.24 1.12-.39 0-.36.07-.51-.22a3.39 3.39 0 0 1-.37-.9ZM23.82 31h-1.27c0-.4-.06-.76.09-1.07l1.48-.04c-.01.13-.08.16-.1.3-.02.17.08.2.07.33 0 .1-.23.38-.27.48Zm.9.02c.04-.12.06-.1.1-.21.16-.34.14.05.15-.42.33-.25.27-.29.28-.5h.3c-.1.36-.62 1-.83 1.13Zm-5.27-1.12 1.16-.01c.1.52.33.7.5 1.11h-.8c-.36-.36-.6-.53-.86-1.1Zm3.1-.92v-.43c.58 0 .18.22.6.45l.51-.03c.18.34.28-.18.25.45.1.08.17.2.17.36h-1.43c-.08-.3.18-.25.11-.58l-.12-.1c-.05-.03-.08-.1-.1-.12Zm-3.4-.43c.25 0 1.08-.04 1.28.03l.12 1.19H19.4c-.17-.22-.25-.86-.27-1.22Zm1.98 1.23h-.46c-.11-.25-.15-.9-.15-1.22h.42c0 .23-.1.19-.13.33-.03.12 0 .1 0 .16-.02.2-.11-.07.15.45.06.1.1.22.17.28Zm4.73-1.22c-.02.41-.08.89-.25 1.2l-.38.02c-.12-.53.42-.47.47-1.16-.44.14-.5-.04.16-.06Zm-5.25-.94.09-.37h.27c0 .27.04.21.1 0h1.37l.01 1.19c-.62 0-.63.07-.85-.16-.39 0-.42-.18-.6.1l-.12-.04c-.12 0-.02.06-.14-.03-.06-.13 0-.16.01-.3-.06-.05-.03-.01-.1-.04l-.09-.05.05-.3Zm1.95.82a7.47 7.47 0 0 1 0-1.2h.71c.06.22.02 0-.13.37-.06.11-.13.1-.23.3-.21.41.16.53-.35.53Zm-2.8-1.2c.15.13.15.38.14.54.12.1.19.2.4.2l.14.13-.01.32-1.26.01c-.08-.29.1-1 .23-1.2h.3c.02.37.08.44.07 0Zm2.7-.11H21.1c.07-.1.13-.11.2-.16.2-.15-.03-.1.37-.37.15-.1.09-.15.3-.13.2-.02.47-1.07.47.66Zm.9-.45c.17.12.15.23 0 .24h-.15l-.01.2h-.65V26h1.2l-.01.02c-.02.1-.1-.04-.05.18.42.06-.19.44-.32.48Zm-4.34 2.2a3.5 3.5 0 1 0 6-2.82c-.09-.07-.14-.16-.23-.23-2.45-2-6.1-.14-5.77 3.05ZM13 32h1v-5c.16.18 2.67 4.44 3 5h1v-7h-1v5c-.89-1.48-2.17-3.47-3-5h-1v7ZM38 32h5v-1h-4v-2h4v-1h-4v-2h4v-1h-5v7ZM33 32h4v-1h-3v-6h-1v7Z" fill="#FEDC01"/></svg>