<!-- by TradingView --><svg xmlns="http://www.w3.org/2000/svg" width="56" height="56" viewBox="0 0 56 56"><path fill="#F0F3FA" d="M0 0h56v56H0z"/><path d="M28 45a17 17 0 0 0 10.7-30.2c-.2.84-.86 1.5-1.7 1.7v18.84a2.19 2.19 0 1 1-3.15 1l-9.53-14.39a1.92 1.92 0 0 1-.76.05l-7.81 14.1a2.6 2.6 0 0 1-.08 3.6C18.77 42.97 23.15 45 28 45Zm-15.26-9.5a2.6 2.6 0 0 1 1.83-.13l7.78-14.03a1.91 1.91 0 1 1 3.09-.21l9.37 14.16a2.18 2.18 0 0 1 1.19-.27v-18.5a2.3 2.3 0 0 1-1.03-4.03 17 17 0 0 0-22.23 23Z" fill="url(#avqvkvgxl)" fill-opacity=".4"/><path d="m26.87 44.96 7.22-6.47c-.1-.15-.2-.32-.27-.49h-17.4a2.6 2.6 0 0 1-.75 1.7c2.85 3.01 6.8 4.97 11.2 5.26Zm1.25.04a16.95 16.95 0 0 0 12.14-5.23l-2.76-1.11a2.18 2.18 0 0 1-2.77.42L28.12 45Zm9.82-7.1 2.94 1.2A16.93 16.93 0 0 0 45 28c0-3.97-1.36-7.62-3.64-10.5L37 34.04v1.29a2.19 2.19 0 0 1 .94 2.56ZM37 31.24l3.8-14.43a17.1 17.1 0 0 0-2.1-2.02c-.2.85-.86 1.5-1.7 1.71v14.74ZM16.28 37h17.14l-14.84-6-2.83 5.1c.23.26.42.56.53.9ZM19 30.23 23.56 22a1.94 1.94 0 0 0 .76-.05l9.44 14.26L19 30.23Zm-1.3-.52L11.04 27c.02-.42.06-.84.12-1.24l11-4.72c.06.1.12.2.2.29L17.7 29.7Zm7.51-10.91a1.9 1.9 0 0 0-3.3 1.41l-10.6 4.55a17 17 0 0 1 23.66-12.27 2.3 2.3 0 0 0-.72 2.43l-9.04 3.88Zm.44.75 9-3.86c.33.42.8.72 1.35.83v18.5a2.2 2.2 0 0 0-1.19.27l-9.37-14.17a1.9 1.9 0 0 0 .2-1.57ZM11 27.92V28c0 2.7.63 5.24 1.74 7.5a2.6 2.6 0 0 1 1.83-.13l2.72-4.9L11 27.92Z" fill="url(#bvqvkvgxl)"/><defs><linearGradient id="avqvkvgxl" x1="45" y1="22.31" x2="15.08" y2="41.88" gradientUnits="userSpaceOnUse"><stop stop-color="#475EAE"/><stop offset="1" stop-color="#0CA2C5"/></linearGradient><linearGradient id="bvqvkvgxl" x1="45" y1="21.26" x2="14.11" y2="41.18" gradientUnits="userSpaceOnUse"><stop offset=".04" stop-color="#3B53A7"/><stop offset=".33" stop-color="#475EAE"/><stop offset="1" stop-color="#0BA1C4"/></linearGradient></defs></svg>