<!-- by TradingView --><svg xmlns="http://www.w3.org/2000/svg" width="18" height="18" viewBox="0 0 18 18"><path fill="#F0F3FA" d="M0 0h18v18H0z"/><path d="M9 15a6 6 0 0 0 3.78-10.66.81.81 0 0 1-.7.62v6.58a.77.77 0 1 1-1.02.4L7.7 6.88a.68.68 0 0 1-.27.01l-2.76 4.98a.91.91 0 0 1-.02 1.27A5.98 5.98 0 0 0 9 15Zm-5.39-3.35a.91.91 0 0 1 .65-.05L7 6.65a.68.68 0 1 1 1.09-.07l3.31 5a.77.77 0 0 1 .27-.1V4.9a.81.81 0 0 1-.2-1.37 6 6 0 0 0-7.85 8.12Z" fill="url(#aju055ktl)" fill-opacity=".4"/><path d="m8.6 14.99 2.55-2.29a.77.77 0 0 1-.1-.2H4.91c0 .24-.1.47-.27.63 1 1.06 2.4 1.75 3.95 1.86Zm.44.01a5.98 5.98 0 0 0 4.29-1.85l-.98-.39a.77.77 0 0 1-.98.15L9.04 15Zm3.47-2.5 1.04.41a5.98 5.98 0 0 0 .17-7.62l-1.63 6.18v.07a.77.77 0 0 1 .42.95Zm-.42-2.22L13.48 5a6.04 6.04 0 0 0-.7-.67.82.82 0 0 1-.7.62v5.32Zm-7.22 1.9h6.07l-5.26-2.12-1 1.8c.08.1.15.2.19.33Zm.95-2.4 1.61-2.9a.68.68 0 0 0 .27-.01l3.33 5.03-5.2-2.11Zm-.45-.18L3 8.65c0-.15.02-.3.04-.44l3.88-1.66.07.1L5.37 9.6Zm2.65-3.85a.67.67 0 0 0-1.17.5L3.1 7.85a6 6 0 0 1 8.35-4.32.81.81 0 0 0-.25.85L8 5.75Zm.15.27 3.18-1.37c.08.11.2.2.32.25v6.58a.76.76 0 0 0-.27.1l-3.3-5a.67.67 0 0 0 .07-.56ZM3 8.97V9c0 .95.22 1.85.61 2.65a.91.91 0 0 1 .65-.05l.96-1.73L3 8.97Z" fill="url(#bju055ktl)"/><defs><linearGradient id="aju055ktl" x1="15" y1="6.99" x2="4.44" y2="13.9" gradientUnits="userSpaceOnUse"><stop stop-color="#475EAE"/><stop offset="1" stop-color="#0CA2C5"/></linearGradient><linearGradient id="bju055ktl" x1="15" y1="6.62" x2="4.1" y2="13.65" gradientUnits="userSpaceOnUse"><stop offset=".04" stop-color="#3B53A7"/><stop offset=".33" stop-color="#475EAE"/><stop offset="1" stop-color="#0BA1C4"/></linearGradient></defs></svg>