<!-- by TradingView --><svg xmlns="http://www.w3.org/2000/svg" width="18" height="18" viewBox="0 0 18 18"><path fill="#F0F3FA" d="M0 0h18v18H0z"/><rect x="3.97" y="4" width="10" height="10" rx="1" fill="url(#aogztgtqt)"/><path d="M6 6a.5.5 0 0 1 .75-.43.5.5 0 0 1 .07.04l3.27 2.45a.5.5 0 1 1-.6.8L7 6.99v3.64a1 1 0 1 1-1 0V6z" fill="#F0F3FA"/><path d="M12 12.01a.5.5 0 0 1-.74.44.5.5 0 0 1-.08-.04L7.92 9.96a.5.5 0 1 1 .6-.8L11 11.02V7.37a1 1 0 1 1 1 0V12z" fill="#F0F3FA"/><ellipse cx="11.5" cy="6.5" rx=".5" ry=".5" fill="#9A9A9A"/><ellipse cx="6.5" cy="11.5" rx=".5" ry=".5" fill="#9A9A9A"/><defs><linearGradient id="aogztgtqt" x1="3.97" y1="4" x2="13.71" y2="14" gradientUnits="userSpaceOnUse"><stop stop-color="#EDEDED"/><stop offset=".87" stop-color="#A6A6A6"/></linearGradient></defs></svg>