<!-- by TradingView --><svg xmlns="http://www.w3.org/2000/svg" width="18" height="18" viewBox="0 0 18 18"><path fill="#F0F3FA" d="M0 0h18v18H0z"/><path fill-rule="evenodd" d="M6 11c1.08 0 2-.76 2-2s-.92-2-2-2-2 .76-2 2 .92 2 2 2zm0 1a3 3 0 1 0 0-6 3 3 0 0 0 0 6z" fill="#004884"/><path d="M14.24 7.62c-.36-.1-.72-.22-1.1-.29a7.83 7.83 0 0 0-3.14 0V6h2.66c.5 0 .93.07 1.31.24C15 6.59 15 7.62 15 7.9l-.76-.29zm-.56 1.24l.12.04 1.03.2c0 .3-.41 1.28-2.09 1.28H12V12h-2V8.3h.66a8.84 8.84 0 0 1 3.02.56z" fill="#29B8CE"/></svg>