<!-- by TradingView --><svg xmlns="http://www.w3.org/2000/svg" width="18" height="18"><path fill="url(#am0fncj3n)" d="M0 0h18v18H0z"/><path d="M14 9a5 5 0 01-5.36 4.99 88.34 88.34 0 01-3.65-2.72c-.53-.5-.92-1.07-.87-1.4.03-.25.22-.25.34-.25H10L9.4 9H4.98l.98-1H8.1L5.97 6.64c-.68.43-1.53 1.28-1.93 1.72.15-1.2.73-2.25 1.57-3.03l3.32 2.26c.67.44 1.87 1.49 2.59 2.45l-.43.52H5.34l.65.44h4.42l-.94 1H7.25l2.22 1.55c.82-.51 2.44-1.94 2.42-3.5-.03-1.58-1.62-2.92-2.42-3.4l-3-1.96A5 5 0 0114 9z" fill="#fff"/><defs><linearGradient id="am0fncj3n" x1="9" y1="0" x2="9" y2="18" gradientUnits="userSpaceOnUse"><stop stop-color="#0180C9"/><stop offset="1" stop-color="#194F90"/></linearGradient></defs></svg>