<!-- by TradingView --><svg xmlns="http://www.w3.org/2000/svg" width="18" height="18" viewBox="0 0 18 18"><path fill="#F0F3FA" d="M0 0h18v18H0z"/><path d="M7.98 9.68c.16-.25.26-.53.31-.82A1.83 1.83 0 0 0 9.5 10c-.06.02-.5.15-.8.46-.27.3-.3 1.08-.28 1.44-.02-.2-.06-.38-.12-.57-.07-.22-.2-.43-.36-.6a1.75 1.75 0 0 0-.62-.4c-.26-.1-.53-.16-.8-.16.23 0 1.17-.03 1.46-.5z" fill="#A83770"/><path d="M6.46 14a2.4 2.4 0 0 1-.86-.14 1.66 1.66 0 0 1-.98-1.01 2.54 2.54 0 0 1 0-1.5 1.66 1.66 0 0 1 .98-1.02c.25-.1.53-.15.86-.15.33 0 .61.05.86.15.23.1.44.23.62.4.16.18.28.39.36.61.16.5.16 1.02 0 1.5-.08.24-.2.44-.36.61-.18.18-.39.32-.62.4-.24.1-.53.15-.86.15z" fill="#90336B"/><path d="M9.57 7.04l-.13.05a1.88 1.88 0 0 0-1.15 1.22s.1-.57-.22-.88c-.22-.2-.8-.23-1.09-.23.17 0 .33-.04.48-.1a1.2 1.2 0 0 0 .76-.78c.06-.16.09-.33.1-.5 0 .21.02.83.34 1.08.37.3.91.14.91.14z" fill="#FEC21B"/><path d="M6.75 7.26c-.25.01-.5-.03-.73-.12-.2-.07-.38-.2-.53-.34a1.42 1.42 0 0 1-.3-.52 2.07 2.07 0 0 1 0-1.29 1.42 1.42 0 0 1 .83-.86c.23-.1.48-.13.73-.13s.5.04.73.13c.2.08.37.2.52.34.14.15.24.33.3.52.08.2.11.43.1.65.01.22-.02.43-.1.64a1.34 1.34 0 0 1-.82.86c-.24.09-.48.13-.73.12z" fill="#F89627"/><path d="M11.22 7.3c.13 0 .48-.04.66-.22.2-.19.23-.47.23-.61 0 .1.02.2.06.28.04.12.1.22.2.31.09.09.2.16.33.2.15.06.3.08.46.08 0 0-.49.1-.66.34-.11.16-.18.5-.2.63-.08-.22-.2-.42-.38-.59-.18-.17-.4-.31-.65-.4l-.05-.02z" fill="#7CAA41"/><path d="M13 7.4c-.15 0-.3-.02-.44-.07a.84.84 0 0 1-.5-.51 1.21 1.21 0 0 1 0-.76.84.84 0 0 1 .5-.51c.29-.1.6-.1.88 0a.9.9 0 0 1 .31.2c.09.09.15.2.19.3.04.13.06.26.06.39s-.02.26-.06.38a.8.8 0 0 1-.19.3.89.89 0 0 1-.31.21c-.14.05-.29.08-.44.07z" fill="#648D3D"/></svg>