<!-- by TradingView --><svg xmlns="http://www.w3.org/2000/svg" width="56" height="56" viewBox="0 0 56 56"><path fill="#F0F3FA" d="M0 0h56v56H0z"/><path d="M47 28h-1v-.17l2.36-2.18h.11V27h1.79a2.29 2.29 0 0 1 0 1h-1.79v2.64c0 .25.01.5.05.76.02.15.07.3.16.44.08.1.19.17.32.2a3.98 3.98 0 0 0 1.32-.05 3.67 3.67 0 0 1 .14.88 5.8 5.8 0 0 1-1.22.11c-.67.02-1.19-.12-1.56-.38-.37-.26-.68-.7-.68-1.31V28zM40 27.14a4.33 4.33 0 0 1 1.17 0 4.9 4.9 0 0 1 .13.94c.1-.14.22-.27.35-.39.15-.13.32-.24.5-.34A2.94 2.94 0 0 1 43.6 27c.82 0 1.43.2 1.82.58.4.38.59.94.59 1.69v3.68a4.4 4.4 0 0 1-1.05.03c-.13 0-.23-.01-.33-.03v-3.38c0-.54-.1-.93-.31-1.18-.2-.25-.53-.38-.98-.38-.25 0-.5.03-.74.11a1.7 1.7 0 0 0-1.05.97c-.11.3-.16.6-.15.91v2.95a4.4 4.4 0 0 1-1.04.03c-.13 0-.25-.02-.35-.03v-5.81zM37.66 29.09c0-.44-.13-.75-.4-.92a2.28 2.28 0 0 0-1.2-.25 7.3 7.3 0 0 0-1.72.22 1.5 1.5 0 0 1-.26-.88 7.67 7.67 0 0 1 2.11-.26c.92 0 1.62.17 2.1.51.47.34.71.88.71 1.62v3.6l-1.17.17a9.74 9.74 0 0 1-2.62 0 2.9 2.9 0 0 1-.93-.32 1.65 1.65 0 0 1-.57-.57 1.61 1.61 0 0 1-.2-.84c-.02-.3.06-.59.22-.84.17-.25.4-.45.66-.6.3-.17.62-.3.95-.36.37-.08.75-.12 1.13-.12a9.07 9.07 0 0 1 1.2.05v-.21zm0 1.08a14.6 14.6 0 0 0-1.06-.06c-.56 0-1 .08-1.3.25a.85.85 0 0 0-.44.79c0 .22.05.4.15.52a1 1 0 0 0 .37.3c.16.06.33.1.5.11a6.71 6.71 0 0 0 1.78-.09v-1.82zM31.5 25.96c-.03-.1-.06-.2-.06-.3v-.56c0-.1.03-.2.05-.28a5.68 5.68 0 0 1 1.47 0c.02.09.03.18.03.28l.01.28v.28c0 .1-.02.2-.04.3a5.01 5.01 0 0 1-1.08.03 5.8 5.8 0 0 1-.39-.03zm.18 2.04h-.9a1.62 1.62 0 0 1-.04-.24v-.02a2.25 2.25 0 0 1 .04-.74H33v5.95a3.99 3.99 0 0 1-1 .04 3.6 3.6 0 0 1-.33-.04V28zM25.36 31.93c.4.12.83.15 1.25.14.59 0 1.2-.14 1.6-.53a2.18 2.18 0 0 0 .65-1.6c0-.6-.13-1.08-.4-1.43-.27-.36-.71-.54-1.33-.54-.22 0-.44.04-.66.1-.2.07-.4.18-.56.31-.17.15-.3.32-.4.52-.1.24-.15.49-.15.74v2.29zM24 27h1.15c.02.05.03.23.03.28l.04.25a3.04 3.04 0 0 1 .07.42c.5-.66 1.33-.96 2.14-.95 1.75-.02 2.86 1.24 2.86 2.9 0 1-.33 1.7-.99 2.27-.65.56-1.57.83-2.77.83-.4 0-.79-.02-1.17-.11V36H24v-9zM20.25 32.12c.62 0 1.08-.19 1.38-.56.3-.37.45-.9.45-1.56s-.15-1.17-.45-1.54c-.3-.37-.76-.56-1.38-.56-.63 0-1.1.19-1.39.56-.29.37-.44.88-.44 1.54 0 .67.15 1.19.44 1.56.3.37.76.56 1.39.56zm0 .88c-.55 0-1.02-.07-1.43-.22a2.91 2.91 0 0 1-1.02-.64c-.27-.27-.48-.6-.61-.95a3.78 3.78 0 0 1 0-2.37c.13-.35.34-.68.61-.95a3.45 3.45 0 0 1 2.45-.87c.9 0 1.8.24 2.45.87.27.27.48.6.6.95.27.77.27 1.6 0 2.37-.13.36-.33.68-.6.95-.29.28-.64.5-1.02.64-.41.15-.89.22-1.43.22z" fill="#231F20"/><path d="M17.53 21.88c.21-.02.82-.09 1.13-.42.33-.34.38-.86.39-1.12 0 .18.04.35.1.53a1.55 1.55 0 0 0 .91.94c.26.1.53.14.8.13 0 0-.84.19-1.14.63-.2.3-.3.91-.35 1.16-.13-.4-.35-.77-.64-1.08-.32-.33-.7-.58-1.12-.74l-.08-.03z" fill="#7CAA41"/><path d="M11.68 27.7c.25-.41.43-.88.5-1.36a3.03 3.03 0 0 0 2 1.91c-.1.03-.84.24-1.3.76-.47.5-.5 1.8-.5 2.39a3.63 3.63 0 0 0-.19-.95 2.6 2.6 0 0 0-1.6-1.67 3.7 3.7 0 0 0-1.34-.25c.38 0 1.95-.05 2.43-.82z" fill="#A83770"/><path d="M9.25 35c-.54 0-1.02-.08-1.43-.24a2.85 2.85 0 0 1-1.63-1.72 4.43 4.43 0 0 1 0-2.57 2.85 2.85 0 0 1 1.63-1.72c.41-.17.89-.25 1.43-.25.54 0 1.02.08 1.43.25.38.16.73.4 1.02.7.27.29.48.64.6 1.02.27.84.27 1.74 0 2.57a2.69 2.69 0 0 1-1.62 1.72c-.4.16-.88.24-1.43.24z" fill="#90336B"/><path d="M14.85 21.48l-.2.08a3.05 3.05 0 0 0-1.8 1.85l-.04.11s.17-.92-.35-1.42c-.36-.34-1.27-.37-1.74-.36.26-.02.52-.08.77-.17a1.95 1.95 0 0 0 1.2-1.25c.1-.27.15-.54.16-.82 0 .35.04 1.35.55 1.74.59.48 1.45.24 1.45.24z" fill="#FEC21B"/><path d="M10.5 22c-.37 0-.75-.06-1.1-.19-.3-.11-.56-.3-.79-.53-.2-.22-.37-.5-.46-.79a3.22 3.22 0 0 1 0-1.97A2.19 2.19 0 0 1 9.4 17.2c.35-.14.73-.2 1.1-.2.38 0 .75.06 1.1.2a2.07 2.07 0 0 1 1.24 1.32 3.03 3.03 0 0 1 0 1.97 2.07 2.07 0 0 1-1.24 1.32c-.35.13-.73.2-1.1.19z" fill="#F89627"/><path d="M21 22.03c-.3 0-.6-.04-.88-.15-.23-.1-.45-.24-.63-.42-.17-.18-.3-.4-.37-.64a2.59 2.59 0 0 1 0-1.58c.08-.23.2-.45.37-.63.18-.18.4-.33.63-.42.57-.21 1.2-.21 1.76 0a1.65 1.65 0 0 1 1 1.06c.08.25.12.52.12.79 0 .26-.04.53-.13.79a1.65 1.65 0 0 1-1 1.05c-.27.1-.57.16-.87.15z" fill="#648D3D"/></svg>