<!-- by TradingView --><svg xmlns="http://www.w3.org/2000/svg" width="56" height="56" viewBox="0 0 56 56"><path fill="#78A12F" d="M0 0h56v56H0z"/><path fill-rule="evenodd" d="M28 45a17 17 0 1 0 0-34 17 17 0 0 0 0 34Zm7.52-22.5c-.09-.03-.2-.07-.24-.16-.09-.15 0-.27.09-.4.08-.12.16-.24.15-.38-.01-.15-.08-.2-.15-.27-.09-.08-.18-.16-.15-.47.03-.27-.1-.15-.24 0-.09.08-.19.18-.26.18s-.13-.15-.18-.31c-.05-.15-.1-.3-.18-.34-.05-.03-.14.02-.23.08-.13.07-.28.16-.4.07-.1-.07 0-.25.11-.43.08-.13.16-.27.16-.37-.01-.27-.62-.14-1.24 0-.63.15-1.28.29-1.27-.03 0-.15.06-.33.12-.53.13-.44.28-.93-.12-1.14-.35 0-.64.2-.93.4-.35.23-.68.46-1.08.3.36-.7.21-1.26-.4-1.7-.45.45-.46.47-.57.95l-.02.06c-.09.38-.34.4-.63.44-.14.02-.29.03-.43.1-.25.1-.46.26-.65.42-.46.36-.84.66-1.52 0-.1-.11-.44-.17-.5-.1-.17.19-.41.52-.35.7.2.54-.12.75-.43.96-.14.09-.27.18-.36.3-.07.07-.29.05-.45.03h-.03c-.08-.01-.16-.12-.23-.23-.08-.12-.16-.24-.26-.25-.13-.03-.23-.04-.32-.04-.31-.03-.47-.04-1.05-.71 0 .17-.02.35-.04.53-.06.65-.13 1.31.6 1.51l-.23.57c-.17.11-.32.1-.5.05-.36-.12-.53.06-.66.35a4.32 4.32 0 0 0-.45 2c0 .23-.08.46-.3.68-.04.04-.09.05-.16.06-.1.01-.25.03-.42.18-.12.1-.14.2-.16.3-.01.06-.03.13-.1.2-.06.04-.16.02-.25 0-.08-.02-.15-.04-.2 0-.06.04-.07.14-.08.23 0 .09-.02.17-.07.2l-.1-.05c-.07-.07-.16-.15-.26 0-.09.31-.23.44-.35.55-.08.08-.14.14-.17.24 0 .07.12.28.28.53.34.53.8 1.25.18 1.24-.3 0-.43-.25-.53-.48-.06.18-.31 1-.31 1.47 0 .2.07.37.17.43.42.26.25.36.06.46-.11.06-.23.12-.23.22 0 .6.68.9 1.23.9.23 0 .35.11.48.24.09.08.17.17.3.23.14.08.29.05.43.02.11-.02.22-.04.33-.02.24.05.48.1.71.13.78.12 1.53.25 2.19.76-.18.06-.33.16-.25.35.16.37 1.04-.08 1.04-.08-.02.07-.06.37.1.37s1.07-.32 1.07-.32c.33.33.53.05.75-.25.16-.21.32-.43.53-.43.33 0 .63.32.86.57.22.25.23.82.23 1.15 0 .8-.17 1.58-.76 1.61-.17.01-.32-.02-.46-.05a1.3 1.3 0 0 0-.39-.03c-.14.01-.24.08-.33.15-.1.07-.2.14-.36.17a2 2 0 0 1-.5 0 1.86 1.86 0 0 0-.54 0c-.95.2-1.66.6-1.66.87 0 .31.63.22 1.05.15l.32-.04c.11.01.16.03.21.04.05.01.1.03.22.04l.24-.02c.16-.02.34-.05.38 0 .27.26.4.2.63.09l.14-.06c.33-.14.5-.02.52.36.31-.05.53-.18.73-.29.44-.25.8-.44 1.83.29.71-.61.98-.45 1.3-.25.15.09.3.19.52.21l.49.04c.12-.36.32-.3.53-.24l.2.05a1.76 1.76 0 0 0 .65-.11c.08-.04.16-.07.25-.07.3 0 .6.04.9.07.33.04.63.08.89.05.01-.33-.3-.42-.65-.51a2.64 2.64 0 0 1-.4-.14c-.15-.06-.19-.17-.22-.27-.04-.1-.07-.21-.23-.26a1.48 1.48 0 0 0-.39 0c-.13 0-.26.02-.33 0a1.6 1.6 0 0 1-.47-.22c-.23-.14-.45-.27-.73-.17-.2.07-.58.1-.58-.62v-1.44c0-.87.72-1.12 1.18-1.12.33 0 .53.29.71.55.16.24.31.46.53.45.18 0 .27-.3.27-.75l.55.26c.15.37.43.5.71.49.16 0 .31-.03.46-.1.04 0 .05.05.06.13.02.13.06.32.25.32.3 0 .28-.36.27-.6 0-.12 0-.22.02-.24.23-.21.39-.45.4-.62 0-.18.4-.43.67-.5.08-.01.16.05.25.13.13.1.28.22.46.14.1-.03.1-.1.12-.16.02-.15.05-.32.9-.32.8-.04.83-.06.76-.85-.11-.18-.35-.12-.59-.06-.12.03-.25.07-.36.06h-.02c-.2 0-.6-.01-.6-.32 0-.61.35-.75.68-.88.23-.1.44-.18.52-.42.05-.16-.12-.17-.31-.18-.18-.01-.38-.03-.46-.16-.03-.05.07-.11.17-.17.1-.06.21-.12.19-.18-.02-.07-.14-.1-.27-.13-.1-.03-.22-.07-.3-.12-.2-.12-.22-.38-.22-.38s.51 0 .79-.11c.3-.12.51-.42.51-.42.07-.06.15-.08.22-.1.1-.02.16-.04.16-.15 0-.1-.26-.12-.46-.14-.12-.02-.22-.03-.22-.05 0-.1.22-.18.46-.26.2-.06.41-.14.54-.24 0 0-.05-.4-.42-.4-.45 0-.58-.28-.58-.38 0-.14.14-.2.28-.27.15-.07.3-.14.3-.28 0-.06-.08-.12-.17-.18-.1-.07-.23-.16-.28-.28-.04-.1-.05-.23-.07-.34-.02-.2-.04-.34-.2-.27-.2.07-.38.36-.38.36l.07-.4c.06-.27.12-.55.08-.76-.03-.18-.23-.13-.4-.1-.12.04-.23.07-.23-.02 0-.1.09-.18.17-.27.1-.1.18-.2.16-.3-.04-.18-.46-.67-.66-.51-.09.06-.12.19-.16.32-.06.2-.12.4-.33.4-.4.03-.44-.3-.5-.62v-.01c0-.05-.08-.08-.16-.11Z" fill="#fff"/></svg>