<!-- by TradingView --><svg xmlns="http://www.w3.org/2000/svg" width="56" height="56" viewBox="0 0 56 56"><path fill="#F0F3FA" d="M0 0h56v56H0z"/><path d="M38.68 14.96a14.95 14.95 0 0 0-7.82-2.2A15.18 15.18 0 0 0 15.74 28c0 8.42 6.77 15.24 15.12 15.24 2.86 0 5.54-.8 7.82-2.2A16.71 16.71 0 0 1 27.86 45 16.93 16.93 0 0 1 11 28c0-9.39 7.55-17 16.86-17 4.12 0 7.9 1.49 10.82 3.96Z" fill="#071689"/><path d="M21.82 17.17a12.33 12.33 0 0 0-2.86 9.43 12.22 12.22 0 0 0 13.53 10.8c6.69-.8 11.48-6.9 10.7-13.64a12.3 12.3 0 0 0-2.4-6.02 14.1 14.1 0 0 1 4.11 8.46 14.1 14.1 0 0 1-12.28 15.66 14.03 14.03 0 0 1-15.53-12.4 14.16 14.16 0 0 1 4.73-12.29Z" fill="#8B169B"/><path d="M40.37 17.36a11.15 11.15 0 0 0-13.73-1.96 11.36 11.36 0 0 0-2.62 17.44 11.9 11.9 0 0 1 4.67-15.41 11.66 11.66 0 0 1 11.68-.07Z" fill="#0971CE"/></svg>