<!-- by TradingView --><svg xmlns="http://www.w3.org/2000/svg" width="18" height="18" viewBox="0 0 18 18"><path fill="#F0F3FA" d="M0 0h18v18H0z"/><path d="M12.14 5.17A4.46 4.46 0 0 0 5.4 9a4.46 4.46 0 0 0 6.75 3.83A4.92 4.92 0 0 1 8.96 14 4.98 4.98 0 0 1 4 9c0-2.76 2.22-5 4.96-5 1.21 0 2.32.44 3.18 1.17Z" fill="#071689"/><path d="M7.18 5.82a3.63 3.63 0 0 0 3.14 5.94 3.61 3.61 0 0 0 2.44-5.78 4.14 4.14 0 0 1-2.4 7.1 4.17 4.17 0 0 1-3.18-7.26Z" fill="#8B169B"/><path d="M12.64 5.87A3.28 3.28 0 0 0 8.6 5.3a3.34 3.34 0 0 0-.77 5.12A3.5 3.5 0 0 1 9.2 5.9c1.1-.64 2.4-.6 3.44-.02Z" fill="#0971CE"/></svg>