<!-- by TradingView --><svg xmlns="http://www.w3.org/2000/svg" width="56" height="56" viewBox="0 0 56 56"><path fill="url(#aiqqe4ktm)" d="M0 0h56v56H0z"/><path d="M33.87 9h-1.01a.13.13 0 0 0-.13.13v1c0 .06.06.12.13.12h1.01c.08 0 .13-.06.13-.13v-1a.12.12 0 0 0-.13-.12Zm.8 1.31h1.07c.06 0 .1.05.1.1v1.05a.1.1 0 0 1-.1.1h-1.07a.1.1 0 0 1-.1-.1v-1.05c0-.05.04-.1.1-.1Zm-7.72 7.92c0-.02 0-.04-.02-.06a.12.12 0 0 0-.09-.06h-.05a4.7 4.7 0 0 0-1.73 1.01l-.08.09a.57.57 0 0 0-.08.08h1.93c.03 0 .07-.01.09-.03a.12.12 0 0 0 .04-.09l-.01-.94Zm-1.87 3.86v-1.44a.07.07 0 0 0-.03-.05.07.07 0 0 0-.05-.02h-1.26c-.19.42-.36.83-.52 1.23l-.14.34H25c.02 0 .03 0 .05-.02a.07.07 0 0 0 .03-.04Zm3.62 10.66-.01.03H27v-1.36H28.68l.01.03v1.3Zm1.68-2.66h-1.67l-.06-.02a.08.08 0 0 1-.02-.06v-1.16c0-.02 0-.04.02-.05a.08.08 0 0 1 .06-.02h1.67c.02 0 .04 0 .06.02l.02.05v1.16c0 .02 0 .04-.02.06a.08.08 0 0 1-.06.02Zm1.53 1.32a.1.1 0 0 1 .07.02c.02.02.02.04.02.07v1.2c0 .02 0 .04-.02.06a.1.1 0 0 1-.07.02h-1.39a.1.1 0 0 1-.06-.02.09.09 0 0 1-.03-.07v-1.2l.03-.06a.1.1 0 0 1 .06-.02h1.4ZM27 25.94c0-.03.01-.06.03-.08a.12.12 0 0 1 .09-.03h1.4c.03 0 .06.01.08.03.02.02.04.05.04.08v1.16c0 .03-.02.06-.04.08a.12.12 0 0 1-.08.03h-1.4a.12.12 0 0 1-.09-.03.11.11 0 0 1-.03-.08v-1.16Zm-2 2.86c0-.02.02-.04.04-.04h1.92c.02 0 .04.02.04.04v1.25c0 .02-.02.04-.04.04h-1.93c-.02 0-.03-.02-.03-.04V28.8Zm1.85 5.2c.09 0 .15.1.15.2v1.2c0 .07-.05.13-.12.13H16.65c.02-.5.09-1.03.2-1.53h10Zm.92-13.92h1.47a.1.1 0 0 1 .11.1v1.36a.1.1 0 0 1-.1.1h-1.48a.1.1 0 0 1-.11-.1v-1.36c0-.06.05-.1.1-.1Zm.77 3.34.26 1.17c0 .03.02.06.05.08.03.02.07.02.1.02l1.57-.31c.03 0 .06-.03.08-.06a.12.12 0 0 0 .02-.09l-.24-1.2a.13.13 0 0 0-.05-.08.14.14 0 0 0-.1-.02l-1.57.31a.13.13 0 0 0-.1.06.12.12 0 0 0-.02.12ZM27 24.67v-1.15c0-.1-.07-.16-.17-.16h-4.24l-.6 1.45h4.79c.1 0 .22-.03.22-.14Zm-2.1 2.67v-1a.2.2 0 0 0-.07-.14.2.2 0 0 0-.15-.05h-3.31l-.38.73-.35.67h4.04a.21.21 0 0 0 .16-.06.2.2 0 0 0 .05-.15Zm-1.63 1.55v1.08a.11.11 0 0 1-.03.08.12.12 0 0 1-.1.04h-4.27l.94-1.31h3.34c.03 0 .06 0 .08.03.02.02.04.05.04.08Zm1.76 2.51h-3.58l-.05.01a.08.08 0 0 0-.03.04v1.24c0 .02 0 .04.02.06l.06.03h3.6l.05-.03a.08.08 0 0 0 .02-.05v-1.22c0-.02 0-.04-.02-.05a.09.09 0 0 0-.07-.03Zm9.1 0a.12.12 0 0 0-.08.03c-.03.02-.05.05-.05.08v1.15c0 .03.02.05.05.08.02.02.05.03.08.03h4.46c.02 0 .04 0 .06-.02a.11.11 0 0 0 .05-.05c-.2-.45-.42-.88-.68-1.3H34.13Zm-14.34 1.28V31.5a.09.09 0 0 0-.03-.06.1.1 0 0 0-.07-.03h-1.73c-.28.45-.52.92-.73 1.4h2.41c.12 0 .15-.04.15-.12Zm-2.33 8.06h20.96c.3-.5.54-1.02.73-1.57H16.83c.15.54.36 1.07.63 1.57Zm7.49-2.71v-1.3a.15.15 0 0 0-.06-.1.16.16 0 0 0-.11-.04H16.5v.6c.01.33.05.66.1.99h8.18a.17.17 0 0 0 .11-.04.15.15 0 0 0 .06-.11Zm-5.29 5.39h16.38c.64-.5 1.22-1.09 1.72-1.73H18.03c.47.64 1.01 1.22 1.63 1.73Zm9.07-9.32v1.27c0 .1.08.18.18.18h10.54c-.06-.5-.16-1.06-.3-1.55H28.83a.1.1 0 0 0-.1.1Zm-2.11 2.65v1.28c0 .04.02.08.05.1.03.03.07.05.11.05h12.61c.06-.33.1-.66.11-1v-.59H26.79a.17.17 0 0 0-.12.04.16.16 0 0 0-.05.12ZM28 45.99c2.33.05 4.62-.52 6.63-1.65h-13.6A13.59 13.59 0 0 0 28 45.99Zm3.57-18.64a.17.17 0 0 0 .12.05.17.17 0 0 0 .12-.05l1.4-1a.16.16 0 0 0 0-.22l-.64-.85a.17.17 0 0 0-.12-.05.17.17 0 0 0-.12.05l-1.4 1.01a.16.16 0 0 0 0 .23l.64.83Zm.95 1.07.17 1.15a.07.07 0 0 0 .03.05.07.07 0 0 0 .06.01l1.7-.29a.08.08 0 0 0 .05-.02l.02-.03v-.03l-.18-1.15a.07.07 0 0 0-.03-.05l-.03-.01h-.03l-1.7.3a.07.07 0 0 0-.05.02.07.07 0 0 0-.01.05Zm-1.02-9.23.61-.5a.12.12 0 0 1 .1 0c.33.08.65.18.98.3a43.6 43.6 0 0 0 .38.14.1.1 0 0 1-.01.15l-1.4 1.14-.36.3a.11.11 0 0 1-.14 0l-.79-.89a.1.1 0 0 1 0-.11l.63-.53Zm5.46 6.04-1.46.5a.18.18 0 0 1-.2-.04.17.17 0 0 1-.04-.06l-.4-.99a.16.16 0 0 1 .02-.12.17.17 0 0 1 .09-.09l1.02-.35a.22.22 0 0 1 .24.06l.78.91a.11.11 0 0 1 .02.1.11.11 0 0 1-.07.08Zm-3.6-2 1.53-.44.06-.03a.12.12 0 0 0 0-.17l-.77-.9-.1-.1a.13.13 0 0 0-.13-.04l-1.14.33-.7.22a.12.12 0 0 0-.07.05.1.1 0 0 0 0 .08l.37 1.17c0 .02.02.04.04.05h.1l.81-.23Zm-.3-7.23h-1.17a.1.1 0 0 0-.1.1v1.03c0 .05.05.1.1.1h1.17a.1.1 0 0 0 .1-.1V16.1a.1.1 0 0 0-.1-.1Zm3.86 1h1.13c.04 0 .08.04.08.08v1.02c0 .05-.04.09-.08.09h-1.13a.09.09 0 0 1-.09-.09v-1.02c0-.04.04-.08.1-.08Zm.36 4.17h-1.15a.06.06 0 0 0-.06.06v.96c0 .03.03.06.06.06h1.15c.04 0 .06-.03.06-.06v-.96a.06.06 0 0 0-.06-.06Zm-2.6-6.56h1.18c.08 0 .14.07.14.14v1.12c0 .08-.06.13-.14.13h-1.19c-.08 0-.14-.05-.14-.13v-1.12c0-.07.06-.14.14-.14Zm-.85-2.33h-1.2a.16.16 0 0 0-.16.16v1.09c0 .08.08.15.17.15h1.2c.08 0 .16-.07.16-.15v-1.1c0-.08-.08-.15-.17-.15Zm1.37 6.85v-1.02c0-.03.02-.06.04-.08a.13.13 0 0 1 .09-.03h1.04c.03 0 .06.02.08.04.02.02.03.05.03.08v1.02c0 .03-.01.06-.04.08a.13.13 0 0 1-.08.03h-1.04a.13.13 0 0 1-.08-.04.12.12 0 0 1-.04-.08Zm2.03 9.32-1.17.27-.2.04a.08.08 0 0 1-.1-.03v-.03l-.26-1.2.73-.18c.3.4.63.78 1 1.13Zm-7.46-10.68-.6.3a.1.1 0 0 1-.07.02.1.1 0 0 1-.06-.05l-.35-.62-.12-.21a5.1 5.1 0 0 1 2.45-.07l-1.25.63Zm-2.95-.96c-1.25 0-2.53-.18-4.32-2.24l-2.65-3.6a.09.09 0 0 1 .02-.13.1.1 0 0 1 .04-.02c.68-.07 3.42-.3 5.32.85 2.13 1.24 2.99 3.64 2.31 5.05a6.9 6.9 0 0 0-1.85-2.34 7.24 7.24 0 0 0-2.7-1.37 7.43 7.43 0 0 1 3.83 3.8Z" fill="#fff"/><defs><linearGradient id="aiqqe4ktm" x1="28" y1="0" x2="28" y2="56" gradientUnits="userSpaceOnUse"><stop stop-color="#10AB96"/><stop offset="1" stop-color="#009898"/></linearGradient></defs></svg>