<!-- by TradingView --><svg xmlns="http://www.w3.org/2000/svg" width="56" height="56" viewBox="0 0 56 56"><path fill="#B5252F" d="M0 0h56v56H0z"/><path d="m47.6 22.45-1.15-1.9a3.3 3.3 0 0 1-2.24.99c-.36 0-.74-.1-1.33-.25a7.42 7.42 0 0 0-1.94-.29c-2.77 0-4.56 1.52-4.56 3.87 0 1.7.76 2.75 2.32 3.17-1.77.5-1.99 1.19-1.99 1.93 0 .78.32 1.3.83 1.5.5.22 1.33.33 2.6.35l1.2.03c1.12.02 1.98.3 1.98 1.33 0 .47-.27.9-.7 1.16-.44.29-1.05.38-1.77.38-1.3 0-2.02-.5-2.02-1.41 0-.31.02-.47.12-.74h-2.62c-.1.23-.25.54-.25 1.17 0 .78.3 1.45.89 2.03.97.96 2.55 1.23 4.1 1.23 1.68 0 3.31-.4 4.26-1.48.6-.67.87-1.4.87-2.37 0-1.02-.3-1.77-.93-2.4-.76-.74-1.63-1-3.28-1.03l-1.52-.02c-.3 0-.46-.11-.46-.27 0-.31.4-.58 1.12-.94.2.02.3.02.42.02 2.3 0 4-1.43 4-3.4 0-.76-.22-1.34-.64-1.87h.05c.17.03.44.06.69.06.78 0 1.34-.24 1.95-.85Zm-18.9-.1c0-.48-.14-1.16-.4-1.63l-2.68.76c.25.76.38 1.89.38 2.87V32h3v-7.45a3.67 3.67 0 0 1 2.16-1.02c.74 0 .84.38.84 1.67V32h3v-7.71c0-.72-.06-1.21-.21-1.64-.34-.98-1.5-1.65-2.7-1.65-.63 0-1.37.18-1.94.5l-.43.23c-.35.19-.72.39-1.02.61ZM24 32V20.74l-3 .47V32h3Zm-6.06-14.24c-.82-.5-1.59-.76-4.08-.76H10v15h3v-5h1.58c1.63 0 2.26-.18 2.94-.51 1.6-.8 2.53-2.65 2.53-4.7 0-1.8-.74-3.22-2.11-4.03Zm21.29 7.13c0-1.07.61-1.7 1.69-1.7 1.07 0 1.7.63 1.7 1.7 0 1.05-.6 1.63-1.72 1.63-1 0-1.67-.47-1.67-1.63ZM13 19.53h2.01c1.25 0 1.99.87 1.99 2.32 0 .74-.1 1.37-.36 1.8-.4.64-.76.8-1.96.8H13v-4.92Zm11.4-1.67c0-1.03-.76-1.86-1.7-1.86-.98 0-1.78.83-1.78 1.86 0 1.02.78 1.85 1.73 1.85a1.8 1.8 0 0 0 1.75-1.85Zm3.4 17.38-.7.12V40h.7v-4.76Zm2.01 3.5v-3h.9l.2-.55h-1.07v-1.76h-.68v1.76h-.56v.55h.56v3.2c0 .47.1.77.4.93.17.08.34.13.56.13.22 0 .38-.04.6-.16l-.1-.47a.6.6 0 0 1-.37.06c-.33-.03-.44-.22-.44-.69Zm3.73 1.28L35 35.19h-.76l-.08.28-1.02 3.76h-.02L32 35.19h-.7l.95 3.02a19.82 19.82 0 0 1 .54 2.2c-.19.5-.4.72-.82.86l.2.5c.74-.2 1.08-.82 1.37-1.75Zm-19.35-.94c.18-.14.26-.33.26-.33v-2.47c-.22-.33-.53-.48-1.04-.48a.89.89 0 0 0-.79.48c-.2.36-.27.7-.27 1.35 0 .54.03.94.17 1.21.2.38.46.54.85.54.35 0 .55-.08.82-.3Zm.26-5.56h.67v4.91c0 .8.03 1.3.13 1.57h-.68s-.09-.3-.1-.54c-.3.38-.63.54-1.12.54-1.1 0-1.74-.87-1.74-2.35 0-1 .3-1.72.88-2.16a1.37 1.37 0 0 1 1.97.3v-2.27Zm11.93 1.68h-1.1v-1.76h-.68v1.76h-.56v.55h.56v3.2c0 .47.11.77.4.93.17.08.34.12.56.12.24 0 .38-.03.6-.15l-.1-.47a.65.65 0 0 1-.5.04c-.23-.07-.3-.27-.3-.67v-3h.92l.2-.55Zm-2.93 1.27c0-.19-.04-.38-.1-.55a1.12 1.12 0 0 0-1.05-.68c-.45 0-.9.24-1.34.72 0-.38-.15-.73-.15-.73l-.65.2s.16.32.16.98V40h.65v-3.47c.3-.35.84-.65 1.18-.65.2 0 .38.07.47.2.12.15.15.27.15.77V40h.68v-3.53Zm-5.72-.78c-.6 0-.94.49-.98 1.45h1.95c0-.5-.07-.81-.2-1.04a.88.88 0 0 0-.77-.4Zm-1.23.08c.34-.44.76-.65 1.27-.65.46 0 .86.18 1.15.5.37.42.47.86.49 1.97v.1h-2.66v.11a2 2 0 0 0 .2 1.02c.24.4.63.57 1.06.57.4 0 .74-.14 1.04-.44l.25.47c-.37.37-.88.58-1.43.58-1.18 0-1.88-.93-1.88-2.48 0-.78.15-1.29.5-1.75ZM10.68 40H10v-6.41h.68V40Z" fill="#fff"/></svg>