<!-- by TradingView --><svg xmlns="http://www.w3.org/2000/svg" width="56" height="56" viewBox="0 0 56 56"><path fill="#F0F3FA" d="M0 0h56v56H0z"/><path d="M6 35V21h44v14H6Zm.36-.37h43.28V21.37H6.36v13.26Zm6.66-3.45-.2.5h-.2l.78-1.83h.17l.77 1.82h-.2l-.19-.5h-.93Zm.9-.14-.42-1-.39 1h.81Zm2.85-1.03c.19 0 .35.07.51.23l.13-.13c-.12-.2-.4-.26-.61-.26-.5 0-.9.43-.9.93 0 .49.4.93.9.93.22 0 .49-.07.61-.27l-.13-.13a.7.7 0 0 1-.51.23c-.41 0-.72-.37-.72-.76 0-.4.3-.77.72-.77Zm3.1 1.7c-.51 0-.87-.48-.87-.97s.4-.93.9-.93.9.45.9.93c0 .44-.28.82-.7.93.1.14.22.2.35.2.13 0 .23-.06.32-.16l.1.1c-.06.06-.13.13-.2.16-.2.11-.41.07-.6-.07-.06-.05-.14-.1-.2-.2Zm-.71-.93c0 .4.3.76.7.76.43 0 .72-.36.72-.76s-.3-.77-.71-.77c-.42 0-.71.37-.71.77Zm3.59.1v-1.03h-.2v1.06c0 .27.07.47.2.6s.29.2.51.2c.23 0 .4-.07.52-.2.13-.13.2-.33.2-.6v-1.06h-.2v1.03c0 .2-.03.36-.13.46-.1.1-.22.17-.39.17a.53.53 0 0 1-.38-.17c-.1-.1-.13-.23-.13-.46Zm3.16-1.03h.2v1.82h-.2v-1.82Zm2.17.46c0-.23.21-.31.42-.31.16 0 .32.07.45.14l.07-.16c-.13-.14-.45-.17-.52-.17-.32 0-.61.15-.61.5 0 .31.33.43.58.5.17.06.48.09.48.33 0 .25-.28.31-.48.31a.82.82 0 0 1-.58-.2l-.07.13c.08.08.21.15.32.18a1 1 0 0 0 .65-.02c.27-.1.46-.45.2-.67-.14-.13-.39-.19-.57-.23-.15-.04-.34-.14-.34-.33Zm2.88-.46h.2v1.82h-.2v-1.82Zm1.84.16h.62v1.66h.19v-1.66h.58v-.16H32.8V30Zm3.07-.16h.2v1.82h-.2v-1.82Zm2.88 1.86c.48 0 .9-.46.9-.93 0-.5-.4-.93-.9-.93s-.9.44-.9.93c0 .48.4.93.9.93Zm0-1.7c.42 0 .71.37.71.77 0 .39-.3.76-.71.76-.4 0-.71-.37-.71-.76 0-.4.3-.77.7-.77Zm3.98 1.66-1.07-1.5v1.5h-.2v-1.82h.17l1.06 1.5v-1.5h.2v1.82h-.16Z" fill="#07183C"/><path d="M10.39 26.73h1.06c.48 0 .9-.13 1.16-.37.29-.25.41-.56.41-1 0-.43-.12-.74-.41-.99a1.72 1.72 0 0 0-1.16-.37H10v4h.39v-1.27Zm0-2.33h1.03c.38 0 .67.1.9.25.19.19.32.4.32.75 0 .3-.1.55-.32.7-.23.16-.52.26-.9.26h-1.03V24.4ZM14 24h.42v4H14v-4Zm2 .74L18.53 28h.35v-4h-.42v3.26L15.94 24h-.36v4H16v-3.26Zm4.58 2.89h2.35V28h-2.76v-4h2.67v.37h-2.26v1.43h2v.37h-2v1.46ZM25.8 24h-.42v4h.42v-4Zm2.33 3.63c1.03 0 1.4-.96.34-1.26l-.39-.1c-.63-.14-1.35-.4-1.35-1.12 0-.76.73-1.12 1.45-1.12a2.3 2.3 0 0 1 1.19.34l-.13.34a1.57 1.57 0 0 0-.52-.24c-.57-.19-1.57-.13-1.57.62 0 .52.63.64 1.06.74.59.13 1.34.39 1.34 1.05 0 .75-.72 1.12-1.45 1.12a2.5 2.5 0 0 1-.83-.16c-.26-.09-.45-.21-.62-.37l.17-.3c.16.12.35.24.57.33.26.1.49.13.74.13Zm4.87 0h-2V24h-.42v4H33v-.37Zm3.49-.72H34.3L33.8 28h-.42l1.82-4h.42l1.78 4h-.45l-.46-1.09Zm-.16-.37-.94-2.1-.93 2.1h1.87Zm1.89-1.8L40.65 28H41v-4h-.42v3.26L38.15 24h-.35v4h.42v-3.26ZM43.58 28H42v-4h1.58c1.19 0 2.09.86 2.09 1.98a2 2 0 0 1-2.1 2.02Zm-1.2-3.63v3.26h1.16c1.02 0 1.74-.72 1.74-1.65 0-.92-.78-1.6-1.74-1.6H42.4Z" fill="#07183C"/></svg>