<!-- by TradingView --><svg width="18" height="18" xmlns="http://www.w3.org/2000/svg"><path fill="#F0F3FA" d="M0 0h18v18H0z"/><path d="M14 9.938c-.309.4-.816.562-1.389.562-1.1 0-1.678-.69-1.688-1.5-.01-.81.601-1.5 1.688-1.5.573 0 1.074.161 1.389.562v-1.77A3.32 3.32 0 0012.611 6c-1.78 0-3.226 1.345-3.226 3s1.446 3 3.226 3c.495 0 .965-.108 1.389-.293V9.938zM6.258 6H4v6h1.538v-1.5h.72c1.298 0 2.384-.922 2.357-2.25C8.595 7.044 7.61 5.994 6.258 6zm.026 3h-.746V7.5h.753c.41 0 .784.348.784.75-.006.396-.373.75-.79.75z" fill="#ED1B2F"/></svg>