<!-- by TradingView --><svg xmlns="http://www.w3.org/2000/svg" width="18" height="18" viewBox="0 0 18 18"><path fill="url(#axo4m3lii)" d="M0 0h18v18H0z"/><path d="M5.05 10.48l3.88-6.25c.2-.3.67-.3.87 0L14 11h-1L9.35 5.16l-3.12 5.03h.5l-.51.81h-.85c-.3 0-.47-.3-.33-.52zm1.21 1.54l.5-.83 2.42-3.97c.1-.16.34-.16.43 0l2.09 3.43c.14.24-.04.55-.33.55H8.25l.28-.47.22-.37h1.76L9.4 8.52l-1.62 2.67-.5.83-.66.98H5.6l.66-.98z" fill="#fff"/><defs><linearGradient id="axo4m3lii" x1="3.35" y1="3.12" x2="21.9" y2="24.43" gradientUnits="userSpaceOnUse"><stop stop-color="#1A1E21"/><stop offset="1" stop-color="#06060A"/></linearGradient></defs></svg>