<!-- by TradingView --><svg width="56" height="56" viewBox="0 0 56 56" xmlns="http://www.w3.org/2000/svg"><path fill="#F0F3FA" d="M0 0h56v56H0z"/><path d="M40.05 15.98a17.02 17.02 0 0 0-24.07 24.07A16.8 16.8 0 0 0 28 45c3.35 0 6.7-.94 9.59-3H42v-4.25A16.6 16.6 0 0 0 45 28a16.94 16.94 0 0 0-4.95-12.02ZM26.95 41c-2.83-.25-5.65-1.76-7.83-3.91h-.01v-.01h-.01l-.07-.07C16.54 34.5 15 31.26 15 28c0-6.91 6.09-13 13-13 6.53 0 12.44 5.43 13 11.95V41c-5.85.06-11.92 0-14.05 0Z" fill="#9A9A9A"/><circle cx="28" cy="28" r="9" fill="#0047AB"/></svg>