<!-- by TradingView --><svg xmlns="http://www.w3.org/2000/svg" width="56" height="56" viewBox="0 0 56 56"><path fill="#F0F3FA" d="M0 0h56v56H0z"/><path d="M50.99 32.97L46.75 23h-1.48L42.8 28.8c.89.3 1.78.66 2.68 1.05A7.93 7.93 0 0 1 49.06 33H51l-.01-.03zm-5.9-4.92l.93-2.43h.04l1.41 3.6c-.73-.49-1.53-.89-2.38-1.17zM42.38 29.76L41 33h2.1l.44-1.07.63-1.48c-.58-.24-1.17-.47-1.79-.69zM36.52 28.24c-.05 2.11-1.55 3.26-4.17 3.26H32v-3.34c-.64.05-1.33.11-2 .2V33h2.45c1.15 0 2.5-.12 3.51-.67a4.92 4.92 0 0 0 2.54-3.82c-.64-.11-1.3-.2-1.98-.27zM32 27.1v-2.6c2.01 0 3.91.7 4.41 2.66.71.07 1.4.16 2.08.27a5.23 5.23 0 0 0-1.7-3.27C35.6 23.23 33.87 23 32.4 23h-2.4v4.3c.66-.1 1.35-.16 1.99-.2zM16 33h1.94a7.86 7.86 0 0 1 3.58-3.15c.9-.4 1.8-.76 2.68-1.07L21.73 23h-1.48l-4.23 9.97L16 33zm3.52-3.77l1.42-3.61h.04l.92 2.43c-.84.28-1.64.68-2.38 1.18zM24.62 29.76L26 33h-2.1l-.44-1.07-.63-1.48c.58-.24 1.17-.47 1.79-.69zM8.06 28.62L10.3 33h2.1l-2.34-4.33-2-.05z" fill="#003"/><path d="M8.95 29c1.71 0 3.06-1.2 3.05-2.9a2.9 2.9 0 0 0-1.24-2.39 3.97 3.97 0 0 0-2.54-.7H5V33h2v-4h1.95zM7 24.5h1.2c1 0 1.8.46 1.8 1.5s-.76 1.5-1.8 1.5H7v-3z" fill="#003"/></svg>