<!-- by TradingView --><svg xmlns="http://www.w3.org/2000/svg" width="18" height="18" viewBox="0 0 18 18"><path fill="#F0F3FA" d="M0 0h18v18H0z"/><path fill-rule="evenodd" d="M10.6 11h1.82l.35 1H14l-2-6H11L9 12h1.27l.34-1Zm1.58-1h-1.32l.66-2.3.66 2.3Zm-5.9-4H4v6h1.2V9.68h1.18L7.68 12h1.2v-.05l-1.46-2.5c.2-.08.36-.17.51-.28.22-.15.39-.35.5-.57.12-.23.18-.5.18-.8 0-.39-.1-.72-.28-.98a1.68 1.68 0 0 0-.8-.61A3.4 3.4 0 0 0 6.29 6ZM5.2 8.72h1.08c.8 0 1.13-.3 1.13-.87C7.41 7.22 7 7 6.17 7H5.2v1.72Z"/></svg>