<!-- by TradingView --><svg xmlns="http://www.w3.org/2000/svg" width="56" height="56" viewBox="0 0 56 56"><path fill="#F0F3FA" d="M0 0h56v56H0z"/><path fill-rule="evenodd" d="M21.24 25.46c.4-.36.61-.83.65-1.46h-1c-.05.7-.5 1-1.21 1-.78 0-1.28-.54-1.28-1.8v-.44c.01-1.22.54-1.76 1.3-1.76.69 0 1.14.25 1.2 1h1a2.12 2.12 0 0 0-.67-1.46c-.39-.36-.9-.54-1.54-.54-.46 0-.86.11-1.2.34-.35.23-.62.56-.8.99-.2.43-.29.92-.29 1.48v.36c0 .88.2 1.57.6 2.08.41.5.97.75 1.68.75.64 0 1.16-.18 1.56-.54Zm-7 6.54c-.04.63-.26 1.1-.66 1.46-.39.36-.9.54-1.56.54-.7 0-1.26-.25-1.66-.75-.4-.5-.61-1.2-.61-2.08v-.36c0-.56.1-1.05.28-1.48.19-.43.45-.76.8-.99.35-.23.75-.34 1.21-.34.64 0 1.15.18 1.54.54.38.36.6.8.67 1.46h-1c-.06-.75-.51-1-1.21-1-.75 0-1.28.54-1.29 1.76v.44c0 1.26.5 1.8 1.27 1.8.71 0 1.17-.3 1.22-1h1Zm5.3.57c.17-.4.25-.88.25-1.43v-.26c0-.57-.1-1.08-.3-1.52A2.24 2.24 0 0 0 17.4 28c-.46 0-.88.12-1.25.35a2.3 2.3 0 0 0-.84 1.01c-.2.44-.3.95-.3 1.52v.3c0 .56.1 1.06.3 1.5.2.42.49.76.86.99a2.26 2.26 0 0 0 1.33.33c.11 0 .23 0 .34-.02l1.2 1.02.74-.7-.94-.76c.3-.24.54-.57.7-.97ZM17.4 29c.78 0 1.37.65 1.37 1.88v.29c0 1.21-.59 1.83-1.37 1.83-.79 0-1.4-.66-1.4-1.86v-.28c0-1.22.62-1.86 1.4-1.86Zm7.6-1v3.9a2 2 0 0 1-.6 1.54c-.4.37-.95.56-1.65.56-.69 0-1.23-.18-1.63-.55-.4-.36-.61-.87-.62-1.5V28h1v3.9c0 .78.6 1.1 1.25 1.1.68 0 1.24-.34 1.25-1.06V28h1Zm2 6h-1v-6h1v6Zm12.17-5h-1.72v5h-1v-5h-1.7v-1h4.42v1ZM33 34h1v-6h-1v6Zm8 0h-1v-6h1v6Zm9.86 0H52v-6h-1v4.19L48.64 28H47.5v6h1v-4.15L50.86 34ZM47 31.13c0 .58-.1 1.08-.3 1.51A2.3 2.3 0 0 1 44.5 34a2.32 2.32 0 0 1-2.19-1.34 3.42 3.42 0 0 1-.31-1.5v-.28c0-.58.1-1.08.31-1.52A2.32 2.32 0 0 1 44.5 28a2.29 2.29 0 0 1 2.19 1.36c.2.44.31.94.31 1.51v.26Zm-1-.26c0-1.23-.68-1.87-1.5-1.87-.8 0-1.5.63-1.5 1.85v.28c0 1.2.68 1.87 1.5 1.87s1.5-.64 1.5-1.85v-.28Zm-16.04.59c.45.16 1.04.37 1.04.93 0 .41-.38.61-.9.61-.68 0-1.1-.36-1.1-1h-1c0 1.21.95 2 2.1 2 1 0 1.9-.54 1.9-1.62 0-.45-.14-.83-.42-1.14-.28-.3-.72-.56-1.33-.77-.67-.22-1.09-.46-1.09-.84 0-.4.38-.63.9-.63.55 0 .94.27.94.8h1c0-1.06-.86-1.8-1.92-1.8-.96 0-1.92.57-1.92 1.63 0 .6.33 1.07.92 1.43.22.13.51.26.88.4ZM7.65 33H5.57l-.35 1H4l2.08-6h1.07l2.09 6H8l-.36-1Zm-1.81-1h1.55l-.78-2.48L5.84 32Zm23.73-7h2.08l.36 1h1.23l-2.1-6h-1.06L28 26h1.22l.35-1Zm1.82-1h-1.55l.77-2.48.78 2.48Zm11.81-1v2.17c-.08.1-.2.23-.38.36-.17.13-.4.24-.67.33a3.36 3.36 0 0 1-2.03-.04c-.3-.13-.55-.31-.77-.55a2.53 2.53 0 0 1-.5-.88 3.71 3.71 0 0 1-.17-1.19v-.4a4 4 0 0 1 .16-1.18c.11-.35.27-.65.47-.89.2-.24.45-.42.73-.54.3-.13.62-.19.98-.19.47 0 .85.08 1.16.24.3.16.54.38.7.66.17.28.28.74.32 1.1h-.96c-.1-.58-.45-1-1.2-1-.7 0-1.36.52-1.36 1.79v.41c0 1.29.7 1.8 1.46 1.8.68 0 .95-.22 1.09-.37V24h-1.19v-1h2.16ZM26 22.5V20h1v6h-1v-2.5h-2.5V26h-1v-6h1v2.5H26ZM16.76 25v1H13v-6h3.74v1H14v1.5h2.36v1H14V25h2.76Zm31 1v-1H45v-1.5h2.36v-1H45V21h2.74v-1H44v6h3.75ZM8 20h2c.44 0 .8.07 1.11.2.3.14.54.35.7.62.16.26.25.6.25.98 0 .3-.06.57-.16.8-.1.22-.25.42-.44.57-.13.11-.28.2-.45.28l1.28 2.5V26h-1.05l-1.14-2.32H9V26H8v-6Zm2 2.72H9V21h.9c.74 0 1.1.22 1.1.85 0 .57-.28.87-1 .87ZM36 20h-2v6h1v-2.32h1.1L37.23 26h1.05v-.05L37 23.45c.17-.08.32-.17.45-.28.19-.15.34-.35.44-.57.1-.23.16-.5.16-.8 0-.39-.09-.72-.25-.98-.16-.27-.4-.48-.7-.61-.3-.14-.67-.21-1.1-.21Zm-1 2.72h1c.72 0 1-.3 1-.87 0-.63-.36-.85-1.1-.85H35v1.72Z"/></svg>