<!-- by TradingView --><svg xmlns="http://www.w3.org/2000/svg" width="18" height="18" viewBox="0 0 18 18"><path fill="#006141" d="M0 0h18v18H0z"/><path d="M2.05 8.73L3.5 12a.8.8 0 0 1 .23-.58c.91-.32 3.31-.96 5.64-.96 2.92 0 4.68.8 4.94.96.2.12.3.37.31.49l1.35-3.38c.07-.2.05-.44-.1-.56-.7-.6-2.63-1.47-6.5-1.47-4.55 0-6.35.9-7.17 1.54-.19.15-.24.45-.14.69z" fill="#F8DE08"/><path fill-rule="evenodd" d="M8.24 7.46v2.05l-.2.12a.12.12 0 0 0-.06.11c0 .07.05.12.11.12h1.67c.06 0 .12-.06.12-.13v-.29c0-.09-.07-.16-.16-.16-.08 0-.14.07-.14.16v.12h-.67c-.13 0-.2-.16-.2-.3v-.62h.54c0 .13.07.2.2.16a.17.17 0 0 0 .12-.17v-.55c0-.06-.04-.11-.1-.11a.1.1 0 0 0-.09.05l-.1.15c-.04.07-.11.16-.2.16h-.37v-.6c0-.15.07-.31.2-.31h.54c.07 0 .12.1.12.18v.01c0 .07.06.13.12.13.07 0 .12-.06.12-.13v-.37c0-.07-.05-.13-.11-.13H8.1c-.06 0-.12.06-.12.14 0 .05.03.1.07.12l.19.1zm-4.36 2.82l-.54-2.03-.13.05c-.07.03-.15 0-.18-.09-.03-.08.01-.18.1-.2l1-.33c.3-.1.64.08.76.42v.04c.11.3 0 .64-.24.8l.72.87h.17c.13 0 .16.2.04.25l-.31.14a.21.21 0 0 1-.24-.06l-.78-.86-.21.1.28.77.12-.04c.07-.02.14.03.16.1.03.09-.01.18-.08.2l-.7.26c-.06.03-.13 0-.16-.08-.04-.08-.01-.17.06-.21l.16-.1zm.16-1.35l-.28-.8.21-.07c.18-.06.37.04.44.23.08.21 0 .45-.18.55l-.2.1zm10.7-.9c.04.02.05.08.03.13l-.16.39c-.03.07-.1.1-.17.06a.14.14 0 0 1-.06-.11c-.03-.25-.21-.35-.3-.36-.09-.01-.25 0-.25.19 0 .18.2.35.32.4.1.07.4.4.4.6 0 .2-.16.62-.62.62-.46 0-.82-.24-.82-.6 0-.2.17-.28.32-.3.1-.02.1.03.05.11a.58.58 0 0 0-.04.1c-.08.22.08.36.39.36.25 0 .3-.13.3-.2 0-.19-.14-.31-.29-.45-.11-.1-.23-.22-.32-.38-.2-.37-.05-.82.42-.82.32 0 .62.15.8.25zM13 9.94l-.12.12c-.06.06-.04.17.05.2l1.06.31c.03.01.08 0 .1-.03l.1-.09c.06-.06.04-.17-.04-.2l-1.04-.34a.11.11 0 0 0-.11.03zm-6.96-.22l-.18-2.08-.2-.08a.14.14 0 0 1-.1-.11c0-.08.05-.14.12-.15l1.69-.16c.07 0 .13.04.13.12l.04.37c0 .07-.05.14-.12.14a.13.13 0 0 1-.14-.11v-.01a.14.14 0 0 0-.14-.13l-.57.05a.26.26 0 0 0-.22.29l.05.57.43-.04c.09 0 .16-.06.2-.14l.08-.16a.11.11 0 0 1 .1-.06c.06-.01.11.04.12.1l.05.56c0 .08-.04.16-.12.18a.17.17 0 0 1-.23-.15v-.05l-.6.06.05.69c.02.14.14.25.28.23l.7-.06-.01-.08c-.01-.1.05-.17.14-.18.09 0 .17.06.18.15l.02.3c0 .07-.04.13-.11.14l-1.76.17a.12.12 0 0 1-.13-.11c0-.05.02-.1.05-.12l.2-.14zm4.25-2.22l.12.05-.08 1.9-.2.1a.14.14 0 0 0-.08.12c0 .08.06.14.13.14l1.42.08a1.37 1.37 0 0 0 1.02-1.35c0-.89-.76-1.22-1.06-1.28l-1.21-.07a.15.15 0 0 0-.16.16c0 .07.04.12.1.15zm.47 1.84l.1-1.59c0-.11.1-.21.2-.2.45.01 1.08.24 1.08 1.06 0 .83-.7 1-1.19.97-.11 0-.2-.12-.19-.24zm1.9-1.2c.08-.06.27-.22.31-.35v-.03c.06-.16.1-.3.28-.3.2 0 .22.13.22.26 0 .23-.37.42-.82.42z" fill="#E72723"/></svg>