<!-- by TradingView --><svg xmlns="http://www.w3.org/2000/svg" width="18" height="18" viewBox="0 0 18 18"><path fill="#F0F3FA" d="M0 0h18v18H0z"/><path d="M4 6.02C4 4.9 4.86 4 5.93 4h6.13C13.13 4 14 4.9 14 6.02v5.95c0 1.12-.87 2.03-1.94 2.03H5.93C4.86 14 4 13.1 4 11.97V6.02Z" fill="#4CCCFF"/><path d="M5 6.28C5 5.58 5.54 5 6.2 5h5.6c.66 0 1.2.57 1.2 1.28v5.44c0 .7-.54 1.28-1.2 1.28H6.2c-.66 0-1.2-.57-1.2-1.28V6.28Z" fill="url(#avqbbcsaw)"/><path d="m6.5 12 .45-6h2.98c1.54 0 1.87 1.12 1.87 1.84 0 .9-.6 1.68-1.56 1.82L11.5 12H9.93l-1.4-3s2.1.18 2.1-1.16c0-.74-1.1-.84-1.1-.84H8.18l-.4 5H6.5Z" fill="#F0F3FA"/><defs><linearGradient id="avqbbcsaw" x1="2.97" y1="11" x2="34.15" y2="10.93" gradientUnits="userSpaceOnUse"><stop offset=".24" stop-color="#007CC3"/><stop offset=".5" stop-color="#5AB4E4"/></linearGradient></defs></svg>