<!-- by TradingView --><svg xmlns="http://www.w3.org/2000/svg" width="18" height="18" viewBox="0 0 18 18"><path fill="#F0F3FA" d="M0 0h18v18H0z"/><path d="M10.96 4.63l-.63.97c1.5.42 2.67 1.93 2.67 3.87 0 2.35-1.8 4.25-3.98 4.25-.48 0-.8 0-1.22-.14v.22c.4.13.86.2 1.35.2A4.66 4.66 0 0 0 14 9.2a5.04 5.04 0 0 0-3.04-4.57z" fill="#AF379D"/><path d="M9.03 3.5A5.56 5.56 0 0 0 3.5 9c0 1.9 1 3.56 2.53 4.52l.81-1.14A3.91 3.91 0 0 1 5.6 9.47 3.46 3.46 0 0 1 9.08 6c.47 0 .97.06 1.56.27l1.01-2a4.74 4.74 0 0 0-2.62-.77z" fill="#F27215"/></svg>