<!-- by TradingView --><svg xmlns="http://www.w3.org/2000/svg" width="56" height="56" viewBox="0 0 56 56"><path fill="#F0F3FA" d="M0 0h56v56H0z"/><path d="M50.03 29.77c.92 0 1.35-.74 1.35-1.75 0-1.05-.66-1.8-1.65-1.8-.13 0-.22.02-.26.05-.05.03-.07.09-.07.2v2.86c0 .46.24.44.63.44Zm-1.78.08c.4-.05.58-.2.58-.66v-2.36c0-.45-.18-.65-.58-.68V26h1.6C51 26 52 26.68 52 28.01c0 1.33-.82 1.99-1.97 1.99h-1.78v-.15ZM32.9 29.85c.4-.05.51-.17.51-.62V26.7c0-.22-.03-.36-.1-.43-.06-.06-.2-.1-.42-.12V26h1.65v.15c-.22.02-.36.06-.43.12-.06.07-.11.21-.11.43v1.13h1.8V26.7c0-.22-.02-.36-.09-.43-.06-.06-.2-.1-.42-.12V26h1.64v.15c-.22.02-.36.06-.42.12-.07.07-.1.21-.1.43v2.6c0 .41.15.51.52.55V30H35.3v-.15c.41-.05.52-.17.52-.62V28.1H34v1.2c0 .4.17.52.54.55V30h-1.65v-.15ZM29.72 26c.2 0 .41.03.61.1l.35.09c.16.02.23-.05.29-.19h.12v1.22h-.13c-.17-.58-.58-1.07-1.18-1.07-.83 0-1.29 1.1-1.29 1.9 0 .54.13 1.03.4 1.33.24.28.54.43.89.45.55.02.83-.37.83-.67 0-.37-.3-.57-.59-.59v-.1h1.59v.1c-.23.02-.47.16-.47.45v.57c-.2 0-.75.41-1.36.41a1.9 1.9 0 0 1-1.33-.5 1.9 1.9 0 0 1-.6-1.47c0-.54.16-1 .48-1.4a1.7 1.7 0 0 1 1.39-.63ZM13.67 27.93h.48c.29 0 .67-.34.67-.87s-.35-.83-.88-.83c-.16 0-.19.01-.22.04-.04.02-.05.08-.05.17v1.5Zm-1.15 1.92c.4-.04.48-.2.48-.62V26.7c0-.22-.03-.35-.09-.42s-.19-.1-.39-.13V26h1.57c.66 0 1.36.3 1.36 1.06 0 .58-.4.92-.95 1 .43-.06.87.89 1.05 1.32.1.23.21.48.47.51V30h-.91s-.75-1.9-1.1-1.9h-.34v1.2c0 .4.13.51.5.55V30h-1.65v-.15ZM4.12 28.71c.08.26.19.51.3.67.2.26.43.46.73.46.38 0 .64-.39.64-.77 0-.78-1.05-.97-1.45-1.45-.3-.38-.27-.97.06-1.33.17-.2.4-.29.68-.29.12 0 .26.03.42.1l.3.1c.07 0 .11-.02.13-.06A.37.37 0 0 0 6 26h.1v1.21h-.12c-.1-.44-.32-1.07-.86-1.07-.48 0-.69.61-.4 1 .39.5 1.04.61 1.4 1.13a1.11 1.11 0 0 1-.14 1.43c-.2.2-.46.3-.78.3-.15 0-.32-.03-.5-.1l-.4-.17c-.06 0-.1.02-.12.06a.44.44 0 0 0-.04.13H4L4 28.72h.12ZM7.7 26h3.58l.04 1.13h-.1c-.16-.69-.41-.92-1.07-.92H9.8v3.1c0 .23.04.37.11.43.08.05.25.09.5.1V30H8.58v-.15c.26-.02.43-.06.5-.13.06-.06.1-.23.1-.49v-3.02H8.8c-.64 0-.92.23-1.06.92h-.1L7.68 26ZM17.94 28c0 .85.31 1.84 1.26 1.84.94 0 1.25-.99 1.25-1.84 0-.85-.3-1.85-1.25-1.85s-1.26 1-1.26 1.85Zm-.67 0a1.92 1.92 0 1 1 3.85 0 1.92 1.92 0 1 1-3.85 0ZM22.57 29.85c.23-.03.38-.08.45-.17.06-.09.1-.29.1-.6v-2.6l-.08-.1a.6.6 0 0 0-.21-.18.74.74 0 0 0-.26-.05V26h.97l2.18 2.86v-1.94c0-.33-.05-.54-.14-.64-.06-.07-.2-.1-.4-.13V26h1.3v.15c-.22.03-.37.08-.44.17-.07.09-.1.29-.1.6V30h-.07l-2.54-3.3v2.38c0 .33.05.54.14.64.06.06.2.1.4.13V30h-1.3v-.15ZM43.85 29.85c.39-.05.57-.15.56-.55v-2.6c0-.4-.18-.52-.56-.55V26h1.73v.15c-.27.02-.58.15-.58.5v2.53c0 .48.42.61.82.61.7 0 .86-.1 1.03-1.02H47V30h-3.15v-.15Z"/><path fill-rule="evenodd" d="M40.5 30.09a2.2 2.2 0 1 0 0-4.4 2.2 2.2 0 0 0 0 4.4Zm0 .3a2.5 2.5 0 1 0 0-5 2.5 2.5 0 0 0 0 5Z" fill="#30B060"/><path d="M40 25h.3v.49H40V25ZM40 31v-.9h.3v.9H40ZM40.7 31v-.71h.3V31h-.3ZM40.7 25.49V25h.3v.49h-.3ZM39.82 27.89l2.1-1.71-1.32 1.61.69.3-2.06 1.61 1.22-1.56-.63-.25Z" fill="#30B060"/></svg>