<!-- by TradingView --><svg xmlns="http://www.w3.org/2000/svg" width="56" height="56" viewBox="0 0 56 56"><path fill="#F0F3FA" d="M0 0h56v56H0z"/><path d="M27.88 47c-2.46-2.65-7.95-6.84-11.03-10.33-3.2-3.62-3.99-9.55-.92-13.53 2.32-3 5.07-5.73 7.58-8.56-2.59 5.68-2.43 9.12-1.83 11.04.64 2.1 3.52 4.08 5.75 6.39 4.18 4.35 4.11 10.36.45 14.99Z" fill="#298195"/><path d="M27.42 22.36c-4.11-4.33.8-13.36.8-13.36 1.37 1.49 3.7 3.55 6.02 5.7 3.77 3.48 8.12 6.39 7.74 13.13-.45 5.1-5.02 8.25-8.24 12.31 2.61-4.2 2.59-8.93-.8-12.57-1.72-1.85-4.1-3.71-5.52-5.2Z" fill="#BCD000"/></svg>