<!-- by TradingView --><svg xmlns="http://www.w3.org/2000/svg" width="56" height="56" viewBox="0 0 56 56"><path fill="#242A56" d="M0 0h56v56H0z"/><path d="M10 21h12.9c0 1.86 1.6 5.34 3.52 9.68 1.54 3.47-.84 5.94-2.38 7.1L16.7 43l3.4-13.13L10 21z" fill="#0060AD"/><path d="M32.56 21l-2.78-7.8c-1.48 2.66-.51 6.36 0 8.02l3.16 8.48a7.44 7.44 0 0 1-2.1 7.57l8.46 5.54-3.6-13.1L46 21H32.56z" fill="#fff"/><path d="M24.03 18.55c.32-4.17 3.61-6.77 5.22-7.55-3.88 6.2-.78 11.24.87 14.42a15.66 15.66 0 0 1 1.76 6.32c.22 4.23-5.53 7.64-8.43 8.82 4.12-3.14 4.55-5.37 4.7-7.55.16-2.19-1.44-6.2-2.8-8.43-1.3-2.1-1.37-4.95-1.32-6.03z" fill="#B5B5B5"/></svg>