<!-- by TradingView --><svg xmlns="http://www.w3.org/2000/svg" width="18" height="18" viewBox="0 0 18 18"><path fill="#242A56" d="M0 0h18v18H0z"/><path d="M3 6.44h4.3c0 .64.53 1.83 1.17 3.32.52 1.2-.28 2.05-.79 2.45L5.23 14l1.13-4.51L3 6.44z" fill="#0060AD"/><path d="M10.52 6.44l-.93-2.68c-.49.91-.17 2.18 0 2.75l1.06 2.92a2.6 2.6 0 0 1-.7 2.6l2.82 1.9-1.2-4.5 3.43-3h-4.48z" fill="#fff"/><path d="M7.68 5.6A3.34 3.34 0 0 1 9.42 3c-1.3 2.13-.26 3.86.29 4.96.44.87.58 1.78.58 2.17.08 1.45-1.84 2.63-2.8 3.03 1.37-1.08 1.5-1.84 1.56-2.6a6.53 6.53 0 0 0-.94-2.9 4.07 4.07 0 0 1-.43-2.07z" fill="#B5B5B5"/></svg>