<!-- by TradingView --><svg xmlns="http://www.w3.org/2000/svg" width="18" height="18"><path fill="#F0F3FA" d="M0 0h18v18H0z"/><path d="M2.6 10.85a2.28 2.28 0 001.59 0 .965.965 0 00.62-.89.8.8 0 00-.19-.55 1.09 1.09 0 00-.43-.31c-.17-.07-.4-.14-.68-.21a5.56 5.56 0 01-.6-.18.99.99 0 01-.37-.25.59.59 0 01-.15-.42c0-.23.09-.42.27-.57.19-.14.46-.22.82-.22a1.87 1.87 0 011.06.34l.1-.24a2.13 2.13 0 00-1.94-.21.96.96 0 00-.6.9c0 .24.06.43.18.58.12.14.27.24.44.3.17.07.4.14.69.22.25.06.45.11.6.17.14.06.27.14.37.24.1.1.15.25.15.42 0 .23-.1.42-.29.56-.19.15-.46.22-.83.22a2 2 0 01-.73-.14c-.23-.1-.42-.21-.55-.36l-.13.21c.14.16.34.3.6.4zM5.72 7h.27v3.74H8.1V11H5.72V7zm3.76 2.87h2.32l.5 1.13h.32l-1.84-4h-.3l-1.83 4h.31l.51-1.13zm1.16-2.55l1.05 2.3H9.6l1.05-2.3zm2.96 3.42c.3.17.65.26 1.03.26.27 0 .53-.05.76-.14.24-.1.44-.23.61-.41l-.18-.19c-.3.32-.7.48-1.18.48-.32 0-.62-.08-.88-.23a1.64 1.64 0 01-.63-.62 1.78 1.78 0 01-.22-.89c0-.33.07-.62.22-.88.15-.27.36-.48.63-.63.26-.15.56-.23.88-.23.48 0 .88.16 1.18.47l.18-.18a1.56 1.56 0 00-.6-.4c-.24-.1-.5-.15-.77-.15-.38 0-.72.09-1.03.26A1.92 1.92 0 0012.63 9a1.92 1.92 0 00.98 1.74z"/></svg>