<!-- by TradingView --><svg xmlns="http://www.w3.org/2000/svg" width="56" height="56"><path fill="#F0F3FA" d="M0 0h56v56H0z"/><path d="M39.35 20.3V22H39v-5h.35v2.77l1.84-1.45h.57l-2.15 1.7L41.98 22h-.54l-2.1-1.7zM9.54 29.6h2.92l.64 1.4h.4l-2.32-5h-.36L8.5 31h.4l.64-1.4zM11 26.4l1.32 2.89H9.68L11 26.4zm25.6 4.31a.9.9 0 01-.33.22c-.13.05-.27.07-.41.07a.93.93 0 01-.74-.29 1.2 1.2 0 01-.26-.82v-2.56h-.65V27h.65v-1h.35v1h1.16v.33h-1.16v2.52c0 .27.06.47.17.61.12.14.29.2.51.2.23 0 .42-.07.57-.22l.14.27zm9.99-3.28a1.46 1.46 0 00-1.11-.43c-.35 0-.66.08-.92.24-.25.15-.43.37-.56.65V27h-.36v4H44v-2.11c0-.48.13-.85.38-1.13.26-.28.6-.42 1.05-.42.38 0 .68.12.89.35.21.24.32.57.32 1.02V31H47v-2.32c0-.54-.14-.96-.41-1.25zM11.52 40A2.4 2.4 0 019 37.5a2.4 2.4 0 011.23-2.18 2.6 2.6 0 011.3-.32c.34 0 .67.06.96.18.3.1.55.28.76.5l-.22.24a2.02 2.02 0 00-1.5-.59c-.4 0-.77.1-1.1.28-.34.2-.6.45-.8.78-.18.33-.28.7-.28 1.11 0 .4.1.78.29 1.11.19.33.45.59.78.78.34.19.7.28 1.12.28.6 0 1.1-.2 1.49-.6l.22.24c-.2.23-.46.4-.76.51-.3.12-.62.18-.97.18zm12.51-3.74c-.3-.18-.64-.26-1.01-.26-.36 0-.69.08-.98.26-.29.16-.51.4-.67.7V36H21v5.4h.38v-2.33c.16.3.39.53.67.7.3.15.61.23.97.23.37 0 .7-.08 1.01-.25.3-.17.54-.4.7-.7.18-.31.27-.66.27-1.05s-.09-.73-.26-1.03c-.17-.3-.4-.54-.7-.71zm-.2 3.2c-.25.13-.53.2-.84.2-.3 0-.58-.07-.83-.2a1.57 1.57 0 01-.58-.6c-.13-.25-.2-.54-.2-.86 0-.32.07-.6.2-.86a1.57 1.57 0 011.41-.8c.31 0 .59.07.83.21.25.14.44.34.58.59.14.25.22.54.22.86 0 .32-.08.61-.22.86a1.5 1.5 0 01-.58.6zm1.67.46a.3.3 0 00.2.08c.08 0 .15-.03.2-.08a.3.3 0 00.1-.22.27.27 0 00-.1-.2.27.27 0 00-.2-.09.28.28 0 00-.3.3c.01.07.04.15.1.2zM40.95 31c-.37 0-.7-.09-1-.26-.3-.17-.53-.4-.7-.7A2.1 2.1 0 0139 29c0-.38.08-.72.25-1.03.17-.3.4-.54.7-.71.3-.17.63-.26 1-.26s.7.09 1 .26c.3.17.53.4.7.71.17.3.26.65.26 1.03s-.09.73-.26 1.03c-.17.3-.4.54-.7.71-.3.17-.63.26-1 .26zm0-.3c.91 0 1.65-.74 1.65-1.7s-.74-1.71-1.65-1.71c-.91 0-1.62.8-1.62 1.71 0 .9.7 1.7 1.62 1.7zm-26.24 9.04c.3.17.63.26 1 .26a1.94 1.94 0 001.7-.97c.17-.3.25-.65.25-1.03s-.08-.72-.25-1.03c-.17-.3-.4-.54-.7-.71-.3-.17-.63-.26-1-.26s-.7.09-1 .26c-.3.17-.53.4-.7.71-.17.3-.25.65-.25 1.03s.08.73.25 1.03c.17.3.4.54.7.71zM17.35 38c0 .96-.73 1.7-1.64 1.7-.93 0-1.62-.8-1.62-1.7 0-.9.7-1.71 1.62-1.71.91 0 1.64.75 1.64 1.71zm12.3-7.14c.27.1.56.14.86.14.47 0 .84-.1 1.1-.3.26-.19.39-.45.39-.78a.84.84 0 00-.19-.58 1.05 1.05 0 00-.46-.3 4.58 4.58 0 00-.71-.18c-.27-.06-.47-.1-.62-.15a1.01 1.01 0 01-.37-.22.56.56 0 01-.15-.42c0-.22.09-.4.27-.53.17-.14.44-.2.8-.2.2 0 .4.02.6.08.2.06.37.15.53.27l.16-.3c-.15-.12-.34-.21-.58-.28a2.5 2.5 0 00-.71-.11c-.46 0-.81.1-1.06.3a.95.95 0 00-.37.78c0 .26.06.46.2.6.12.15.28.25.46.32s.43.13.72.18c.26.05.46.1.6.14.15.05.27.12.37.22.1.1.15.22.15.39 0 .23-.1.41-.28.54-.18.13-.45.2-.84.2a2.2 2.2 0 01-1.35-.48l-.17.3c.15.15.37.27.64.37zM26.34 27v4H26v-.88c-.13.28-.3.5-.55.65-.25.15-.54.23-.87.23-.5 0-.88-.14-1.16-.43-.28-.3-.42-.7-.42-1.25V27h.36v2.29c0 .45.11.78.33 1.02.22.23.52.35.92.35.42 0 .76-.14 1-.42.26-.28.39-.65.39-1.13V27h.36zM22 32.44V27h-.38v.96a1.7 1.7 0 00-.66-.71 1.9 1.9 0 00-.98-.25c-.37 0-.71.09-1.01.26-.3.17-.54.4-.72.7-.17.31-.25.65-.25 1.04a1.88 1.88 0 001.98 2 1.78 1.78 0 001.64-.94v2.38H22zm-1.17-1.99a1.6 1.6 0 01-.83.22 1.57 1.57 0 01-1.4-.8c-.14-.26-.2-.54-.2-.87a1.57 1.57 0 011.6-1.66c.3 0 .57.07.82.21a1.71 1.71 0 01.8 1.45c-.01.33-.09.61-.23.86a1.5 1.5 0 01-.57.6zm-4.87.55c-.38 0-.72-.09-1.01-.26-.3-.17-.53-.4-.7-.7-.17-.31-.25-.66-.25-1.04 0-.39.08-.73.25-1.03.17-.31.4-.55.7-.71.3-.17.63-.26 1-.26.32 0 .6.06.85.19.26.12.46.3.62.53l-.27.2a1.5 1.5 0 00-1.2-.59c-.3 0-.57.08-.8.22-.25.14-.43.33-.57.58-.14.25-.2.54-.2.87 0 .33.06.62.2.87s.32.45.56.59c.24.13.51.2.82.2.24 0 .47-.05.67-.14.2-.1.38-.25.52-.45l.27.2c-.16.24-.36.42-.62.55-.25.12-.53.18-.84.18zm15.38-14H31v5h3v-.33h-2.66V17zm-4.82 1c.48 0 .84.12 1.1.38.25.24.38.6.38 1.1V22h-.35v-.73c-.13.23-.3.41-.54.54-.24.13-.52.19-.85.19-.42 0-.76-.1-1.01-.31-.25-.2-.37-.48-.37-.82 0-.32.11-.59.34-.79.23-.2.6-.3 1.1-.3h1.31v-.32c0-.37-.1-.65-.3-.84-.18-.2-.47-.29-.84-.29a2.03 2.03 0 00-1.32.5l-.19-.27a2.4 2.4 0 011.54-.56zm-.2 3.69c.31 0 .58-.08.8-.23.23-.15.4-.37.51-.65v-.74h-1.3c-.39 0-.66.07-.83.2a.72.72 0 00-.25.59c0 .26.1.46.28.61.18.15.45.22.78.22zm11.12-3.31c-.25-.26-.62-.38-1.1-.38a2.4 2.4 0 00-1.53.56l.18.27a2.03 2.03 0 011.32-.5c.38 0 .66.1.85.29.2.19.3.47.3.84v.31h-1.32c-.5 0-.86.1-1.1.31-.22.2-.33.47-.33.8 0 .33.12.6.36.81.25.2.6.31 1.02.31.33 0 .61-.06.85-.19.23-.13.41-.31.53-.54V22h.36v-2.53c0-.48-.13-.85-.39-1.1zm-.49 3.08c-.22.15-.49.23-.8.23-.35 0-.6-.07-.8-.22a.75.75 0 01-.28-.61c0-.25.09-.44.25-.58.18-.14.45-.21.83-.21h1.3v.74c-.1.28-.27.5-.5.65zM20.33 18.9c.12-.3.3-.51.53-.67.24-.15.52-.23.86-.23v.37h-.08c-.4 0-.72.13-.95.41-.23.28-.34.66-.34 1.15V22H20v-4h.34v.9zm-.95 17.33c-.23.16-.4.38-.52.67V36h-.34v4h.35v-2.07c0-.5.12-.87.35-1.15.22-.28.54-.42.94-.42l.09.01V36c-.34 0-.63.08-.87.23zm3.53-17.33c.11-.3.28-.51.52-.67.24-.15.53-.23.87-.23v.37h-.09c-.4 0-.72.13-.95.41-.22.28-.34.66-.34 1.15V22h-.35v-4h.34v.9zm-7.32 1.19H19v-.1c0-.39-.08-.73-.25-1.03a1.81 1.81 0 00-1.63-.96 1.85 1.85 0 00-1.65.97c-.16.3-.24.65-.24 1.03a1.89 1.89 0 00.98 1.74c.31.17.66.26 1.05.26.3 0 .59-.06.84-.17.26-.1.48-.27.65-.47l-.22-.25c-.14.18-.33.32-.55.41-.21.1-.45.14-.7.14-.32 0-.6-.07-.85-.2a1.51 1.51 0 01-.6-.55 1.67 1.67 0 01-.23-.82zm.77-1.57c.22-.13.47-.19.75-.19a1.49 1.49 0 011.51 1.47H15.6c.02-.29.1-.54.23-.76.13-.23.31-.4.53-.52zM46 20.09h-3.4c.01.3.1.58.24.82.14.24.34.42.59.55.25.13.53.2.84.2.26 0 .5-.04.71-.14.22-.1.4-.23.55-.41l.22.25c-.17.2-.39.36-.65.47a2.1 2.1 0 01-.84.17c-.39 0-.74-.09-1.05-.26a1.89 1.89 0 01-.98-1.74c0-.38.08-.73.24-1.03a1.83 1.83 0 011.65-.97 1.81 1.81 0 011.63.96c.17.3.25.64.25 1.02v.11zm-1.87-1.76a1.49 1.49 0 00-1.28.71c-.13.22-.2.47-.23.76h3.02c-.01-.29-.09-.54-.23-.76a1.48 1.48 0 00-1.28-.7zM14.1 18h-.34v4h.34v-4zm-.37-.52c.06.05.13.07.2.07.08 0 .15-.02.2-.08a.27.27 0 00.08-.2.25.25 0 00-.08-.19.27.27 0 00-.2-.08.27.27 0 00-.2.08.27.27 0 00-.08.2c0 .08.03.14.08.2zM28.11 27v4h-.34v-4h.34zm-.17-.45a.28.28 0 01-.2-.07.27.27 0 01-.08-.2c0-.08.03-.14.08-.2a.27.27 0 01.2-.08c.08 0 .15.03.2.08.06.05.08.12.08.2 0 .07-.02.14-.08.2a.27.27 0 01-.2.07zM33.23 31v-4h-.35v4h.35zm-.37-4.52c.05.05.12.07.2.07.07 0 .14-.02.2-.08a.27.27 0 00.08-.2.25.25 0 00-.09-.19.27.27 0 00-.2-.08.27.27 0 00-.2.08.27.27 0 00-.08.2c0 .08.03.14.09.2zM38 27v4h-.34v-4H38zm-.17-.45a.28.28 0 01-.2-.07.27.27 0 01-.08-.2c0-.08.02-.14.08-.2a.27.27 0 01.2-.08c.08 0 .14.03.2.08.05.05.08.12.08.2 0 .07-.03.14-.08.2a.27.27 0 01-.2.07zM9.75 21.82a2.9 2.9 0 002 0c.27-.11.47-.27.6-.47.12-.2.19-.41.19-.65 0-.3-.08-.52-.23-.7-.15-.17-.33-.3-.55-.38-.21-.08-.5-.17-.85-.26a7.08 7.08 0 01-.77-.23 1.25 1.25 0 01-.46-.3.73.73 0 01-.2-.53c0-.29.12-.53.36-.7.23-.2.57-.28 1.02-.28a2.38 2.38 0 011.34.41l.14-.29a2.7 2.7 0 00-2.44-.27c-.26.12-.45.28-.58.48-.12.2-.19.42-.19.66 0 .3.08.53.23.71.15.17.33.3.55.39.22.08.5.17.86.26.32.07.57.15.76.22.18.07.34.17.46.3.13.13.2.3.2.53 0 .28-.13.52-.36.7-.24.17-.6.26-1.06.26-.32 0-.63-.05-.92-.17a1.93 1.93 0 01-.69-.45l-.16.27a2 2 0 00.75.49z"/></svg>