<!-- by TradingView --><svg xmlns="http://www.w3.org/2000/svg" width="18" height="18" viewBox="0 0 18 18"><path fill="#F0F3FA" d="M0 0h18v18H0z"/><path d="M12.26 9.63H8.5c-.41 0-.8-.08-1.16-.27a.3.3 0 0 0-.28.53c.44.23.94.36 1.44.36h3.76a1.25 1.25 0 0 0 0-2.5H8.5c-.8 0-1.52.31-2.07.8a2.5 2.5 0 0 1-.44-1.18.3.3 0 1 0-.6.05c.06.58.28 1.12.62 1.58a3.1 3.1 0 0 0-.61 2.2 2.5 2.5 0 0 1 1.22-4.7h5.64c.68 0 1.24-.58 1.24-1.26S12.94 4 12.26 4H8.5a3.1 3.1 0 0 0-2.94 2.06 3.12 3.12 0 0 0 1.06 6.07h5.64c.36 0 .64.28.64.63s-.28.62-.64.62H8.5c-.69 0-1.33-.25-1.81-.74a.3.3 0 0 0-.43.41c.6.61 1.39.95 2.24.95h3.76c.68 0 1.24-.56 1.24-1.24 0-.68-.56-1.26-1.24-1.26H6.62c-.2 0-.4 0-.58-.04a2.53 2.53 0 0 1 2.46-3.1h3.76c.35 0 .64.29.64.64 0 .35-.28.63-.64.63zm-3.76-5h3.76c.36 0 .64.25.64.6 0 .36-.28.64-.64.64H6.62l-.33.03A2.49 2.49 0 0 1 8.5 4.62z" fill="#00AEDC"/></svg>