<!-- by TradingView --><svg width="18" height="18" fill="none" xmlns="http://www.w3.org/2000/svg"><path fill="#F0F3FA" d="M0 0h18v18H0z"/><path fill-rule="evenodd" clip-rule="evenodd" d="M11.05 9.993a1.955 1.955 0 01-.2 1.423 3.51 3.51 0 01-.666.856 5.845 5.845 0 01-.906.706 5.567 5.567 0 01-.973.497c-.69.267-1.475.551-2.305.625.637.559 1.481.9 2.407.9C10.392 15 12 13.435 12 11.505a3.41 3.41 0 00-.581-1.906c-.136.085-.28.16-.428.227.024.057.045.113.06.167z" fill="#7FCCC2"/><path fill-rule="evenodd" clip-rule="evenodd" d="M7.032 13.608c.334-.054.636-.136.907-.246a3.974 3.974 0 001.42-.925c.388-.398.582-.87.582-1.418 0-.265-.072-.535-.216-.808a2.265 2.265 0 00-.076-.13l-.097.001c-1.28 0-2.351-.641-3.002-1.61-1.018.628-1.75 1.73-1.75 2.988 0 .797.272 1.533.73 2.124.145.026.305.049.487.07.322.035.681.01 1.015-.046z" fill="#7FCCC2"/><path fill-rule="evenodd" clip-rule="evenodd" d="M9.624 10.2c.032 0 .064 0 .096-.002-.156-.259-.408-.584-.758-.975a7.785 7.785 0 01-.82-1.096 2.108 2.108 0 01-.282-1.096c0-.413.103-.825.31-1.239.205-.412.46-.778.765-1.095.108-.111.255-.242.443-.394.189-.15.413-.29.672-.416.26-.127.565-.239.914-.334.14-.038.285-.068.436-.09A3.624 3.624 0 009.624 3C7.622 3 6 4.612 6 6.6c0 .724.216 1.398.587 1.963A3.625 3.625 0 009.624 10.2z" fill="#7581BE"/><path d="M9.687 7.98a8.254 8.254 0 01-.53-.758 2.438 2.438 0 01-.38-1.313c0-.609.226-1.097.677-1.464.45-.367 1.037-.55 1.759-.55.33 0 .616.028.86.086A3.481 3.481 0 0112.6 8.5a3.836 3.836 0 01-1.605 1.339 4.427 4.427 0 00-.827-1.3 24.996 24.996 0 01-.173-.192 7.793 7.793 0 01-.308-.368z" fill="#7581BE"/></svg>