<!-- by TradingView --><svg xmlns="http://www.w3.org/2000/svg" width="56" height="56"><path fill="#F0F3FA" d="M0 0h56v56H0z"/><path d="M29.21 41.2L10 21.83l20.4 15.2-.28 3.35-.9.84z" fill="#13A89E"/><path d="M29.96 42l-.8-.85.96-.81-.16 1.66z" fill="#168378"/><path d="M30.11 40.37l.3-3.37 2.12 1.63-2.42 1.74z" fill="#168378"/><path d="M32.46 38.65L34.58 37l.28 3.41-2.4-1.76z" fill="#168378"/><path d="M35 42h-5.04l.16-1.65 2.4-1.73 2.33 1.73L35 42z" fill="#0E574D"/><path d="M30.4 37.03L32.55 9l2.04 28.01-2.07 1.63-2.1-1.61z" fill="#A7A9AC"/></svg>