<!-- by TradingView --><svg xmlns="http://www.w3.org/2000/svg" width="18" height="18" viewBox="0 0 18 18"><path fill="#F0F3FA" d="M0 0h18v18H0z"/><path d="M12.91 5.89a5 5 0 0 0-8.9 2.96l-.25.13c-.3.16-.63.35-.75.44a5.99 5.99 0 0 1 11.33-3.16c-.22-.08-.96-.26-1.43-.37zm-8.76 4.33a5 5 0 1 0 9.6-2.76c.29-.2.73-.5.88-.53A6 6 0 1 1 3.1 10.11c.17-.01.72.05 1.05.11z" fill="#A8B6CC"/><path d="M10.21 10.07c1.21.28 1.88.05 2.34-.4.83-.82.75-2.81 2.45-2.97-1.54-.77-3.15-.87-4.2-.11-.94.68-1.47 2.11-.76 3.23.26-1.44 1.39-3.28 3.56-3.18-2.87.15-3.6 3.24-3.39 3.43z" fill="url(#ay2bov2bn)"/><path d="M9.91 12c-1.3.8-2.18.8-2.9.46C5.74 11.84 5.06 9.49 3 9.99c1.51-1.52 3.35-2.27 4.87-1.81 1.28.38 2.38 1.67 2.2 3.13 0 .1.62 1.18.77 1.75l-1-1.72c-.95-1.48-2.88-2.9-5.22-1.98 3.42-.98 5.31 2.13 5.3 2.63z" fill="url(#by2bov2bn)"/><defs><linearGradient id="ay2bov2bn" x1="9.71" y1="8.13" x2="15" y2="8.13" gradientUnits="userSpaceOnUse"><stop stop-color="#003E6A"/><stop offset=".15" stop-color="#003E6A" stop-opacity=".86"/><stop offset=".49" stop-color="#003E6A" stop-opacity=".58"/><stop offset=".78" stop-color="#003E6A" stop-opacity=".41"/><stop offset="1" stop-color="#003E6A" stop-opacity=".35"/></linearGradient><linearGradient id="by2bov2bn" x1="10.84" y1="10.56" x2="3" y2="10.56" gradientUnits="userSpaceOnUse"><stop offset=".12" stop-color="#69B342" stop-opacity=".88"/><stop offset=".39" stop-color="#69B342" stop-opacity=".65"/><stop offset=".64" stop-color="#69B342" stop-opacity=".49"/><stop offset=".85" stop-color="#69B342" stop-opacity=".39"/></linearGradient></defs></svg>