<!-- by TradingView --><svg xmlns="http://www.w3.org/2000/svg" width="56" height="56" viewBox="0 0 56 56"><path fill="#F0F3FA" d="M0 0h56v56H0z"/><path d="M18 21h1.3l4.2 12.5L27.7 21H29l-4.75 14h-1.58L18 21zm-2.29 3.7l.97-.22C16.63 23.32 15.65 21 12 21c-3.76 0-4 3.36-4 3.7 0 .34.05 3.06 4.08 3.31C15.3 28.22 16 30 16 31c0 .97-1.32 3-4.03 3s-4-2.13-3.97-3.13l-1 .15C7.17 32.78 8.64 35 11.97 35c4.16 0 5.03-3.14 5.03-4.34 0-1.2-.48-3.14-4.92-3.73C10.64 26.74 9 26.15 9 24.7c0-1.82 1.72-2.7 3-2.7 1.86 0 3.48.63 3.71 2.7zM31 21v14h1v-7h6v-1h-6v-5h7v-1h-8zm13.18 0h-1.39L38 35h1.3l1.34-4h5.72l1.34 4H49l-4.82-14zm-.68 1.5l2.52 7.5h-5.04l2.52-7.5z" fill="url(#azkr5oowq)"/><defs><linearGradient id="azkr5oowq" x1="8.17" y1="22.7" x2="45.65" y2="22.7" gradientUnits="userSpaceOnUse"><stop stop-color="#A2B8CA"/><stop offset="1" stop-color="#FEBC77"/></linearGradient></defs></svg>