<!-- by TradingView --><svg xmlns="http://www.w3.org/2000/svg" width="18" height="18" viewBox="0 0 18 18"><path fill="#F0F3FA" d="M0 0h18v18H0z"/><path d="M11.25 6.76l.03.22.22-.05.64-.15.16-.03v-.17a2.61 2.61 0 0 0-.72-1.62c-.5-.54-1.32-.96-2.57-.96-1.32 0-2.04.62-2.42 1.28a3.24 3.24 0 0 0-.42 1.46c0 .13.01.7.38 1.26.38.58 1.12 1.12 2.5 1.21 1.02.07 1.61.4 1.95.75.34.37.44.8.44 1.1 0 .26-.18.73-.6 1.13-.4.4-1.02.72-1.85.72-.84 0-1.44-.33-1.84-.75a1.9 1.9 0 0 1-.58-1.19l.01-.24-.24.04-.66.1-.18.04.02.18C5.64 12.4 6.68 14 8.99 14c1.43 0 2.32-.57 2.84-1.26.52-.68.67-1.47.67-1.91 0-.44-.08-1.04-.58-1.57-.48-.54-1.35-.99-2.83-1.2-.46-.05-.94-.18-1.3-.4-.34-.22-.55-.51-.55-.92 0-.56.25-.97.6-1.24.34-.28.8-.41 1.17-.41.6 0 1.12.1 1.52.36.38.24.65.65.72 1.3z" fill="url(#amgkbszgz)"/><defs><linearGradient id="amgkbszgz" x1="5.5" y1="9.71" x2="14.03" y2="10.19" gradientUnits="userSpaceOnUse"><stop stop-color="#A3B8C9"/><stop offset="1" stop-color="#FEBC77"/></linearGradient></defs></svg>