<!-- by TradingView --><svg width="56" height="56" fill="none" xmlns="http://www.w3.org/2000/svg"><path fill="#F0F3FA" d="M0 0h56v56H0z"/><path d="M11.096 25H5l2.997 6h.147l2.952-6z" fill="#000"/><path d="M9.499 26l-4.003-.004 2.01 4.02L9.499 26z" fill="url(#paint0_linear_3608_50924)"/><path fill-rule="evenodd" clip-rule="evenodd" d="M10.769 29.996l2.239-4.383 2.23 4.383h-.8L13.932 29h-1.835l-.5.996h-.828zM12.32 28.4l.683-1.47.7 1.47H12.32zM44.54 29.996a2.199 2.199 0 002.206-2.191c0-1.21-.988-2.192-2.207-2.192a2.199 2.199 0 00-2.206 2.192c0 1.21.988 2.191 2.206 2.191zm0-.656a1.54 1.54 0 001.545-1.535 1.54 1.54 0 00-1.546-1.535 1.54 1.54 0 00-1.545 1.535 1.54 1.54 0 001.545 1.535zM19.401 29.253a2.207 2.207 0 01-1.656.743 2.199 2.199 0 01-2.206-2.191c0-1.21.988-2.192 2.206-2.192.643 0 1.222.274 1.626.71l-.466.467a1.546 1.546 0 00-1.16-.52 1.54 1.54 0 00-1.545 1.535 1.54 1.54 0 001.545 1.535c.469 0 .888-.207 1.171-.534l.485.447zM22.755 29.886a2.21 2.21 0 01-.69.11 2.196 2.196 0 01-2.202-2.191c0-1.21.986-2.192 2.202-2.192s2.201.981 2.201 2.192c0 .714-.343 1.348-.874 1.748l.562.798-.582.41-.617-.875zm.852-2.081c0 .848-.69 1.535-1.542 1.535a1.539 1.539 0 01-1.542-1.535c0-.848.69-1.535 1.542-1.535.851 0 1.542.687 1.542 1.535zM25.726 25.613H25v2.577a1.806 1.806 0 103.612 0v-2.577h-.726V28.3a1.08 1.08 0 01-2.16 0v-2.687z" fill="#919191"/><path fill="#919191" d="M29.501 25.613h.736v4.383h-.736zM35.26 25.613h.736v4.383h-.736zM40.819 25.613h.736v4.383h-.736z"/><path fill-rule="evenodd" clip-rule="evenodd" d="M36.558 25.613v.757h1.458v3.626h.736V26.37h1.458v-.757h-3.652z" fill="#919191"/><path d="M32.758 25.613c.717 0 1.325.368 1.539.551l-.375.5c-.429-.291-.79-.407-1.164-.407-.375 0-.876.14-.89.618-.013.478.616.518 1.358.677.743.16 1.131.578 1.131 1.189 0 .611-.595 1.255-1.599 1.255-.798 0-1.456-.354-1.686-.524l.335-.552c.26.206.93.419 1.284.419.335 0 .997-.067.963-.598-.033-.531-.702-.578-1.123-.65-.422-.074-1.392-.286-1.385-1.156.006-.87.715-1.322 1.612-1.322zM47.374 25.613v4.383h.738V27.14l2.683 2.857h.209v-4.383h-.747v2.937l-2.753-2.937h-.13z" fill="#919191"/><defs><linearGradient id="paint0_linear_3608_50924" x1="7.504" y1="26.018" x2="7.504" y2="30.016" gradientUnits="userSpaceOnUse"><stop stop-color="#6E9FA5"/><stop offset=".38" stop-color="#D3C3B3"/><stop offset="1" stop-color="#F49F3B"/></linearGradient></defs></svg>