<!-- by TradingView --><svg xmlns="http://www.w3.org/2000/svg" width="56" height="56" viewBox="0 0 56 56"><path fill="#F0F3FA" d="M0 0h56v56H0z"/><path d="M20.09 19.02c-.3-.34-.35-.84-.35-1.3 0-.95-.76-1.72-1.7-1.72-.95 0-1.72.77-1.72 1.73 0 .95.77 1.72 1.71 1.72.45 0 .94.06 1.25.4l.04.04c.33.36.35.9.33 1.4v.08c0 .95.76 1.72 1.7 1.72.46 0 .96.06 1.27.4l.39.42c.26.3.31.7.31 1.1 0 .95.77 1.72 1.71 1.72s1.7-.77 1.7-1.72c0-.43.04-.88.3-1.22l.18-.24c.25-.33.64-.52 1.02-.7l.27-.15c.54-.28.91-.86.91-1.52 0-.27.05-.55.21-.76l.44-.57c.24-.31.67-.4 1.06-.4.95 0 1.71-.77 1.71-1.72 0-.96-.76-1.73-1.7-1.73a1.72 1.72 0 0 0-1.7 1.94c.04.38.03.79-.2 1.1-.31.4-.9.45-1.4.41h-.12a1.72 1.72 0 0 0-1.54 2.5c.17.33.23.76 0 1.06-.2.27-.58.33-.92.29a1.71 1.71 0 0 0-.22-.02c-.51 0-1.08-.04-1.42-.42l-.2-.22c-.3-.33-.34-.82-.34-1.27 0-.96-.77-1.73-1.71-1.73-.37 0-.76-.07-1.01-.34l-.26-.28zM14.6 22.9c.46 0 .96.06 1.27.39l.02.02c.34.36.36.91.33 1.41v.1c0 .95.76 1.72 1.7 1.72.52 0 1.08.05 1.43.42l.18.2c.32.33.36.83.36 1.3 0 .95.77 1.72 1.71 1.72.95 0 1.71-.77 1.71-1.72s-.76-1.73-1.7-1.73c-.45 0-.94-.05-1.24-.38l-.4-.42c-.28-.3-.33-.72-.33-1.11 0-.96-.77-1.73-1.71-1.73-.35 0-.72-.07-.96-.32l-.3-.32c-.31-.33-.36-.82-.36-1.27 0-.96-.76-1.73-1.7-1.73-.95 0-1.71.77-1.71 1.73 0 .45-.04.94-.33 1.28l-.47.54c-.18.21-.46.28-.73.28-.94 0-1.7.78-1.7 1.73s.76 1.72 1.7 1.72a1.72 1.72 0 0 0 1.7-1.93c-.06-.5-.08-1.06.25-1.44l.04-.05c.3-.34.8-.41 1.24-.41zM50 26.27c0 .96-.76 1.73-1.7 1.73-.95 0-1.72-.77-1.72-1.73 0-.95.77-1.72 1.71-1.72.95 0 1.71.77 1.71 1.72zM9.42 29.84c0 .95-.77 1.72-1.71 1.72S6 30.8 6 29.84s.77-1.73 1.7-1.73c.95 0 1.72.78 1.72 1.73zm25.76-7.37c.42-.05.88-.03 1.18.27.29.27.34.7.33 1.1v.06c0 .95.76 1.72 1.7 1.72h.02c.46 0 .97.04 1.3.37.35.33.4.87.4 1.36 0 .95.76 1.72 1.7 1.72.95 0 1.71-.77 1.71-1.72s-.76-1.73-1.7-1.73c-.43 0-.88-.05-1.18-.34l-.16-.16c-.32-.3-.37-.78-.37-1.22a1.72 1.72 0 0 0-1.75-1.73c-.45.01-.95-.03-1.27-.34l-.08-.07c-.26-.26-.32-.64-.32-1 0-.96-.77-1.73-1.71-1.73s-1.71.77-1.71 1.72v.02c0 .45-.03.93-.33 1.26l-.02.02c-.32.37-.87.43-1.36.43a1.72 1.72 0 0 0-1.69 1.98c.07.45.06.95-.23 1.28-.29.32-.75.39-1.17.38h-.02a1.72 1.72 0 0 0-1.7 1.94c.05.42.04.87-.24 1.18-.31.35-.84.39-1.3.34a1.7 1.7 0 0 0-1.89 1.72c0 .1.01.21.03.31.1.5.11 1.05-.21 1.42-.31.34-.82.4-1.28.38a1.72 1.72 0 0 0-.28.01c-.4.05-.84.03-1.14-.24l-.06-.06c-.22-.2-.29-.52-.29-.83 0-.95-.76-1.72-1.7-1.72-.4 0-.8-.05-1.1-.32l-.5-.48c-.3-.27-.37-.71-.37-1.12 0-.95-.77-1.72-1.71-1.72-.95 0-1.71.77-1.71 1.72s.76 1.73 1.7 1.73c.51 0 1.06.02 1.43.37l.12.1c.38.36.42.93.42 1.44a1.72 1.72 0 0 0 2.08 1.69c.37-.08.78-.08 1.05.18.24.22.3.57.3.9v.07c0 .95.76 1.73 1.7 1.73s1.7-.78 1.7-1.73c0-.4.06-.84.32-1.14l.68-.76a.7.7 0 0 1 .53-.2c.94 0 1.71-.78 1.71-1.73 0-.31.05-.64.26-.87l.46-.51c.24-.27.63-.35.99-.35.94 0 1.7-.77 1.7-1.72 0-.48.04-1 .35-1.35l.25-.27c.2-.23.51-.3.81-.3.95 0 1.71-.77 1.71-1.73 0-.4.05-.85.32-1.15l.14-.17c.3-.34.8-.4 1.25-.4l.2-.01zm-1.86 10.67c-.33-.37-.89-.42-1.38-.42-.48 0-1 .06-1.31.41l-.07.08c-.3.33-.33.8-.33 1.23 0 .95-.77 1.73-1.71 1.73-.32 0-.65.07-.86.3l-.3.34c-.34.39-.36.95-.36 1.46 0 .96-.77 1.73-1.71 1.73-.95 0-1.71-.77-1.71-1.73 0-.95.76-1.72 1.7-1.72.4 0 .83-.07 1.1-.37l.11-.13c.35-.4.35-.98.32-1.51v-.1c0-.95.76-1.72 1.7-1.72.48 0 1-.07 1.3-.42l.09-.09c.29-.32.33-.79.33-1.22 0-.95.76-1.72 1.7-1.72.95 0 1.71.77 1.71 1.72 0 .4.05.84.33 1.14l.18.2c.3.32.77.39 1.2.39a1.72 1.72 0 0 1 1.71 1.8c-.02.48 0 1.02.33 1.38l.07.07c.29.32.76.39 1.2.39.94 0 1.7.77 1.7 1.72 0 .96-.76 1.73-1.7 1.73-.95 0-1.71-.77-1.71-1.73 0-.47-.04-.99-.36-1.34l-.2-.22c-.25-.28-.66-.35-1.04-.35a1.72 1.72 0 0 1-1.7-1.78c0-.44-.03-.92-.33-1.25zm1.66-4.07c.4 0 .83.06 1.11.35l.26.26c.28.28.34.71.34 1.12 0 .95.76 1.72 1.7 1.72.4 0 .84.06 1.12.35l.34.35c.26.26.33.66.33 1.03 0 .95.76 1.72 1.7 1.72a1.72 1.72 0 0 0 1.71-1.78c-.01-.44.02-.91.3-1.24.34-.38.9-.43 1.4-.43h.01c.95 0 1.71-.77 1.71-1.72s-.76-1.73-1.7-1.73c-.95 0-1.72.78-1.72 1.73 0 .39-.04.8-.3 1.09l-.2.24c-.3.33-.77.4-1.2.4h-.1c-.47.02-1-.01-1.34-.35-.32-.33-.36-.85-.35-1.32v-.06a1.72 1.72 0 0 0-1.77-1.72c-.46.01-.97-.02-1.3-.35-.32-.33-.36-.85-.34-1.31v-.07c0-.95-.77-1.73-1.71-1.73s-1.71.78-1.71 1.73.77 1.72 1.7 1.72z" fill="#E53B30"/></svg>