<!-- by TradingView --><svg xmlns="http://www.w3.org/2000/svg" width="18" height="18" viewBox="0 0 18 18"><path fill="#F0F3FA" d="M0 0h18v18H0z"/><path d="M10.36 5.8a.5.5 0 0 0-.1-.7.51.51 0 0 0-.7.1L7.92 7.24l-1.9-2.09a.51.51 0 0 0-.72-.03.5.5 0 0 0-.04.7l2.23 2.44c.26.28.7.26.93-.03l1.94-2.44zM6.7 9.46L4.7 7.54a29.69 29.69 0 0 1-.61.69l-.18.2a.51.51 0 0 1-.71.08.5.5 0 0 1-.08-.7l.25-.29.2-.21c.2-.23.44-.5.61-.72a.62.62 0 0 1 .9-.06l2.34 2.2c.2.2.21.51.02.71-.2.2-.52.2-.72.02zm4.5-2.2l1.65 1.8c.2.2.51.21.72.03a.5.5 0 0 0 .03-.7l-1.96-2.12a.61.61 0 0 0-.9 0l-3.9 4.36L4.9 8.84a.51.51 0 0 0-.72.02.5.5 0 0 0 .03.7l2.23 2.07c.25.24.65.22.88-.04l3.88-4.32zm.8 5.4l-1.87-2-1.83 2.16a.51.51 0 0 1-.72.06.5.5 0 0 1-.06-.7l2.13-2.5a.61.61 0 0 1 .92-.02l2.17 2.33a.5.5 0 0 1-.03.7.51.51 0 0 1-.71-.03zm-1.28-4.33c.2-.19.52-.18.71.02l1.9 1.93.8-.8c.19-.2.5-.2.7-.02.2.2.21.51.02.7l-1.1 1.11a.61.61 0 0 1-.87 0l-2.18-2.23a.5.5 0 0 1 .02-.7zM16 8.5a.5.5 0 1 1-1 0 .5.5 0 0 1 1 0zm-13 1a.5.5 0 1 1-1 0 .5.5 0 0 1 1 0z" fill="#E53B30"/></svg>