<!-- by TradingView --><svg xmlns="http://www.w3.org/2000/svg" width="56" height="56" viewBox="0 0 56 56"><path fill="#F0F3FA" d="M0 0h56v56H0z"/><path d="M12 36V25H8v-3h11v3h-4v11h-3ZM42.78 36l-2.08-5H39v5h-3V22h4.61c2.82 0 5.05 1.41 5.05 4.43.04 1.57-.52 2.95-1.87 3.8l2.6 5.77h-3.6Zm-2.24-7.52c2.52 0 2.3-3.48-.12-3.48H39v3.46l1.54.02Z" fill="#156B8A"/><path d="M48.02 24.77c.35.04.67.14.98.29a.9.9 0 0 0-.33.17c-.9.12-1.9-.08-2.95.12-.62.13-1.22.3-1.82.51-.16.06-.32.16-.43.14a.81.81 0 0 1-.35-.21l-.32-.3c-.26-.13-.78-.28-.8-.57 0-.11.05-.23.16-.26v-.12a51.82 51.82 0 0 1 1.89-1.86c.04-.04-.06-.02-.04-.06.13-.03.13-.17.27-.2.02-.2.26-.3.31-.47.15 0 .11-.17.26-.17-.02-.02-.04-.02-.06-.02.17-.1.17-.36.35-.46.21-.32.32-.75.54-1.13.13-.29.24-.57.31-.88.09-.25.13-.42-.02-.6-.32.06-.47.3-.72.4-.24.31-.62.58-.86.95-.03.03-.03.1-.09.13-.03.04-.09.08-.1.12-.08.11-.08.24-.17.36-.05.06-.14.1-.18.17-.05.12 0 .27-.15.37.08.2-.03.36-.1.57-.1.08-.2.12-.31.12-.13 0-.22.1-.31.07-.2-.02-.54-.38-.6-.61-.05-.21.07-.4.1-.61.1-.1.14-.25.1-.4.2-.18.18-.49.42-.66.1-.23.23-.42.4-.61.14-.21.3-.38.52-.52 0-.08.11-.08.1-.17.1-.04.21-.12.28-.23.26-.12.53-.15.8-.14.11 0 .2.08.33.1.2.04.4.04.6.06.43.06.85.23 1.21.5.07.1.1.17.24.23.27.34.4.8.34 1.24-.1.3-.18.62-.25.92-.1.3-.31.52-.47.73-.2.42-.48.79-.8 1.1.02.03 0 .07-.02.1-.3.26-.45.64-.85.81-.24.31-.58.5-.8.8.96-.03 2.32.05 3.4.18Z" fill="#BFCF38"/><path d="M32.98 31a5.23 5.23 0 0 1-1.66 3.61 5.89 5.89 0 0 1-4.1 1.39c-1.97 0-3.5-.6-4.58-1.82-1.09-1.2-1.64-2.9-1.64-5.1 0-2.2.55-3.94 1.66-5.19 1.13-1.27 2.67-1.89 4.65-1.89 1.57 0 2.79.39 3.73 1.2a5.7 5.7 0 0 1 1.77 3.5l-3.5.42c-.14-.73-.37-1.34-.72-1.65A2.04 2.04 0 0 0 27.2 25c-1.66 0-2.5 1.4-2.5 3.99 0 2.62.84 4.01 2.54 4.01a2.1 2.1 0 0 0 1.49-.55c.32-.31.54-.85.65-1.45h3.6Z" fill="#156B8A"/></svg>