<!-- by TradingView --><svg xmlns="http://www.w3.org/2000/svg" width="56" height="56" viewBox="0 0 56 56"><path fill="#F0F3FA" d="M0 0h56v56H0z"/><path d="M13.95 34.3a1.8 1.8 0 1 1-3.6 0 1.8 1.8 0 0 1 3.6 0ZM13.12 28.52c0 .9-.7 1.62-1.56 1.62-.86 0-1.56-.72-1.56-1.62 0-.89.7-1.61 1.56-1.61.87 0 1.56.72 1.56 1.61ZM13.95 22.97a1.26 1.26 0 1 1-2.52 0 1.26 1.26 0 0 1 2.52 0ZM17.17 18.11a1.08 1.08 0 1 1-2.15 0 1.08 1.08 0 0 1 2.15 0ZM21.48 14.34a.9.9 0 1 1-1.8 0 .9.9 0 0 1 1.8 0ZM26.5 12.54a.54.54 0 1 1-1.08 0 .54.54 0 0 1 1.08 0ZM32.24 12.72a.36.36 0 1 1-.72 0 .36.36 0 0 1 .72 0ZM36.9 14.52a.36.36 0 1 1-.72 0 .36.36 0 0 1 .72 0Z" fill="#E7C236"/><path d="M30.16 42.3a57.94 57.94 0 0 1-4.55-4.56c8.12.23 11.94-5.79 11.94-5.79s.51 1.36.94 3.15c.24-2.53-.27-3.97-.27-3.97s1.28-1.78 1.96-2.76c.89 8.85-6.42 13.47-10.02 13.93Zm-6.3-19.53c7.75-.93 12.18 6.08 12.18 6.08s-2.53 7.05-11.46 7.55c-4.5-6.13-.72-13.63-.72-13.63Zm-8.38 7.08c0-5.18.47-5.28.47-5.28s2.71-1.04 6.23-1.68c0 0-4.02 6.44-.92 13.2-1.23-.14-2.14-.53-3.2-.92 1.9 1.8 3.52 1.87 3.52 1.87l1.52 3.14s-7.5-3.47-7.62-10.33Zm13.74-13c4.63 0 9.23 3.52 9.17 4.2-.06.66-.36 3.2-1.67 6.27-3.93-6.92-10.85-7.56-10.85-7.56s.66-.85 2.26-2.15c-2.06.64-3.23 2.08-3.23 2.08-1.89-.09-1.82-.08-3.47-.19 0 0 3.17-2.64 7.8-2.64Zm-.93-2.33c-8.12 0-14.7 6.6-14.7 14.74S20.17 44 28.29 44C36.42 44 43 37.4 43 29.26s-6.58-14.74-14.7-14.74Z" fill="#E7C236"/></svg>