<!-- by TradingView --><svg xmlns="http://www.w3.org/2000/svg" width="18" height="18" viewBox="0 0 18 18"><path fill="#F0F3FA" d="M0 0h18v18H0z"/><path d="M4.04 8c.42 1.56 2.4 3.32 3.34 4 0-.6 0-.98.35-2.3.28-1.05.29-1.92.26-2.22-.12-.58-.74-1.7-2.35-1.44-1.6.25-1.74 1.41-1.6 1.97z" fill="url(#ahlpiud41)"/><path d="M9.9 3.75c-.87 1.3-.95 3.6-.88 4.59.44-.41.7-.66 1.86-1.36a8.48 8.48 0 0 0 1.75-1.36c.35-.46.77-1.57-.37-2.3-1.14-.74-2.05-.02-2.37.43z" fill="url(#bhlpiud41)"/><path d="M9.24 8.99C8.06 10.68 7.95 13.7 8.04 15c.6-.54.97-.87 2.55-1.78 1.26-.73 2.12-1.5 2.4-1.79.48-.6 1.05-2.05-.5-3.01a2.36 2.36 0 0 0-3.25.57z" fill="url(#chlpiud41)"/><defs><linearGradient id="ahlpiud41" x1="6" y1="6" x2="6" y2="12" gradientUnits="userSpaceOnUse"><stop stop-color="#D67DAB"/><stop offset="1" stop-color="#CE3289"/></linearGradient><linearGradient id="bhlpiud41" x1="12.5" y1="3.5" x2="8.73" y2="7.49" gradientUnits="userSpaceOnUse"><stop stop-color="#A379A9"/><stop offset="1" stop-color="#823883"/></linearGradient><linearGradient id="chlpiud41" x1="12.81" y1="8.65" x2="7.52" y2="14.52" gradientUnits="userSpaceOnUse"><stop stop-color="#D97E6C"/><stop offset=".63" stop-color="#CB4B42"/></linearGradient></defs></svg>