<!-- by TradingView --><svg width="18" height="18" fill="none" xmlns="http://www.w3.org/2000/svg"><path fill="#F0F3FA" d="M0 0h18v18H0z"/><path fill-rule="evenodd" clip-rule="evenodd" d="M14.95 9a5.95 5.95 0 11-11.9 0 5.95 5.95 0 0111.9 0zM7.512 6.705a9.924 9.924 0 00-.495-.333c-.199-.119-.695-.116-.942-.1 0 0-.035-.12.05-.148a.757.757 0 01.162-.022c.068-.004.128-.009.135-.027.01-.028-.046-.059-.105-.09a.527.527 0 01-.094-.06c-.046-.042-.028-.083-.01-.121l.01-.027c.199.159.546.198.694.198a.469.469 0 01.595-.099l1.389 1.091-.546-.149c.265.53-.148.943-.664 1.24a19.14 19.14 0 01-.686.37c-.506.265-.997.521-1.409.87-1.495 1.264-.886 3.257.829 4.065.888.419 1.91.49 2.476.447-1.14-.248-2.66-.703-2.962-2.133-.335-1.587.88-2.442 2.31-2.826.17-.045.372-.083.588-.124.743-.14 1.655-.312 1.987-.917.296-.54.013-1.339-.783-1.339l-.05-.149c.086-.085.409-1.14-.495-1.735-.857-.564-2.217-.4-2.777.496-.843-.198-1.502.074-1.896.496-.668.716-.337 1.625.358 2.132.7.51 1.77.423 2.448-.1.362-.278.286-.623-.117-.906zM9.298 4.09c1.19 0 3.272.774 3.669 2.281.396 1.507-.744 2.413-1.34 2.727-.138.073-.297.15-.467.232-.866.419-1.995.964-1.912 1.752.094.892 1.24 1.289 2.231.495-1.767.442-1.834-1.586-.05-1.705 1.1-.012 2.133.862 1.984 2.152-.092.793-1.349 2.102-2.38.991l-.298-.297c-.651.802-1.933 1.128-2.702.446-.511-.453-.67-1.19-.074-1.636-1.082.047-1.473-.937-.705-1.656.323-.302.787-.516 1.25-.625 1.605-.378 4.582-1.19 3.16-3.52-.51-.835-1.536-1.486-2.366-1.637z" fill="url(#paint0_linear_3186)"/><defs><linearGradient id="paint0_linear_3186" x1="9" y1="3.05" x2="9" y2="14.95" gradientUnits="userSpaceOnUse"><stop stop-color="#179C3F"/><stop offset="1" stop-color="#105093"/></linearGradient></defs></svg>