<!-- by TradingView --><svg xmlns="http://www.w3.org/2000/svg" width="56" height="56" viewBox="0 0 56 56"><path fill="#012F47" d="M0 0h56v56H0z"/><path fill-rule="evenodd" d="M26.37 24h-3.5l-2.76 8h2.38l1.74-5.21-.69 5.21h1.6l2.94-4.8-1.8 4.8h2.37l2.82-8h-3.24l-2.55 4.26.69-4.26zm-15.68 0h-5.3l-.57 1.64h1.43L4 32h2.5l2.22-6.36h1.37l.6-1.64zm4.99 0h-4.53L8.2 32h4.54l.64-1.7h-2.06l.58-1.6h2.08l.62-1.7h-2.06l.52-1.4h2.04l.58-1.6zm.67 0h3.71s.9.04 1.25.34c.34.3.53.7.37 1.34-.15.57-.34 1-.45 1.25-.1.24-.43.73-1.1.95-.39.13-.55.17-1.03.17-.11 0-.01.04.02.04.05 0 .57.05.88.24.31.18.52.54.37 1a96 96 0 0 1-.74 1.97l-.06.17c-.08.2-.06.26.04.47l.02.06h-2.5s-.1.03-.14-.18c-.03-.18 0-.27.08-.52l.03-.08.73-2.02s.06-.18-.06-.25c-.12-.06-.23-.07-.23-.07h-.27s-.13 0-.17.12c-.03.13-1.1 3-1.1 3h-2.6l2.95-8zm1.8 3.22l-.37.01.62-1.75.39.02s.36.03.23.47c-.07.23-.2.56-.27.75l-.05.16c-.03.08-.17.33-.55.34zM32.22 24h2.52l-2.9 8h-2.52l2.9-8zm6 0h-2.79l-2.94 8h2.3l1.67-4.7-.31 4.7h2.6c.16-.4 2.93-8 2.93-8h-2.31l-1.4 3.9.24-3.9zm4.16 0h2.5L42 32h-2.52l2.9-8zm5.57 0H45.3l.17 3.84L42.32 32h2.82l1.53-2.64-.15 2.64h2.57l-.34-4.1L52 24h-2.71l-1.58 2.3.24-2.3z" fill="#65D588"/></svg>