<!-- by TradingView --><svg width="18" height="18" xmlns="http://www.w3.org/2000/svg"><path fill="#18BED1" d="M0 0h18v18H0z"/><path d="M13 5H5.071C5 5 5 5 5 5.067v.877c0 .05.016.056.06.056H13V5zM13 7h-2.931C10 7 10 7 10 7.072v.87c0 .05.015.058.06.058H13V7zM8 12v-.948c0-.043-.013-.052-.056-.052h-2.89c-.042 0-.055 0-.053.052V12H8zM13 11h-2.942c-.045 0-.058.011-.058.058V12h2.953c.043 0 .047 0 .047-.047V11zM13 9h-2.94c-.047 0-.06 0-.06.058v.895c0 .034 0 .047.044.047H13V9zM7.956 8c.044 0 .057-.011.057-.058 0-.224-.009-.674-.009-.888 0-.038 0-.054-.048-.054H5.044C5.01 7 5 7.011 5 7.047c0 .224.009.689.009.9 0 .044.011.053.053.053h2.894zM7.942 10C7.99 10 8 10 8 9.944v-.89C8 9.018 8 9 7.951 9h-2.9c-.04 0-.052.013-.05.054v.892c0 .045.012.054.054.054h2.887z" fill="#fff"/></svg>