<!-- by TradingView --><svg width="56" height="56" xmlns="http://www.w3.org/2000/svg"><path fill="#18BED1" d="M0 0h56v56H0z"/><path d="M12 14h31.721c.285 0 .285 0 .285.259v2.525c0 .19-.063.216-.24.216H12v-3zM12 22h12.725C25 22 25 22 25 22.276v2.5c0 .19-.062.224-.24.224H12v-3zM31 41v-2.801c0-.164.053-.199.222-.199h12.565c.169 0 .222 0 .213.199V41H31zM12 38H24.77c.178 0 .231.043.231.224V41H12.187c-.17 0-.187 0-.187-.181V38zM12 30h12.76c.187 0 .24 0 .24.224v2.595c0 .13 0 .181-.178.181H12v-3zM31.231 25c-.178 0-.23-.043-.23-.224v-2.569c0-.147 0-.207.194-.207h12.633c.142 0 .178.043.178.181v2.612c0 .172-.045.207-.214.207h-12.56zM31.231 33c-.187 0-.231 0-.231-.216v-2.577c0-.138 0-.207.195-.207h12.608c.16 0 .205.052.196.207v2.586c0 .172-.044.207-.213.207H31.23z" fill="#fff"/></svg>