<!-- by TradingView --><svg width="18" height="18" fill="none" xmlns="http://www.w3.org/2000/svg"><path fill="#F0F3FA" d="M0 0h18v18H0z"/><path fill-rule="evenodd" clip-rule="evenodd" d="M11.47 8.7h4.295v.6H11.47v-.6zm-9.324 0H6.44v.6H2.146v-.6z" fill="#B62043"/><path fill-rule="evenodd" clip-rule="evenodd" d="M12.465 11A3.998 3.998 0 019 13a3.998 3.998 0 01-3.465-2H2.003V7h3.532A3.998 3.998 0 019 5c1.48 0 2.773.804 3.465 2H16v4h-3.535zm.202-.4h2.944V7.4h-2.944c.214.49.333 1.031.333 1.6 0 .569-.119 1.11-.333 1.6zM5.333 7.4H2.389v3.192h2.94A3.986 3.986 0 015 9c0-.569.119-1.11.333-1.6zm3.689-1.532L9.729 8h2.315l-1.877 1.392.707 2.178-1.852-1.346-1.853 1.345.708-2.177L6 8h2.314l.708-2.132z" fill="#005AAB"/></svg>