<!-- by TradingView --><svg xmlns="http://www.w3.org/2000/svg" width="18" height="18" viewBox="0 0 18 18"><path fill="#305CFD" d="M0 0h18v18H0z"/><path d="M11.42 4H6.6C5.7 4 5 4.68 5 5.57v5.79c0 .91.7 1.64 1.6 1.64h1.55l2.8 2-.59-2h1.06A1.6 1.6 0 0 0 13 11.39V5.57A1.52 1.52 0 0 0 11.42 4zM8 6.14v2.75C8 9.56 8.4 10 9 10s1-.46 1-1.1V6.13c0-.08.06-.14.14-.14h.72c.05 0 .08.01.1.04a.14.14 0 0 1 .04.1v2.83c0 .45-.09.83-.27 1.13-.18.3-.42.53-.72.68-.3.15-.64.22-1.01.22s-.7-.07-1.01-.22a1.7 1.7 0 0 1-.72-.69C7.09 9.8 7 9.41 7 8.96V6.14c0-.04.01-.07.03-.1l.04-.03a.1.1 0 0 1 .05 0h.75c.1 0 .13.04.13.13z" fill="#fff"/></svg>