<!-- by TradingView --><svg xmlns="http://www.w3.org/2000/svg" width="56" height="56" viewBox="0 0 56 56"><path fill="#305CFD" d="M0 0h56v56H0z"/><path d="M35.88 13H20.22A5.19 5.19 0 0 0 15 18.21v17.32C15 38.5 17.3 41 20.22 41h5.01l9.09 6-1.89-6h3.45C38.7 41 41 38.5 41 35.64V18.2A5.03 5.03 0 0 0 35.88 13zM24 19.43v8.82c0 2.14 1.9 3.76 4 3.75 2.1 0 4-1.68 4-3.75v-8.81c0-.26.18-.44.46-.44h2.06c.15 0 .26.04.35.12.04.04.07.1.1.15.02.05.03.11.03.17v9.05c0 1.45-.31 2.66-.94 3.64a5.65 5.65 0 0 1-2.52 2.16c-1.06.47-2.24.7-3.54.7-1.3 0-2.48-.23-3.53-.7a5.76 5.76 0 0 1-2.53-2.2 6.62 6.62 0 0 1-.94-3.63v-9.03c0-.11.04-.22.12-.3a.3.3 0 0 1 .12-.1.4.4 0 0 1 .17-.03h2.18c.31 0 .41.15.41.43z" fill="#fff"/></svg>