<!-- by TradingView --><svg xmlns="http://www.w3.org/2000/svg" width="18" height="18" viewBox="0 0 18 18"><path fill="#F0F3FA" d="M0 0h18v18H0z"/><path d="M3 6.96c-1.9 1.74-.66 3.27.2 3.82-1.24-1.22-.13-2.64.59-3.19l-.8-.63z" fill="#AB1A2D"/><path d="M7.29 6a5.62 5.62 0 0 0-3.51 1.6c.8-.6 1.43-.83 2.41-.88a2.4 2.4 0 0 1 1.59.5l1-.83C8.27 5.98 7.34 6 7.3 6zM3.7 12a5.62 5.62 0 0 0 3.52-1.6c-.81.6-1.43.83-2.41.88a2.4 2.4 0 0 1-1.6-.5l-1 .83c.53.41 1.46.39 1.5.39z" fill="#092F57"/><path d="M4.58 7.5l-.4 1.82c-.1.4.02 1.18 1.18 1.18 1.15 0 1.51-.9 1.55-1.36l.36-1.64h-.8l-.39 1.73c-.03.22-.2.65-.68.65-.47 0-.45-.43-.39-.65l.4-1.73h-.83zm4.62.76l.25-.58c-.1-.06-.41-.18-.8-.18-.49 0-1.29.25-1.29.92 0 .55.34.68.55.77l.12.05.08.05c.16.08.32.16.33.33 0 .2-.3.25-.52.25-.22 0-.6-.14-.68-.2l-.28.6a1.58 1.58 0 0 0 .94.22c.49-.03 1.25-.08 1.35-.94.02-.14-.03-.48-.42-.7l-.32-.18c-.25-.14-.35-.19-.35-.31.01-.16.29-.28.64-.22.28.05.4.1.4.12z" fill="#092F57"/><path d="M9.77 7.5l.14 3h.84l.94-1.89v1.89h.75l1.47-3h-.84l-.82 1.97V7.5h-.8l-.83 1.97V7.5h-.85zm5.98.76l.25-.58c-.1-.06-.42-.18-.8-.18-.5 0-1.29.25-1.29.92 0 .55.34.68.55.77l.11.05.09.05c.15.08.32.16.32.33.01.2-.29.25-.51.25-.23 0-.6-.14-.69-.2l-.27.6a1.58 1.58 0 0 0 .94.22c.49-.03 1.25-.08 1.35-.94.02-.14-.03-.48-.43-.7-.12-.08-.23-.14-.32-.18-.25-.14-.34-.19-.34-.31 0-.16.28-.28.64-.22.28.05.4.1.4.12z" fill="#AB1A2D"/></svg>