<!-- by TradingView --><svg xmlns="http://www.w3.org/2000/svg" width="56" height="56" viewBox="0 0 56 56"><path fill="#F0F3FA" d="M0 0h56v56H0z"/><path d="M9.12 22.03c-5.95 5.52-2.04 10.38.65 12.12-3.9-3.89-.4-8.36 1.84-10.12l-2.49-2z" fill="#AB1A2D"/><path d="M22.62 19c-4.8 0-9.35 3.36-11.03 5.04 2.54-1.86 4.5-2.6 7.58-2.75a7.5 7.5 0 0 1 5 1.57l3.17-2.62c-1.68-1.32-4.6-1.24-4.72-1.24zM11.36 38c4.8 0 9.36-3.36 11.04-5.04a12.37 12.37 0 0 1-7.58 2.75 7.5 7.5 0 0 1-5-1.57l-3.17 2.62c1.68 1.32 4.6 1.24 4.71 1.24zM13.38 24l-1.3 5.45c-.3 1.19.06 3.55 3.78 3.55 3.71 0 4.86-2.73 4.97-4.09L22 24h-2.6l-1.2 5.19c-.1.65-.68 1.95-2.2 1.95-1.5 0-1.45-1.3-1.24-1.95L16.01 24h-2.63zm14.8 2.3l.82-1.77a6.29 6.29 0 0 0-2.59-.53c-1.56 0-4.12.75-4.12 2.75 0 1.66 1.09 2.06 1.77 2.32a3.14 3.14 0 0 1 .64.29c.5.24 1.02.5 1.04 1 .02.61-.93.75-1.65.74a6.6 6.6 0 0 1-2.2-.57L21 32.28c.43.27 1.6.79 2.85.71h.16c1.57-.1 4.01-.25 4.34-2.83.07-.42-.1-1.45-1.36-2.13-.4-.22-.75-.39-1.03-.53-.8-.4-1.11-.56-1.1-.92.02-.48.9-.85 2.04-.67.92.15 1.28.34 1.28.38z" fill="#092F57"/><path d="M30 24l.47 9h2.69L36 27.34V33h2.58l4.7-9h-2.67L38 29.92V24h-2.62l-2.88 5.92V24H30zm19.18 2.3l.82-1.77a6.29 6.29 0 0 0-2.59-.53c-1.56 0-4.12.75-4.12 2.75 0 1.66 1.09 2.06 1.77 2.32a3.14 3.14 0 0 1 .64.29c.5.24 1.02.5 1.04 1 .02.61-.93.75-1.65.74a6.6 6.6 0 0 1-2.2-.57L42 32.28c.43.27 1.6.79 2.85.71h.16c1.57-.1 4.01-.25 4.34-2.83.07-.42-.1-1.45-1.36-2.13-.4-.22-.75-.39-1.03-.53-.8-.4-1.11-.56-1.1-.92.02-.48.9-.85 2.04-.67.92.15 1.28.34 1.28.38z" fill="#AB1A2D"/></svg>