<!-- by TradingView --><svg width="56" height="56" xmlns="http://www.w3.org/2000/svg"><path fill="url(#paint0_linear)" d="M0 0h56v56H0z"/><path d="M13 24v6.978C13 32 13.415 32 14.059 32H15v-8h-2zm33.84 5.692s-1.23-3.805-1.465-4.522c-.145-.485-.36-1.17-1.365-1.17h-2.293v8h.771c.595 0 .965-.38.965-1.044v-5.46h.03L45.717 32h2.088l2.234-6.503h.03v5.47c0 .548.273 1.033.965 1.033H52v-8h-2.156c-.761 0-1.23.316-1.463 1.044l-1.502 4.648h-.04zm-38.674.073L6.39 24.748C6.263 24.38 6.088 24 5.444 24H4l2.976 8h2.166l3.082-8h-1.278c-.546 0-.76.337-.897.717l-1.854 5.048h-.03zm21.346-4.037h.995c.712 0 1.132-.284 1.132-.98V24h-2.83c-2.36 0-3.493 1.592-3.493 3.995 0 2.993 1.728 4.005 3.494 4.005h2.83v-.77c0-.685-.44-.97-1.084-.97h-1.044c-1.121 0-2.166-.431-2.166-2.265 0-1.592.791-2.267 2.166-2.267zM22 28.976c0 .78-.4 1.391-1.376 1.391H19.61c-.713 0-1.132-.21-1.132-.832 0-.601.39-.844 1.132-.844H22v.285zM20.986 24h-3.99v.685c0 .527.252 1.044.945 1.044h2.615c1.073 0 1.444.38 1.444 1.296h-2.76c-2.011 0-2.742 1.138-2.742 2.498 0 1.655 1.025 2.477 2.741 2.477h1.795C23.385 32 24 30.63 24 28.954v-1.94C24 25.202 23.268 24 20.986 24zm15.22 6.345c1.267 0 2.009-.948 2.009-2.35 0-1.486-.791-2.35-2.01-2.35-1.297 0-2.03.937-2.03 2.35 0 1.349.713 2.35 2.03 2.35zm0-6.345c2.369 0 4.057 1.391 4.057 3.995 0 2.487-1.56 4.005-4.057 4.005-2.44 0-4.07-1.455-4.07-4.005 0-2.52 1.61-3.995 4.07-3.995z" fill="#fff"/><defs><linearGradient id="paint0_linear" x1="10.418" y1="9.712" x2="68.147" y2="76.017" gradientUnits="userSpaceOnUse"><stop stop-color="#1A1E21"/><stop offset="1" stop-color="#06060A"/></linearGradient></defs></svg>