<!-- by TradingView --><svg xmlns="http://www.w3.org/2000/svg" width="56" height="56" viewBox="0 0 56 56"><path fill="#F0F3FA" d="M0 0h56v56H0z"/><path d="M42.96 36.44c-.68-.45-1.48-.94-2.3-.94H35.2c-.65-.54-1.2-.97-1.6-1.75L22.26 11l-.62.7 6.03 12.07-6.73-11.2c-.2.25-.38.5-.56.76l6.87 11.44-7.48-10.51c-.17.27-.34.54-.49.82l7.63 10.71-8.14-9.73c-.15.3-.28.58-.4.88l8.29 9.9-8.71-8.88c-.12.3-.22.61-.32.92l8.86 9.03-9.17-7.98-.23.96 9.3 8.1-9.5-7.04c-.05.33-.1.65-.13.98l9.63 7.14-9.73-6.08-.04 1 9.85 6.15-9.85-5.11.05 1 9.95 5.17-9.85-4.16c.04.34.1.68.15 1l9.94 4.21-9.76-3.23.24 1 9.84 3.25-9.58-2.34c.1.33.2.65.33.97l9.64 2.36-9.31-1.5c.13.32.27.64.42.95l9.35 1.51-8.95-.72c.16.31.34.62.52.92l8.86.58H11v1h36l-3.54-1.23-.5-.33zm-3.9.56c-.86 0-1.67-.17-2.42-.5h4.01c.63 0 1.11.16 1.64.5h-3.23z" fill="#2D2D2D"/></svg>