<!-- by TradingView --><svg xmlns="http://www.w3.org/2000/svg" width="56" height="56" viewBox="0 0 56 56"><path fill="#86472C" d="M0 0h56v56H0z"/><path d="M11.75 22H6l1.03 1.17L11.98 34h.58l4.3-10.83L18 22h-3.67l1.3 1.17-2.38 6.06-2.69-6.06L11.75 22zM21 32.85L19.82 34h3.56l-1.09-1.15v-7.54l4.32 7.9 4.39-7.9v7.54L29.88 34h5.21L34 32.85v-9.7L35.1 22h-3.71l-3.72 7.08L23.83 22h-4L21 23.59v9.26zM48.34 22.6c-3.64-1.28-11.15-.98-11.34 5.63-.06 2.06 1.34 5.61 7.3 5.77.94-.02 3.24-.24 4.7-.88v-4.08L50 28h-5.3l1.3 1.04v3.8a4.42 4.42 0 0 1-5.6-4.61c0-2.46.95-5.1 3.64-5.23.53-.02 2.03.04 4.3 2.3v-2.7z" fill="#fff"/></svg>