<!-- by TradingView --><svg xmlns="http://www.w3.org/2000/svg" width="56" height="56" viewBox="0 0 56 56"><path fill="url(#azuuyxsnb)" d="M0 0h56v56H0z"/><path d="M41.74 33.92A14.96 14.96 0 0 1 27.69 43c5.76-2.66 11.73-7.16 14.05-9.08z" fill="#E10A0A"/><path d="M27.85 43c-1.4-.01-2.77-.22-4.06-.6 9.1-2.65 16.06-7.81 18.57-10.23-.2.72-.47 1.42-.78 2.1-5.85 5.07-11.35 7.86-13.73 8.73z" fill="#B40808"/><path d="M43 28c0 1.09-.11 2.14-.33 3.16-3.98 4.26-15.76 9.69-22.44 9.69a15.08 15.08 0 0 1-5.22-5.33c-1.06.6-1.7 1.42-1.7 2.31 0 1.87 2.83 3.39 6.34 3.39.38 0 .76-.02 1.12-.05-.75.18-1.58.28-2.46.28-3.48 0-6.31-1.63-6.31-3.65 0-1.23 1.04-2.31 2.64-2.97A15 15 0 1 1 43 28zm1.31-.86c.07 0 1.82-.63 2.69-.95l-.55 2.86-2.8.92.66-2.82z" fill="#E10A0A"/><path d="M17.4 26.73l.54-1.55c.09-.26.38-.68.67-.68.37 0 .5.32.56.6.03.09.2 1.1.42 2.33l.62 3.46c.44-2.93 1.82-9.65 3.76-13.03.17-.3.84-.68 1.4-.24.51.4.08 1.2-.23 1.52a10.8 10.8 0 0 0-1.43 2.57l-.26.72c-.67 1.8-1.95 5.23-2.67 12.16-.02.22-.17.68-.57.74-.4.06-.53-.47-.55-.74l-1.12-6.81c-.04-.18-.15-.48-.3-.27-.16.21-.55 1.17-.73 1.72-.16.4-.49.45-.7.33-.22-.12-.21-.45-.16-.62l.76-2.2zm15.42-3.01c.05-.37-.12-.62-.34-.6-.7.11-.92.76-.93 1.08l-.12 2.37c0 .43.02 1.14.38 1.01.45-.16.6-.35.67-.76 0-.8.18-1.97.28-2.65l.06-.45zm-8.85 4.04c.04-.37-.12-.62-.34-.59-.7.1-.92.76-.94 1.07l-.1 2.37c0 .43 0 1.15.37 1.02.45-.17.59-.35.67-.77 0-.8.17-1.96.28-2.65l.06-.45zm-.3-2.76c-.44.35-.42.7-.28.84.18.15.38.07.76-.24.34-.27.35-.53.28-.66-.07-.13-.32-.28-.76.06zm8.45-2.68c-.13-.14-.15-.5.29-.84.43-.35.69-.19.76-.07.06.14.06.4-.28.67-.39.3-.59.39-.77.24zm-6.5 3.94c-.66.24-.83.82-.83 1.07a86 86 0 0 0-.1 2.63c0 .5.23.57.35.55.6-.18.88-.61.88-.91v-1.34c0-.75.22-1.13.64-1.3.32-.13.44-.4.48-.57.1-.5-.25-.54-.44-.5l-.98.37zm3.64-1.36c-.1-.12-.4-.29-.85 0-.57.36-1.11 1.3-1.1 2.78.03 1.48.52 1.77.92 1.79.4.02 1.06-.34 1.2-.48v.48c-1.75 1.27-5.67 4.23-7.25 5.84-.3.26-.76.87-.28 1.25s1.03-.07 1.25-.35c1.15-1.23 4.03-4.06 6.28-5.46l-.17 5.8c-.02.3.11.84.8.75.69-.1.6-.9.55-1.34-.1-.93-.3-3.41-.16-5.89 1.58-1.1 5.37-3.5 7.93-4.24.49-.14 1.16-.65.92-1.22-.25-.57-1.48.06-2.06.44-.17.01-.46-.5-.3-2.69 0-.3-.14-.88-.66-.84-.53.03-1.08.58-1.29.84-.32-.03-1-.05-1.2.17-.18.22-.23.58-.23.73l-.16 2.77c0 .22.26.63.75.19.46-.42.45-.84.44-1.13v-.04c-.01-.7.1-2.11.68-2.2.58-.1.62.37.56.62-.1.75-.2 2.23.17 2.1-1.61.9-4.94 2.8-5.39 3.28-.05-.77-.1-2.64.14-3.95.06-.27-.05-.72-.46-.7-.48.02-.7.56-.66.85.02.15.03 3.35-.82 3.25-.67-.07-.44-1.8 0-2.31.33-.39.58-.75.45-1.09z" fill="#fff"/><defs><linearGradient id="azuuyxsnb" x1="10.42" y1="9.71" x2="68.15" y2="76.02" gradientUnits="userSpaceOnUse"><stop stop-color="#1A1E21"/><stop offset="1" stop-color="#06060A"/></linearGradient></defs></svg>