<!-- by TradingView --><svg xmlns="http://www.w3.org/2000/svg" width="18" height="18" viewBox="0 0 18 18"><path fill="url(#atxv0gby0)" d="M0 0h18v18H0z"/><path d="M10.5 7.94 8.5 6l-2 1.94v2.56h4V7.94ZM8.4 4.02A.27.27 0 0 1 8.5 4a.27.27 0 0 1 .22.09L11.8 7.1a.63.63 0 0 1 .2.47v4.1c0 .08-.03.16-.1.22a.3.3 0 0 1-.2.1H5.3a.3.3 0 0 1-.2-.1.33.33 0 0 1-.1-.22v-4.1a.66.66 0 0 1 .2-.47l3.1-3.02a.28.28 0 0 1 .1-.07Zm5.66 6.15a1 1 0 1 0-1.12 1.66 1 1 0 0 0 1.12-1.66Z" fill="#fff"/><defs><linearGradient id="atxv0gby0" x1="3.35" y1="3.12" x2="21.9" y2="24.43" gradientUnits="userSpaceOnUse"><stop stop-color="#1A1E21"/><stop offset="1" stop-color="#06060A"/></linearGradient></defs></svg>