<!-- by TradingView --><svg xmlns="http://www.w3.org/2000/svg" width="56" height="56" viewBox="0 0 56 56"><path fill="url(#ab4vams4m)" d="M0 0h56v56H0z"/><path d="m33 25.88-6.5-5.82-6.5 5.82V34h13v-8.13Zm-6.85-11.81a.93.93 0 0 1 .37-.07.93.93 0 0 1 .7.28l10.13 9.43a1.97 1.97 0 0 1 .65 1.46V38A1.01 1.01 0 0 1 36.99 39H16A1.03 1.03 0 0 1 15 38V25.16a1.96 1.96 0 0 1 .65-1.46l10.18-9.43c.1-.1.2-.17.32-.21ZM43.67 33.5a3 3 0 1 0-3.34 4.98 3 3 0 0 0 3.34-4.98Z" fill="#fff"/><defs><linearGradient id="ab4vams4m" x1="10.42" y1="9.71" x2="68.15" y2="76.02" gradientUnits="userSpaceOnUse"><stop stop-color="#1A1E21"/><stop offset="1" stop-color="#06060A"/></linearGradient></defs></svg>