<!-- by TradingView --><svg width="18" height="18" fill="none" xmlns="http://www.w3.org/2000/svg"><path fill="url(#paint0_linear_3186)" d="M0 0h18v18H0z"/><path d="M7.214 8.075c.516.735 1.39.877 1.764.857.372.02 1.247-.122 1.763-.857.236-.337.373-.706.41-1.056a1.535 1.535 0 00-.102-.759c-.233-.545-.852-.75-1.531-.79a9.657 9.657 0 00-1.06 0c-.687.036-1.317.24-1.552.79-.096.225-.13.486-.101.759.036.35.173.72.41 1.056zM8.346 5.033c0-.069.056-.124.124-.124h.998a.123.123 0 110 .247H8.47a.123.123 0 01-.124-.123z" fill="#EF1D24"/><path fill="#EF1D24" d="M8.482 5.153h.78v.37h-.78z"/><path fill="#EF1D24" d="M9.229 5.153h.225v.37h-.225z"/><ellipse cx="8.977" cy="9.738" rx="1.453" ry=".371" fill="#EF1D24"/><ellipse cx="8.969" cy="11.156" rx=".577" ry=".572" fill="#EF1D24"/><ellipse cx="11.028" cy="12.143" rx=".6" ry=".595" fill="#EF1D24"/><path fill-rule="evenodd" clip-rule="evenodd" d="M8.787 10.926v-2.26h.364v2.26h-.364zm.465.161l1.483.786-.172.318-.011-.006v.153H6.908v-.334h.028l-.065-.15 1.59-.684.05.114.102-.06.487.146.152-.283z" fill="#EF1D24"/><path d="M6.369 13.091h.388l1.635-4.369-.34-.125-1.683 4.494zM11.557 13.09L9.875 8.603l-.341.126 1.635 4.363h.388z" fill="#EF1D24"/><path fill-rule="evenodd" clip-rule="evenodd" d="M12.556 4.455H5.444v9.09h7.112v-9.09zM5 4v10h8V4H5z" fill="#fff"/><defs><linearGradient id="paint0_linear_3186" x1="3.349" y1="3.122" x2="21.904" y2="24.434" gradientUnits="userSpaceOnUse"><stop stop-color="#1A1E21"/><stop offset="1" stop-color="#06060A"/></linearGradient></defs></svg>