<!-- by TradingView --><svg width="56" height="56" fill="none" xmlns="http://www.w3.org/2000/svg"><path fill="url(#paint0_linear_3186)" d="M0 0h56v56H0z"/><path fill-rule="evenodd" clip-rule="evenodd" d="M48 20.5H8a.5.5 0 00-.5.5v14a.5.5 0 00.5.5h40a.5.5 0 00.5-.5V21a.5.5 0 00-.5-.5zM8 20a1 1 0 00-1 1v14a1 1 0 001 1h40a1 1 0 001-1V21a1 1 0 00-1-1H8z" fill="#F0F3FA"/><path d="M10 23v.36a.5.5 0 00.188.39l.312.25v8c0 1.91 2 2 3.25 2S17 33.91 17 32v-9h-1.5v9.5a.5.5 0 01-1 0V23H13v9.5a.5.5 0 01-1 0V23h-2z" fill="#F0F3FA"/><path fill-rule="evenodd" clip-rule="evenodd" d="M20 23c-.9 0-2 .322-2 1.5v8c0 1.178 1.1 1.5 2 1.5.9 0 2-.322 2-1.5V29h-1.5v3.5a.5.5 0 01-1 0V28H22v-3.5c0-1.178-1.1-1.5-2-1.5zm0 1a.5.5 0 00-.5.5V27h1v-2.5a.5.5 0 00-.5-.5zM30 23c-.9 0-2 .322-2 1.5v8c0 1.178 1.1 1.5 2 1.5.9 0 2-.322 2-1.5V29h-1.5v3.5a.5.5 0 01-1 0V28H32v-3.5c0-1.178-1.1-1.5-2-1.5zm0 1a.5.5 0 00-.5.5V27h1v-2.5a.5.5 0 00-.5-.5zM24.5 20H23v12.5c0 1.178 1.1 1.5 2 1.5.9 0 2-.322 2-1.5v-8c0-1.178-1.105-1.5-2-1.5-.162 0-.332.01-.5.035V20zm0 4.5v8a.5.5 0 001 0v-8a.5.5 0 00-1 0z" fill="#F0F3FA"/><path d="M32.5 23v.36a.5.5 0 00.188.39L33 24v10h1.5v-9.5a.5.5 0 011 0V28H37v-4c0-.5-.652-1-1.4-1-.444 0-.866.094-1.1.302V23h-2z" fill="#F0F3FA"/><path d="M40.563 27.047c.709 1.019 1.911 1.217 2.424 1.188.512.029 1.715-.17 2.424-1.188.325-.466.514-.978.563-1.464a2.143 2.143 0 00-.14-1.052c-.32-.755-1.171-1.04-2.105-1.095a13.176 13.176 0 00-1.456-.001c-.944.05-1.81.333-2.133 1.096a2.144 2.144 0 00-.14 1.052c.05.486.238.998.563 1.464z" fill="#EF1D24"/><path d="M40.092 25.243c0 .134-.076.242-.17.242-.095 0-.172-.108-.172-.242 0-.133.077-.24.171-.24.095 0 .171.107.171.24z" fill="#EF1D24"/><ellipse cx="46.031" cy="25.243" rx=".171" ry=".241" fill="#EF1D24"/><path d="M42.118 22.829c0-.095.077-.171.171-.171h1.37a.171.171 0 110 .342h-1.37a.171.171 0 01-.17-.171z" fill="#EF1D24"/><path fill="#EF1D24" d="M42.305 22.996h.311v.513h-.311zM43.332 22.996h.311v.513h-.311z"/><ellipse cx="42.928" cy="29.171" rx="2.225" ry=".482" fill="#EF1D24"/><circle cx="42.974" cy="31.318" r=".793" fill="#EF1D24"/><circle cx="45.805" cy="32.687" r=".824" fill="#EF1D24"/><path fill-rule="evenodd" clip-rule="evenodd" d="M42.724 30.999v-3.135h.5V31h-.5zm.64.223l2.038 1.089-.236.44-.109-.058h-4.65l-.118.052-.022-.052h-.124v-.2h.037l-.09-.207 2.186-.949.199.459-1.052.457 2.477-.178-.772-.412.236-.441zm-2.496 1.271h.001l3.361-.241.453.241h-3.815z" fill="#EF1D24"/><path d="M39.4 34h.533l2.249-6.056-.469-.174L39.4 34zM46.532 34l-2.313-6.223-.468.174 2.248 6.05h.533z" fill="#EF1D24"/><defs><linearGradient id="paint0_linear_3186" x1="10.418" y1="9.712" x2="68.147" y2="76.017" gradientUnits="userSpaceOnUse"><stop stop-color="#1A1E21"/><stop offset="1" stop-color="#06060A"/></linearGradient></defs></svg>