<!-- by TradingView --><svg width="18" height="18" fill="none" xmlns="http://www.w3.org/2000/svg"><path fill="#31B6EE" d="M0 0h18v18H0z"/><path d="M5.854 6.212L3.87 5.37a.5.5 0 00-.656.265l-.133.315a1 1 0 00.53 1.311l1.108.47a1 1 0 01.603 1.044l-.191 1.527a2.273 2.273 0 004.022 1.711 2.751 2.751 0 004.712-1.567l.4-2.878A.5.5 0 0013.77 7h-.777a.5.5 0 00-.495.427l-.43 2.902a.834.834 0 01-1.652-.222l.242-1.529A.5.5 0 0010.164 8h-.801a.5.5 0 00-.494.423l-.297 1.906a.834.834 0 11-1.653-.222l.337-2.502a1 1 0 00-.601-1.054l-.8-.34z" fill="#fff"/></svg>