<!-- by TradingView --><svg xmlns="http://www.w3.org/2000/svg" width="18" height="18" viewBox="0 0 18 18"><path fill="url(#aq3oe3kzh)" d="M0 0h18v18H0z"/><path d="m9.19 4.06.76.75c.08.11.08.23 0 .34l-.76.76c-.11.07-.27.07-.34 0l-.76-.76c-.08-.11-.08-.26 0-.34l.76-.75c.11-.08.26-.08.34 0Zm1 5.7 3.15 3.13c.08.11.08.26-.04.34l-.72.71a.23.23 0 0 1-.3 0l-2.9-2.86a.6.6 0 0 0-.84 0l-2.9 2.86a.23.23 0 0 1-.3 0l-.68-.75a.23.23 0 0 1 0-.3l3.16-3.13a.23.23 0 0 0 0-.3L4.66 6.34a.23.23 0 0 1 0-.3l.68-.72a.29.29 0 0 1 .35 0l2.9 2.86a.6.6 0 0 0 .83 0l2.9-2.86a.23.23 0 0 1 .3 0l.72.71c.08.08.08.23 0 .3l-3.16 3.13a.23.23 0 0 0 0 .3Z" fill="#fff"/><defs><linearGradient id="aq3oe3kzh" x1="15" y1="2.86" x2="2.06" y2="15.44" gradientUnits="userSpaceOnUse"><stop stop-color="#94298B"/><stop offset="1" stop-color="#B1227A"/></linearGradient></defs></svg>