<!-- by TradingView --><svg xmlns="http://www.w3.org/2000/svg" width="18" height="18" viewBox="0 0 18 18"><path fill="#F0F3FA" d="M0 0h18v18H0z"/><path d="M5.9 7.63a1.1 1.1 0 1 1 .6-.84c.07.19.23.35.55.37a.78.78 0 1 1-.55.75.8.8 0 0 0-.6-.28zm2.28 3.74c-.18.1-.34.24-.47.42-.44.63-.29 1.5.33 1.95.62.45 1.48.3 1.92-.33a1.42 1.42 0 0 0-.46-2.04c-.2-.19-.36-.53-.07-1.06a.89.89 0 0 0-.05-1.4.85.85 0 0 0-1.2.22.89.89 0 0 0 .19 1.2c.09.24.09.6-.19 1.04zm4.41-3.62c-.17 0-.34-.04-.49-.12a.8.8 0 0 0-.6.28.78.78 0 1 1-.55-.75c.32-.02.48-.18.56-.36a1.1 1.1 0 1 1 1.08.95z" fill="#F29B0D"/><circle cx="6" cy="10" r="1" fill="#0369A9"/><ellipse cx="13.03" cy="10.33" rx=".97" ry=".99" fill="#0369A9"/><circle cx="9" cy="6.34" r=".78" fill="#0369A9"/><circle cx="7.44" cy="4.94" r=".63" fill="#0369A9"/><ellipse cx="10.81" cy="10.33" rx=".55" ry=".56" fill="#0369A9"/><circle cx="6.33" cy="12.43" r=".55" fill="#0369A9"/><ellipse cx="11.63" cy="11.85" rx=".58" ry=".59" fill="#0369A9"/><circle cx="10.88" cy="5.25" r=".63" fill="#0369A9"/><circle cx="8.84" cy="4.31" r=".31" fill="#0369A9"/><circle cx="4.39" cy="8.45" r=".39" fill="#0369A9"/><circle cx="4.7" cy="11.27" r=".23" fill="#0369A9"/><ellipse cx="10.88" cy="13.26" rx=".25" ry=".26" fill="#0369A9"/><ellipse cx="12.78" cy="8.63" rx=".25" ry=".26" fill="#0369A9"/></svg>