<!-- by TradingView --><svg xmlns="http://www.w3.org/2000/svg" width="56" height="56" viewBox="0 0 56 56"><path fill="#F0F3FA" d="M0 0h56v56H0z"/><path d="M18.07 23.63a3.5 3.5 0 1 1 1.9-2.68c.26.58.78 1.1 1.8 1.16A2.5 2.5 0 1 1 20 24.5a2.54 2.54 0 0 0-1.93-.87zm7.3 11.94a4.53 4.53 0 0 0-.44 7.6 4.35 4.35 0 0 0 6.14-1.07 4.53 4.53 0 0 0-1.46-6.5c-.64-.63-1.15-1.73-.23-3.4a2.84 2.84 0 0 0-.17-4.46 2.73 2.73 0 0 0-3.84.67 2.84 2.84 0 0 0 .6 3.87c.3.75.3 1.9-.6 3.3zM39.5 24c-.56 0-1.1-.13-1.57-.37-.96.04-1.57.43-1.93.87a2.5 2.5 0 1 1-1.76-2.39c1.01-.06 1.53-.58 1.79-1.15A3.5 3.5 0 1 1 39.5 24z" fill="#F29B0D"/><ellipse cx="17.94" cy="31.3" rx="3.31" ry="3.37" fill="#0369A9"/><ellipse cx="40.89" cy="32.26" rx="3.11" ry="3.16" fill="#0369A9"/><circle cx="28" cy="19.5" r="2.5" fill="#0369A9"/><circle cx="23" cy="15" r="2" fill="#0369A9"/><ellipse cx="33.81" cy="32.26" rx="1.77" ry="1.8" fill="#0369A9"/><circle cx="19.47" cy="38.97" r="1.75" fill="#0369A9"/><ellipse cx="36.4" cy="37.13" rx="1.85" ry="1.89" fill="#0369A9"/><circle cx="34" cy="16" r="2" fill="#0369A9"/><circle cx="27.5" cy="13" r="1" fill="#0369A9"/><circle cx="13.25" cy="26.25" r="1.25" fill="#0369A9"/><circle cx="14.25" cy="35.25" r=".75" fill="#0369A9"/><ellipse cx="34.02" cy="41.64" rx=".81" ry=".83" fill="#0369A9"/><ellipse cx="40.08" cy="26.83" rx=".81" ry=".83" fill="#0369A9"/></svg>