<!-- by TradingView --><svg width="18" height="18" viewBox="0 0 18 18" xmlns="http://www.w3.org/2000/svg"><path fill="#F0F3FA" d="M0 0h18v18H0z"/><path d="M9 12c-1.64 0-3-1.37-3-3 0-1.64 1.37-3 3-3 1.64 0 3 1.36 3 3 0 1.63-1.37 3-3 3Zm0-1c1 0 2-1 2-2s-1-2-2-2-2 1-2 2 1 2 2 2Z" fill="#1251A1"/><path d="M10.69 14v-.5A4.73 4.73 0 0 0 14 9.02a4.8 4.8 0 0 0-3.31-4.52v1A3.68 3.68 0 0 1 13 9a3.6 3.6 0 0 1-2.31 3.5V12l-2.14 1.13 2.14.87ZM7.3 6v-.5A3.62 3.62 0 0 0 5 9c0 1.57.82 2.88 2.31 3.5v1A4.8 4.8 0 0 1 4 8.98 4.85 4.85 0 0 1 7.31 4.5V4l2.22.82L7.31 6Z" fill="#558B02"/></svg>